<?xml version="1.0" encoding="UTF-8" standalone="no"?><!DOCTYPE svg PUBLIC "-//W3C//DTD SVG 1.1//EN" "http://www.w3.org/Graphics/SVG/1.1/DTD/svg11.dtd"><svg width="100%" height="100%" viewBox="0 0 16000 9000" version="1.1" xmlns="http://www.w3.org/2000/svg" xmlns:xlink="http://www.w3.org/1999/xlink" xml:space="preserve" xmlns:serif="http://www.serif.com/" style="fill-rule:evenodd;clip-rule:evenodd;stroke-linejoin:round;stroke-miterlimit:2;"><g id="Mountains"><path d="M8703.544,4700.154c969.078,-333.012 4515.022,-2841.705 4757.292,-3019.312c242.269,-177.607 594.661,22.201 858.955,377.414c264.294,355.213 3501.895,2930.509 4008.459,3019.312c506.563,88.803 889.114,297.56 889.114,297.56l-11615.045,116.333c0,0 132.147,-458.295 1101.225,-791.308Z" style="fill:#d0c6da;"/><path d="M6412.935,4419.764c951.61,-403.569 4433.639,-3443.788 4671.542,-3659.025c237.903,-215.237 583.943,26.905 843.473,457.378c259.53,430.474 3438.774,3551.407 3936.206,3659.025c497.433,107.618 873.088,360.606 873.088,360.606l-11405.684,140.981c0,0 129.765,-555.396 1081.375,-958.965Z" style="fill:#cab8de;"/><path d="M-769.753,4935.113c951.61,-403.569 4433.639,-3443.788 4671.542,-3659.025c237.903,-215.237 583.943,26.905 843.473,457.378c259.53,430.474 3438.774,3551.407 3936.206,3659.025c497.433,107.618 873.088,360.606 873.088,360.606l-11405.684,140.981c0,0 129.765,-555.396 1081.375,-958.965Z" style="fill:#e5d7f5;"/><path d="M3115.22,4587.421c969.078,-333.012 4515.022,-2841.705 4757.292,-3019.312c242.269,-177.607 594.661,22.201 858.955,377.414c264.294,355.213 3501.895,2930.509 4008.459,3019.312c506.563,88.803 889.114,297.56 889.114,297.56l-11615.045,116.333c-0,0 132.147,-458.295 1101.225,-791.308Z" style="fill:#d0c6da;"/></g><g id="Skyline"><rect x="7653.782" y="2622.401" width="972.875" height="2465.016" style="fill:#a9a58e;"/><rect x="8725.711" y="2045.209" width="972.875" height="3042.209" style="fill:#e0dfda;"/><rect x="10160.446" y="2853.278" width="972.875" height="2465.016" style="fill:#c8c3a8;"/><rect x="9418.342" y="3512.927" width="972.875" height="1805.368" style="fill:#a9a58e;"/><rect x="6293.258" y="2498.717" width="972.875" height="2609.315" style="fill:#c8c3a8;"/><rect x="5229.575" y="3830.254" width="972.875" height="1339.491" style="fill:#a9a58e;"/><rect x="7128.125" y="3158.366" width="972.875" height="1959.973" style="fill:#e0dfda;"/><rect x="10910.796" y="3566.313" width="972.875" height="1751.981" style="fill:#e0dfda;"/><rect x="11595.181" y="2477.894" width="972.875" height="2955.839" style="fill:#a9a58e;"/><rect x="12395.005" y="3681.752" width="972.875" height="1751.981" style="fill:#e0dfda;"/><rect x="13203.074" y="3376.665" width="972.875" height="2461.103" style="fill:#a9a58e;"/><rect x="12194.909" y="2330.587" width="233.014" height="205.668" style="fill:#a9a58e;"/><rect x="12086.616" y="2255.146" width="449.599" height="105.19" style="fill:#a9a58e;"/><rect x="12044.949" y="2161.997" width="532.933" height="100.232" style="fill:#a9a58e;"/><rect x="12003.283" y="2095.742" width="616.266" height="88.191" style="fill:#a9a58e;"/><rect x="12131.218" y="2040.31" width="360.396" height="55.432" style="fill:#a9a58e;"/><rect x="12300.999" y="1854.492" width="20.833" height="213.534" style="fill:#a9a58e;"/></g><g id="Guideway"><g id="Guideway1" serif:id="Guideway"><rect x="7405.06" y="4104.686" width="9111.809" height="54.788" style="fill:#988982;"/><path d="M15150.912,4265.569l-24.864,0l-73.289,-106.096l293.157,0l-73.289,106.096l-24.864,0l0,1034.055l-96.851,0l0,-1034.055Z" style="fill:#685055;"/><path d="M14178.037,4265.569l-24.864,0l-73.289,-106.096l293.157,0l-73.289,106.096l-24.864,0l0,1034.055l-96.851,0l0,-1034.055Z" style="fill:#685055;"/><path d="M13205.163,4265.569l-24.865,0l-73.288,-106.096l293.156,0l-73.288,106.096l-24.863,0l0,1034.055l-96.851,0l0,-1034.055Z" style="fill:#685055;"/><path d="M12232.287,4265.569l-24.864,0l-73.289,-106.096l293.156,0l-73.288,106.096l-24.864,0l0,1034.055l-96.851,0l0,-1034.055Z" style="fill:#685055;"/><path d="M10286.535,4265.569l-24.864,-0l-73.289,-106.096l293.157,0l-73.289,106.096l-24.864,0l0,1034.055l-96.851,0l0,-1034.055Z" style="fill:#685055;"/><path d="M9313.659,4265.569l-24.864,-0l-73.289,-106.096l293.157,0l-73.289,106.096l-24.864,0l0,1034.055l-96.851,0l0,-1034.055Z" style="fill:#685055;"/><path d="M8340.784,4265.569l-24.864,-0l-73.289,-106.096l293.157,0l-73.289,106.096l-24.864,0l0,1034.055l-96.851,0l0,-1034.055Z" style="fill:#685055;"/><path d="M7367.91,4265.569l-24.865,0l-73.288,-106.096l293.156,0l-73.288,106.096l-24.863,0l0,1034.055l-96.851,0l0,-1034.055Z" style="fill:#685055;"/><path d="M11259.41,4265.569l-24.864,-0l-73.289,-106.096l293.157,0l-73.289,106.096l-24.864,0l0,1034.055l-96.851,0l0,-1034.055Z" style="fill:#685055;"/><path d="M9313.661,4265.569l-24.865,0l-73.288,-106.096l293.156,0l-73.288,106.096l-24.863,0l0,1034.055l-96.851,0l0,-1034.055Z" style="fill:#685055;"/><path d="M8340.785,4265.569l-24.864,0l-73.289,-106.096l293.156,0l-73.288,106.096l-24.864,0l0,1034.055l-96.851,0l0,-1034.055Z" style="fill:#685055;"/></g><g id="Guideway2" serif:id="Guideway"><rect x="-381.566" y="4104.685" width="9111.809" height="54.788" style="fill:#988982;"/><path d="M8337.161,4265.568l-24.864,-0l-73.289,-106.096l293.157,0l-73.289,106.096l-24.864,0l0,1034.055l-96.851,0l0,-1034.055Z" style="fill:#685055;"/><path d="M7364.286,4265.568l-24.864,-0l-73.289,-106.096l293.157,0l-73.289,106.096l-24.864,0l0,1034.055l-96.851,0l0,-1034.055Z" style="fill:#685055;"/><path d="M6391.41,4265.568l-24.864,-0l-73.289,-106.096l293.157,0l-73.289,106.096l-24.864,0l0,1034.055l-96.851,0l0,-1034.055Z" style="fill:#685055;"/><path d="M5418.537,4265.568l-24.865,0l-73.288,-106.096l293.156,0l-73.288,106.096l-24.863,0l0,1034.055l-96.851,0l0,-1034.055Z" style="fill:#685055;"/><path d="M4445.66,4265.568l-24.864,0l-73.289,-106.096l293.156,0l-73.288,106.096l-24.864,0l0,1034.055l-96.851,0l0,-1034.055Z" style="fill:#685055;"/><path d="M2499.909,4265.568l-24.864,0l-73.289,-106.096l293.157,0l-73.289,106.096l-24.864,0l0,1034.055l-96.851,0l0,-1034.055Z" style="fill:#685055;"/><path d="M1527.033,4265.568l-24.864,0l-73.289,-106.096l293.157,0l-73.289,106.096l-24.864,0l0,1034.055l-96.851,0l0,-1034.055Z" style="fill:#685055;"/><path d="M554.158,4265.568l-24.864,0l-73.289,-106.096l293.157,0l-73.289,106.096l-24.864,0l0,1034.055l-96.851,0l0,-1034.055Z" style="fill:#685055;"/><path d="M3472.784,4265.568l-24.864,0l-73.289,-106.096l293.157,0l-73.289,106.096l-24.864,0l0,1034.055l-96.851,0l0,-1034.055Z" style="fill:#685055;"/><path d="M1527.035,4265.568l-24.865,0l-73.288,-106.096l293.156,0l-73.288,106.096l-24.863,0l0,1034.055l-96.851,0l0,-1034.055Z" style="fill:#685055;"/><path d="M554.159,4265.568l-24.864,0l-73.289,-106.096l293.156,0l-73.288,106.096l-24.864,0l0,1034.055l-96.851,0l0,-1034.055Z" style="fill:#685055;"/></g></g><path id="Grass" d="M-1420.993,5365.959c0,0 3929.374,-110.501 6288.473,-276.977c2359.099,-166.476 11906.077,275.855 11906.077,275.855l0,5768.734l-18485.751,0l291.201,-5767.612Z" style="fill:#9bc6a3;"/><g id="Bike-lane" serif:id="Bike lane"><g><path d="M7828.746,8313.639c-0.923,-1.785 -1.938,-3.659 -3.052,-5.624c-40.519,-71.48 -169.024,-178.154 -285.802,-299.451c-0.132,-0.137 -43.256,-46.265 -88.58,-103.052c-143.835,-180.212 -292.377,-442.274 -267.911,-813.394c0.554,-8.399 0.932,-8.347 2.164,-16.679c12.208,-82.569 30.761,-145.97 31.387,-148.208c1.141,-4.08 15.777,-43.913 36.247,-87.797c22.013,-47.194 42.99,-82.506 46.719,-88.095c135.414,-202.934 305.685,-297.958 473.181,-368.929c25.635,-10.862 25.797,-10.423 47.769,-19.929c48.774,-21.102 88.725,-36.367 99.761,-41.124c49.323,-21.258 57.539,-23.689 99.32,-41.385c126.039,-53.384 267.279,-103.697 423.463,-167.084c282.532,-114.665 531.956,-246.521 716.888,-463.62c185.692,-217.991 253.022,-460.951 285.792,-622.601l387.764,77.371c-39.162,193.174 -125.34,516.211 -379.463,810.764c-312.413,362.117 -732.516,517.317 -1076.77,654.854c-96.926,38.724 -157.82,65.94 -171.399,72.008c-30.729,13.734 -40.607,18.42 -66.03,31.861c-31.44,16.622 -40.752,22.567 -44.165,24.747c-34.033,21.729 -57.241,40.663 -62.3,44.763c-13.297,10.776 -44.545,42.039 -61.405,67.195c-9.409,14.038 -58.982,84.017 -25.036,150.509c5.563,10.896 12.19,19.34 15.823,23.719c0.729,0.878 0.833,0.775 1.436,1.727c7.519,11.879 23.745,28.947 25.987,31.306c5.234,5.506 5.349,5.394 5.736,5.929c0.167,0.231 0.166,0.561 0.344,0.784c0.068,0.086 0.255,-0.031 0.324,0.055c0.039,0.049 9.053,14.444 20.948,32.23c0.49,0.733 0.97,1.472 1.472,2.197c3.716,5.359 2.716,7.65 10.001,25.354c24.453,59.43 56.587,72.236 93.102,88.797l87.703,39.667c5.192,2.336 4.995,2.725 63.422,32.294c192.837,97.592 473.147,235.469 657.551,544.665c65.593,109.981 98.938,208.695 115.948,265.686c0.066,0.222 11.31,38.614 21.785,90.963c24.897,124.418 27.499,233.735 26.441,304.642c-0.129,8.638 -1.965,68.059 -15.286,165.211c-10.335,75.376 -23.667,145.647 -31.844,186.89c-3.447,17.382 -43.332,166.266 -82.592,282.35c-9.376,27.724 -16.77,43.667 -18.481,47.357c-5.819,12.546 -12.989,24.422 -19.234,36.762c-0.311,0.615 -16.039,35.868 -52.278,116.016c-4.259,9.42 -4.62,9.227 -9.52,18.332c-147.927,274.852 -241.091,440.737 -258.769,472.376l-1272.39,-712.573c150.858,-270.009 241.441,-441.449 254.414,-464.727c0.179,-0.322 0.213,-0.282 30.191,-47.773l38.829,-61.631l-31.495,67.406c0.099,-0.184 1.811,-2.541 12.666,-24.615c33.301,-67.723 60.823,-132.387 65.784,-144.043c0.042,-0.098 26.34,-49.783 35.379,-63.651c0.533,-0.817 6.012,-9.224 8.413,-8.823c6.939,1.158 12.184,2.048 16.56,2.798c0.566,-0.145 1.145,-0.239 1.73,-0.266c6.006,-0.277 30.929,-1.131 61.358,-4.506Zm-74.538,14.025l-0.9,-0.091l-0.265,2.754c0.447,-0.86 0.761,-1.783 1.165,-2.664Z" style="fill:#959595;"/><path d="M8256.714,8809.833c39.405,-97.206 113.445,-297.593 128.092,-411.259c5.752,-44.636 5.199,-86.142 5.099,-93.644c-4.413,-330.973 -262.291,-452.592 -492.048,-637.12c-164.199,-131.875 -312.949,-297.47 -319.133,-592.086c-1.434,-68.327 8.525,-119.491 10.514,-129.71c50.429,-259.085 264.628,-388.534 552.281,-509.789c533.536,-224.903 1287.082,-401.665 1484.623,-1359.506c1.394,-6.76 1.369,-6.752 2.742,-13.524l22.159,4.417c-39.167,193.195 -122.684,489.787 -362.91,753.231c-420.329,460.955 -1061.104,543.064 -1408.892,776.287c-200.257,134.29 -270.505,294.02 -249.887,519.87c32.76,358.861 296.544,491.107 523.46,662.51c179.374,135.491 336.641,297.399 310.086,613.338c-1.4,16.655 -7.824,125.335 -111.701,400.699c-11.58,30.696 -19.75,50.995 -19.892,51.288c-0.731,1.508 -54.802,103.574 -63.043,118.927c-130.682,243.475 -239.578,438.38 -260.767,476.304l-72.679,-40.706c23.122,-41.452 80.095,-143.183 171.459,-311.204l150.437,-278.321Z" style="fill:#ffe834;"/></g><path d="M7747.745,8324.784c0,0 20.102,-12.969 21.399,-38.259c1.297,-25.29 -15.563,-95.972 -15.563,-95.972l116.723,93.378l2.594,71.979l-96.621,17.508l-28.532,-48.635Z" style="fill:#959595;"/><path d="M9407.083,5096.293l448.303,11.739l-9.901,-64.772l-428.503,-53.433l-9.899,106.466Z" style="fill:#a9a58e;"/></g></svg>