<?xml version="1.0" encoding="UTF-8" standalone="no"?>
<svg
   width="1408.0924"
   height="1078.0986"
   viewBox="0 0 1408.0924 1078.0986"
   version="1.1"
   xml:space="preserve"
   style="clip-rule:evenodd;fill-rule:evenodd;stroke-linejoin:round;stroke-miterlimit:2"
   id="svg59"
   sodipodi:docname="banner2.svg"
   inkscape:version="1.3 (0e150ed6c4, 2023-07-21)"
   xmlns:inkscape="http://www.inkscape.org/namespaces/inkscape"
   xmlns:sodipodi="http://sodipodi.sourceforge.net/DTD/sodipodi-0.dtd"
   xmlns="http://www.w3.org/2000/svg"
   xmlns:svg="http://www.w3.org/2000/svg"
   xmlns:serif="http://www.serif.com/"><defs
   id="defs59">&#10;            &#10;            &#10;            &#10;            &#10;            &#10;            &#10;            &#10;            &#10;            &#10;            &#10;            &#10;            &#10;            &#10;            &#10;            &#10;            &#10;            &#10;            &#10;            &#10;            &#10;            &#10;            &#10;            &#10;            &#10;            &#10;            &#10;            &#10;            &#10;            &#10;            &#10;            &#10;            &#10;            &#10;            &#10;            &#10;            &#10;            &#10;            &#10;        </defs><sodipodi:namedview
   id="namedview59"
   pagecolor="#ffffff"
   bordercolor="#000000"
   borderopacity="0.25"
   inkscape:showpageshadow="2"
   inkscape:pageopacity="0.0"
   inkscape:pagecheckerboard="0"
   inkscape:deskcolor="#d1d1d1"
   inkscape:zoom="0.28118866"
   inkscape:cx="746.82954"
   inkscape:cy="645.4741"
   inkscape:window-width="1920"
   inkscape:window-height="1009"
   inkscape:window-x="-8"
   inkscape:window-y="-8"
   inkscape:window-maximized="1"
   inkscape:current-layer="Bottom-half" />&#10;    <g
   id="Background"
   transform="matrix(14.22049,0,0,6.812502,-6660.7301,-5001.9957)">&#10;        <rect
   x="352.07199"
   y="683.46899"
   width="480.996"
   height="317.064"
   style="fill:#c1e0f2"
   id="rect1" />&#10;    </g>&#10;    &#10;    <g
   id="Bottom-half"
   serif:id="Bottom half"
   transform="translate(-654.09969,-345.86142)">&#10;        <g
   transform="matrix(-0.50903447,0,0,-0.35199485,2414.0192,1365.1199)"
   id="g27">&#10;                <path
   d="m 1823.139,969.853 h 11.723 l 34.555,72.34 h -138.218 l 34.554,-72.34 h 11.723 V 264.806 h 45.663 z"
   style="fill:#685055"
   id="path26" />&#10;            </g><g
   transform="matrix(-0.50903447,0,0,-0.35199485,2180.5292,1365.1199)"
   id="g28">&#10;                <path
   d="m 1823.139,969.853 h 11.723 l 34.555,72.34 h -138.218 l 34.554,-72.34 h 11.723 V 264.806 h 45.663 z"
   style="fill:#685055"
   id="path27" />&#10;            </g><g
   transform="matrix(-0.50903447,0,0,-0.35199485,1947.0391,1365.1199)"
   id="g29">&#10;                <path
   d="m 1823.139,969.853 h 11.723 l 34.555,72.34 h -138.218 l 34.554,-72.34 h 11.723 V 264.806 h 45.663 z"
   style="fill:#685055"
   id="path28" />&#10;            </g><g
   transform="matrix(1.1873223,0,0,0.23489188,-999.99886,791.51536)"
   id="g39">&#10;                <rect
   x="0"
   y="824.24597"
   width="3840"
   height="55.979"
   style="fill:#988982"
   id="rect38" />&#10;            </g><g
   transform="matrix(-0.50903447,0,0,-0.35199485,2880.9993,1365.1195)"
   id="g46">&#10;                <path
   d="m 1823.139,969.853 h 11.723 l 34.555,72.34 h -138.218 l 34.554,-72.34 h 11.723 V 264.806 h 45.663 z"
   style="fill:#685055"
   id="path45" />&#10;            </g><g
   transform="matrix(-0.50903447,0,0,-0.35199485,2647.5093,1365.1195)"
   id="g47">&#10;                <path
   d="m 1823.139,969.853 h 11.723 l 34.555,72.34 h -138.218 l 34.554,-72.34 h 11.723 V 264.806 h 45.663 z"
   style="fill:#685055"
   id="path46" />&#10;            </g><g
   transform="matrix(0.56948765,0,0,0.56948765,1228.9325,998.27306)"
   id="g48">&#10;                <path
   d="M 451.365,44.712 H 440.886 L 410,0 h 123.545 l -30.886,44.712 h -10.478 v 435.783 h -40.816 z"
   style="fill:#685055"
   id="path47" />&#10;            </g><g
   transform="matrix(0.56948765,0,0,0.56948765,1695.9125,998.27306)"
   id="g50">&#10;                <path
   d="M 451.365,44.712 H 440.886 L 410,0 h 123.545 l -30.886,44.712 h -10.478 v 435.783 h -40.816 z"
   style="fill:#685055"
   id="path49" />&#10;            </g><g
   transform="matrix(0.56948765,0,0,0.56948765,1695.9125,998.27306)"
   id="g51">&#10;                <path
   d="M 41.365,44.712 H 30.886 L 0,0 H 123.545 L 92.659,44.712 H 82.181 V 480.495 H 41.365 Z"
   style="fill:#685055"
   id="path50" />&#10;            </g><g
   transform="matrix(-0.50903447,0,0,-0.35199485,1713.5491,1365.1201)"
   id="g53">&#10;                <path
   d="m 1823.139,969.853 h 11.723 l 34.555,72.34 h -138.218 l 34.554,-72.34 h 11.723 V 264.806 h 45.663 z"
   style="fill:#685055"
   id="path52" />&#10;            </g>&#10;        &#10;    </g>&#10;<rect
   style="fill:#9bc6a3;fill-opacity:1;stroke:none;stroke-width:1.273;stroke-linecap:round"
   id="rect2"
   width="1408.0924"
   height="211.59488"
   x="-2.6359839e-05"
   y="866.50372" /></svg>
