<?xml version="1.0" encoding="UTF-8" standalone="no"?>
<svg
   width="3772.2017"
   height="1078.0986"
   viewBox="0 0 3772.2017 1078.0986"
   version="1.1"
   xml:space="preserve"
   style="clip-rule:evenodd;fill-rule:evenodd;stroke-linejoin:round;stroke-miterlimit:2"
   id="svg59"
   sodipodi:docname="banner.svg"
   inkscape:version="1.3 (0e150ed6c4, 2023-07-21)"
   xmlns:inkscape="http://www.inkscape.org/namespaces/inkscape"
   xmlns:sodipodi="http://sodipodi.sourceforge.net/DTD/sodipodi-0.dtd"
   xmlns="http://www.w3.org/2000/svg"
   xmlns:svg="http://www.w3.org/2000/svg"
   xmlns:serif="http://www.serif.com/"><defs
   id="defs59" /><sodipodi:namedview
   id="namedview59"
   pagecolor="#ffffff"
   bordercolor="#000000"
   borderopacity="0.25"
   inkscape:showpageshadow="2"
   inkscape:pageopacity="0.0"
   inkscape:pagecheckerboard="0"
   inkscape:deskcolor="#d1d1d1"
   inkscape:zoom="0.19883041"
   inkscape:cx="2972.3824"
   inkscape:cy="927.92648"
   inkscape:window-width="1920"
   inkscape:window-height="1009"
   inkscape:window-x="-8"
   inkscape:window-y="-8"
   inkscape:window-maximized="1"
   inkscape:current-layer="svg59" />&#10;    <g
   id="Background"
   transform="matrix(14.22049,0,0,6.812502,-8068.8225,-5001.9957)">&#10;        <rect
   x="352.07199"
   y="683.46899"
   width="480.996"
   height="317.064"
   style="fill:#c1e0f2"
   id="rect1" />&#10;    </g>&#10;    <g
   id="Top-half"
   serif:id="Top half"
   transform="matrix(0.732948,0,0,0.732948,25.248382,-12.367205)">&#10;        <g
   id="Mountains"
   transform="translate(500)">&#10;            <g
   transform="matrix(1.367584,0,0,1.378532,2576.3989,-170.86405)"
   id="g1">&#10;                <path
   d="m -356.503,942.235 c 170.065,-57.977 792.35,-494.736 834.866,-525.657 42.517,-30.921 104.359,3.865 150.74,65.707 46.382,61.842 614.555,560.743 703.453,576.204 88.897,15.46 156.032,51.804 156.032,51.804 l -2038.348,20.254 c 0,0 23.191,-130.335 193.257,-188.312 z"
   style="fill:#d0c6da"
   id="path1" />&#10;            </g>&#10;            <g
   transform="matrix(1.342933,0,0,1.670607,2017.8645,-513.36084)"
   id="g2">&#10;                <path
   d="m -356.503,942.235 c 170.065,-57.977 792.35,-494.736 834.866,-525.657 42.517,-30.921 104.359,3.865 150.74,65.707 46.382,61.842 614.555,510.196 703.453,525.657 88.897,15.46 156.032,112.977 156.032,112.977 l -2038.348,20.253 c 0,0 23.191,-140.96 193.257,-198.937 z"
   style="fill:#cab8de"
   id="path2" />&#10;            </g>&#10;            <g
   transform="matrix(1.342933,0,0,1.670607,294.0195,-389.67689)"
   id="g3">&#10;                <path
   d="m -356.503,942.235 c 170.065,-57.977 792.35,-494.736 834.866,-525.657 42.517,-30.921 104.359,3.865 150.74,65.707 46.382,61.842 614.555,510.196 703.453,525.657 88.897,15.46 156.032,51.805 156.032,51.805 L -549.76,1080 c 0,0 23.191,-79.788 193.257,-137.765 z"
   style="fill:#e5d7f5"
   id="path3" />&#10;            </g>&#10;            <g
   transform="matrix(1.367584,0,0,1.378532,1235.201,-197.91992)"
   id="g4">&#10;                <path
   d="m -356.503,942.235 c 170.065,-57.977 792.35,-494.736 834.866,-525.657 42.517,-30.921 104.359,3.865 150.74,65.707 46.382,61.842 614.555,510.196 703.453,525.657 88.897,15.46 156.032,131.722 156.032,131.722 l -2038.348,20.254 c 0,0 23.191,-159.706 193.257,-217.683 z"
   style="fill:#d0c6da"
   id="path4" />&#10;            </g>&#10;        </g>&#10;        <g
   id="Skyline"
   transform="translate(500)">&#10;            <g
   transform="matrix(0.803508,0,0,0.780538,105.65162,395.18867)"
   id="g5">&#10;                <rect
   x="2154.623"
   y="338.121"
   width="290.58899"
   height="920.604"
   style="fill:#a9a58e"
   id="rect4" />&#10;            </g>&#10;            <g
   transform="matrix(0.803508,0,0,0.963304,362.91447,165.13688)"
   id="g6">&#10;                <rect
   x="2154.623"
   y="338.121"
   width="290.58899"
   height="920.604"
   style="fill:#e0dfda"
   id="rect5" />&#10;            </g>&#10;            <g
   transform="matrix(0.803508,0,0,0.748836,707.2509,431.58954)"
   id="g7">&#10;                <rect
   x="2154.623"
   y="338.121"
   width="290.58899"
   height="920.604"
   style="fill:#c8c3a8"
   id="rect6" />&#10;            </g>&#10;            <g
   transform="matrix(0.803508,0,0,0.548445,529.14585,683.82738)"
   id="g8">&#10;                <rect
   x="2154.623"
   y="338.121"
   width="290.58899"
   height="920.604"
   style="fill:#a9a58e"
   id="rect7" />&#10;            </g>&#10;            <g
   transform="matrix(0.803508,0,0,0.82623,-220.87436,343.68482)"
   id="g9">&#10;                <rect
   x="2154.623"
   y="338.121"
   width="290.58899"
   height="920.604"
   style="fill:#c8c3a8"
   id="rect8" />&#10;            </g>&#10;            <g
   transform="matrix(0.803508,0,0,0.512419,-476.15826,746.00129)"
   id="g10">&#10;                <rect
   x="2154.623"
   y="338.121"
   width="290.58899"
   height="920.604"
   style="fill:#a9a58e"
   id="rect9" />&#10;            </g>&#10;            <g
   transform="matrix(0.803508,0,0,0.620618,-20.506144,605.49768)"
   id="g11">&#10;                <rect
   x="2154.623"
   y="338.121"
   width="290.58899"
   height="920.604"
   style="fill:#e0dfda"
   id="rect10" />&#10;            </g>&#10;            <g
   transform="matrix(0.803508,0,0,0.532227,887.33489,704.24156)"
   id="g12">&#10;                <rect
   x="2154.623"
   y="338.121"
   width="290.58899"
   height="920.604"
   style="fill:#e0dfda"
   id="rect11" />&#10;            </g>&#10;            <g
   transform="matrix(0.803508,0,0,0.846698,1051.5873,308.40797)"
   id="g13">&#10;                <rect
   x="2154.623"
   y="338.121"
   width="290.58899"
   height="920.604"
   style="fill:#a9a58e"
   id="rect12" />&#10;            </g>&#10;            <g
   transform="matrix(0.803508,0,0,0.501854,1243.545,742.4722)"
   id="g14">&#10;                <rect
   x="2154.623"
   y="338.121"
   width="290.58899"
   height="920.604"
   style="fill:#e0dfda"
   id="rect13" />&#10;            </g>&#10;            <g
   transform="matrix(0.803508,0,0,0.61239,1437.4816,603.3375)"
   id="g15">&#10;                <rect
   x="2154.623"
   y="338.121"
   width="290.58899"
   height="920.604"
   style="fill:#a9a58e"
   id="rect14" />&#10;            </g>&#10;            <g
   transform="matrix(0.788012,0,0,1.169101,614.35149,-86.556844)"
   id="g16">&#10;                <rect
   x="2934.5081"
   y="552.474"
   width="70.968002"
   height="42.221001"
   style="fill:#a9a58e"
   id="rect15" />&#10;            </g>&#10;            <g
   transform="matrix(1,0,0,1.192753,6.951498,-92.484146)"
   id="g17">&#10;                <rect
   x="2893.8359"
   y="531.30798"
   width="107.904"
   height="21.166"
   style="fill:#a9a58e"
   id="rect16" />&#10;            </g>&#10;            <g
   transform="matrix(1,0,0,1.136533,6.951498,-84.969918)"
   id="g18">&#10;                <rect
   x="2883.8359"
   y="531.30798"
   width="127.904"
   height="21.166"
   style="fill:#a9a58e"
   id="rect17" />&#10;            </g>&#10;            <g
   transform="translate(6.951498,-28.329943)"
   id="g19">&#10;                <rect
   x="2873.8359"
   y="531.30798"
   width="147.90401"
   height="21.166"
   style="fill:#a9a58e"
   id="rect18" />&#10;            </g>&#10;            <g
   transform="matrix(0.584805,0,0,0.628549,1230.8577,155.72119)"
   id="g20">&#10;                <rect
   x="2873.8359"
   y="531.30798"
   width="147.90401"
   height="21.166"
   style="fill:#a9a58e"
   id="rect19" />&#10;            </g>&#10;            <g
   transform="matrix(1,0,0,1.400739,0.518768,-179.2776)"
   id="g21">&#10;                <rect
   x="2951.7209"
   y="445.733"
   width="5"
   height="36.585999"
   style="fill:#a9a58e"
   id="rect20" />&#10;            </g>&#10;        </g>&#10;    </g>&#10;    <g
   id="Bottom-half"
   serif:id="Bottom half"
   transform="translate(-2062.1921,-345.86142)">&#10;        <g
   id="Guideway"
   transform="matrix(0.721295,0,0,0.721295,2780.0322,359.84013)">&#10;            <g
   transform="matrix(0.925269,0,0,0.325653,809.17382,598.47283)"
   id="g22">&#10;                <rect
   x="0"
   y="824.24597"
   width="3840"
   height="55.979"
   style="fill:#988982"
   id="rect21" />&#10;            </g>&#10;            <g
   transform="matrix(-0.705723,0,0,-0.488004,4996.8281,1393.7151)"
   id="g23">&#10;                <path
   d="m 1823.139,969.853 h 11.723 l 34.555,72.34 h -138.218 l 34.554,-72.34 h 11.723 V 244.919 h 45.663 z"
   style="fill:#685055"
   id="path22" />&#10;            </g>&#10;            <g
   transform="matrix(-0.705723,0,0,-0.488004,4673.1186,1393.7151)"
   id="g24">&#10;                <path
   d="m 1823.139,969.853 h 11.723 l 34.555,72.34 h -138.218 l 34.554,-72.34 h 11.723 V 264.806 h 45.663 z"
   style="fill:#685055"
   id="path23" />&#10;            </g>&#10;            <g
   transform="matrix(-0.705723,0,0,-0.488004,4349.4091,1393.7151)"
   id="g25">&#10;                <path
   d="m 1823.139,969.853 h 11.723 l 34.555,72.34 h -138.218 l 34.554,-72.34 h 11.723 V 264.806 h 45.663 z"
   style="fill:#685055"
   id="path24" />&#10;            </g>&#10;            <g
   transform="matrix(-0.705723,0,0,-0.488004,5320.5376,1393.7151)"
   id="g26">&#10;                <path
   d="m 1823.139,969.853 h 11.723 l 34.555,72.34 h -138.218 l 34.554,-72.34 h 11.723 V 244.919 h 45.663 z"
   style="fill:#685055"
   id="path25" />&#10;            </g>&#10;            <g
   transform="matrix(-0.705723,0,0,-0.488004,-507.43869,1393.7151)"
   id="g27">&#10;                <path
   d="m 1823.139,969.853 h 11.723 l 34.555,72.34 h -138.218 l 34.554,-72.34 h 11.723 V 264.806 h 45.663 z"
   style="fill:#685055"
   id="path26" />&#10;            </g>&#10;            <g
   transform="matrix(-0.705723,0,0,-0.488004,-831.14819,1393.7151)"
   id="g28">&#10;                <path
   d="m 1823.139,969.853 h 11.723 l 34.555,72.34 h -138.218 l 34.554,-72.34 h 11.723 V 264.806 h 45.663 z"
   style="fill:#685055"
   id="path27" />&#10;            </g>&#10;            <g
   transform="matrix(-0.705723,0,0,-0.488004,-1154.8577,1393.7151)"
   id="g29">&#10;                <path
   d="m 1823.139,969.853 h 11.723 l 34.555,72.34 h -138.218 l 34.554,-72.34 h 11.723 V 264.806 h 45.663 z"
   style="fill:#685055"
   id="path28" />&#10;            </g>&#10;            <g
   transform="matrix(0.789535,0,0,0.789535,2382.701,885.1209)"
   id="g30">&#10;                <path
   d="M 451.365,44.712 H 440.886 L 410,0 h 123.545 l -30.886,44.712 h -10.478 v 435.783 h -40.816 z"
   style="fill:#685055"
   id="path29" />&#10;            </g>&#10;            <g
   transform="matrix(0.789535,0,0,0.789535,2382.701,885.1209)"
   id="g31">&#10;                <path
   d="M 41.365,44.712 H 30.886 L 0,0 H 123.545 L 92.659,44.712 H 82.181 V 480.495 H 41.365 Z"
   style="fill:#685055"
   id="path30" />&#10;            </g>&#10;            <g
   transform="matrix(-0.705723,0,0,-0.488004,3054.5711,1393.715)"
   id="g32">&#10;                <path
   d="m 1823.139,969.853 h 11.723 l 34.555,72.34 h -138.218 l 34.554,-72.34 h 11.723 V 264.806 h 45.663 z"
   style="fill:#685055"
   id="path31" />&#10;            </g>&#10;            <g
   transform="matrix(-0.705723,0,0,-0.488004,2730.8616,1393.715)"
   id="g33">&#10;                <path
   d="m 1823.139,969.853 h 11.723 l 34.555,72.34 h -138.218 l 34.554,-72.34 h 11.723 V 264.806 h 45.663 z"
   style="fill:#685055"
   id="path32" />&#10;            </g>&#10;            <g
   transform="matrix(-0.705723,0,0,-0.488004,2407.1521,1393.715)"
   id="g34">&#10;                <path
   d="m 1823.139,969.853 h 11.723 l 34.555,72.34 h -138.218 l 34.554,-72.34 h 11.723 V 264.806 h 45.663 z"
   style="fill:#685055"
   id="path33" />&#10;            </g>&#10;            <g
   transform="matrix(0.789535,0,0,0.789535,440.44396,885.12074)"
   id="g35">&#10;                <path
   d="M 451.365,44.712 H 440.886 L 410,0 h 123.545 l -30.886,44.712 h -10.478 v 435.783 h -40.816 z"
   style="fill:#685055"
   id="path34" />&#10;            </g>&#10;            <g
   transform="matrix(-0.705723,0,0,-0.488004,3378.2806,1393.715)"
   id="g36">&#10;                <path
   d="m 1823.139,969.853 h 11.723 l 34.555,72.34 h -138.218 l 34.554,-72.34 h 11.723 V 264.806 h 45.663 z"
   style="fill:#685055"
   id="path35" />&#10;            </g>&#10;            <g
   transform="matrix(0.789535,0,0,0.789535,1087.863,885.12074)"
   id="g37">&#10;                <path
   d="M 451.365,44.712 H 440.886 L 410,0 h 123.545 l -30.886,44.712 h -10.478 v 435.783 h -40.816 z"
   style="fill:#685055"
   id="path36" />&#10;            </g>&#10;            <g
   transform="matrix(0.789535,0,0,0.789535,1087.863,885.12074)"
   id="g38">&#10;                <path
   d="M 41.365,44.712 H 30.886 L 0,0 H 123.545 L 92.659,44.712 H 82.181 V 480.495 H 41.365 Z"
   style="fill:#685055"
   id="path37" />&#10;            </g>&#10;            <g
   transform="matrix(1.646098,0,0,0.325653,-5240.6173,598.47251)"
   id="g39">&#10;                <rect
   x="0"
   y="824.24597"
   width="3840"
   height="55.979"
   style="fill:#988982"
   id="rect38" />&#10;            </g>&#10;            <g
   transform="matrix(-0.705723,0,0,-0.488004,2405.9468,1393.7148)"
   id="g40">&#10;                <path
   d="m 1823.139,969.853 h 11.723 l 34.555,72.34 h -138.218 l 34.554,-72.34 h 11.723 V 264.806 h 45.663 z"
   style="fill:#685055"
   id="path39" />&#10;            </g>&#10;            <g
   transform="matrix(-0.705723,0,0,-0.488004,2082.2373,1393.7148)"
   id="g41">&#10;                <path
   d="m 1823.139,969.853 h 11.723 l 34.555,72.34 h -138.218 l 34.554,-72.34 h 11.723 V 264.806 h 45.663 z"
   style="fill:#685055"
   id="path40" />&#10;            </g>&#10;            <g
   transform="matrix(-0.705723,0,0,-0.488004,1758.5278,1393.7148)"
   id="g42">&#10;                <path
   d="m 1823.139,969.853 h 11.723 l 34.555,72.34 h -138.218 l 34.554,-72.34 h 11.723 V 264.806 h 45.663 z"
   style="fill:#685055"
   id="path41" />&#10;            </g>&#10;            <g
   transform="matrix(0.789535,0,0,0.789535,-208.18036,885.12058)"
   id="g43">&#10;                <path
   d="M 451.365,44.712 H 440.886 L 410,0 h 123.545 l -30.886,44.712 h -10.478 v 435.783 h -40.816 z"
   style="fill:#685055"
   id="path42" />&#10;            </g>&#10;            <g
   transform="matrix(0.789535,0,0,0.789535,-208.18036,885.12058)"
   id="g44">&#10;                <path
   d="M 41.365,44.712 H 30.886 L 0,0 H 123.545 L 92.659,44.712 H 82.181 V 480.495 H 41.365 Z"
   style="fill:#685055"
   id="path43" />&#10;            </g>&#10;            <g
   transform="matrix(-0.705723,0,0,-0.488004,463.68981,1393.7146)"
   id="g45">&#10;                <path
   d="m 1823.139,969.853 h 11.723 l 34.555,72.34 h -138.218 l 34.554,-72.34 h 11.723 V 264.806 h 45.663 z"
   style="fill:#685055"
   id="path44" />&#10;            </g>&#10;            <g
   transform="matrix(-0.705723,0,0,-0.488004,139.98031,1393.7146)"
   id="g46">&#10;                <path
   d="m 1823.139,969.853 h 11.723 l 34.555,72.34 h -138.218 l 34.554,-72.34 h 11.723 V 264.806 h 45.663 z"
   style="fill:#685055"
   id="path45" />&#10;            </g>&#10;            <g
   transform="matrix(-0.705723,0,0,-0.488004,-183.72919,1393.7146)"
   id="g47">&#10;                <path
   d="m 1823.139,969.853 h 11.723 l 34.555,72.34 h -138.218 l 34.554,-72.34 h 11.723 V 264.806 h 45.663 z"
   style="fill:#685055"
   id="path46" />&#10;            </g>&#10;            <g
   transform="matrix(0.789535,0,0,0.789535,-2150.4374,885.12042)"
   id="g48">&#10;                <path
   d="M 451.365,44.712 H 440.886 L 410,0 h 123.545 l -30.886,44.712 h -10.478 v 435.783 h -40.816 z"
   style="fill:#685055"
   id="path47" />&#10;            </g>&#10;            <g
   transform="matrix(-0.705723,0,0,-0.488004,787.39931,1393.7146)"
   id="g49">&#10;                <path
   d="m 1823.139,969.853 h 11.723 l 34.555,72.34 h -138.218 l 34.554,-72.34 h 11.723 V 264.806 h 45.663 z"
   style="fill:#685055"
   id="path48" />&#10;            </g>&#10;            <g
   transform="matrix(0.789535,0,0,0.789535,-1503.0184,885.12042)"
   id="g50">&#10;                <path
   d="M 451.365,44.712 H 440.886 L 410,0 h 123.545 l -30.886,44.712 h -10.478 v 435.783 h -40.816 z"
   style="fill:#685055"
   id="path49" />&#10;            </g>&#10;            <g
   transform="matrix(0.789535,0,0,0.789535,-1503.0184,885.12042)"
   id="g51">&#10;                <path
   d="M 41.365,44.712 H 30.886 L 0,0 H 123.545 L 92.659,44.712 H 82.181 V 480.495 H 41.365 Z"
   style="fill:#685055"
   id="path50" />&#10;            </g>&#10;            <g
   transform="matrix(-0.705723,0,0,-0.488004,-1802.2767,1393.7154)"
   id="g52">&#10;                <path
   d="m 1823.139,969.853 h 11.723 l 34.555,72.34 h -138.218 l 34.554,-72.34 h 11.723 V 264.806 h 45.663 z"
   style="fill:#685055"
   id="path51" />&#10;            </g>&#10;            <g
   transform="matrix(-0.705723,0,0,-0.488004,-1478.5672,1393.7154)"
   id="g53">&#10;                <path
   d="m 1823.139,969.853 h 11.723 l 34.555,72.34 h -138.218 l 34.554,-72.34 h 11.723 V 264.806 h 45.663 z"
   style="fill:#685055"
   id="path52" />&#10;            </g>&#10;            <g
   transform="matrix(0.789535,0,0,0.789535,-3768.9849,885.12121)"
   id="g54">&#10;                <path
   d="M 451.365,44.712 H 440.886 L 410,0 h 123.545 l -30.886,44.712 h -10.478 v 435.783 h -40.816 z"
   style="fill:#685055"
   id="path53" />&#10;            </g>&#10;            <g
   transform="matrix(-0.705723,0,0,-0.488004,-2450.901,1393.7153)"
   id="g55">&#10;                <path
   d="m 1823.139,969.853 h 11.723 l 34.555,72.34 h -138.218 l 34.554,-72.34 h 11.723 V 264.806 h 45.663 z"
   style="fill:#685055"
   id="path54" />&#10;            </g>&#10;            <g
   transform="matrix(-0.705723,0,0,-0.488004,-2774.6105,1393.7153)"
   id="g56">&#10;                <path
   d="m 1823.139,969.853 h 11.723 l 34.555,72.34 h -138.218 l 34.554,-72.34 h 11.723 V 264.806 h 45.663 z"
   style="fill:#685055"
   id="path55" />&#10;            </g>&#10;            <g
   transform="matrix(-0.705723,0,0,-0.488004,-3098.32,1393.7153)"
   id="g57">&#10;                <path
   d="m 1823.139,969.853 h 11.723 l 34.555,72.34 h -138.218 l 34.554,-72.34 h 11.723 V 264.806 h 45.663 z"
   style="fill:#685055"
   id="path56" />&#10;            </g>&#10;            <g
   transform="matrix(0.789535,0,0,0.789535,-5065.0282,885.12105)"
   id="g58">&#10;                <path
   d="M 451.365,44.712 H 440.886 L 410,0 h 123.545 l -30.886,44.712 h -10.478 v 435.783 h -40.816 z"
   style="fill:#685055"
   id="path57" />&#10;            </g>&#10;            <g
   transform="matrix(0.789535,0,0,0.789535,-5065.0282,885.12105)"
   id="g59">&#10;                <path
   d="M 41.365,44.712 H 30.886 L 0,0 H 123.545 L 92.659,44.712 H 82.181 V 480.495 H 41.365 Z"
   style="fill:#685055"
   id="path58" />&#10;            </g>&#10;        </g>&#10;        <g
   id="Grass"
   transform="matrix(1.46509,0,0,1,-266.6287,141.35572)">&#10;            <path
   d="m -550.536,1115.179 c 0,0 1152.547,4.775 1718.731,-35.179 566.184,-39.954 3247.459,66.205 3247.459,66.205 V 2530.701 H -590.927 Z"
   style="fill:#9bc6a3"
   id="path59" />&#10;        </g>&#10;    </g>&#10;<path
   id="path1-1"
   style="clip-rule:evenodd;fill:#ffffff;fill-rule:evenodd;stroke-width:0.569488;stroke-linejoin:round;stroke-miterlimit:1.5"
   d="m 2522.1038,582.30466 c -0.697,-0.008 -1.0102,0.38321 -0.9453,1.16797 v 56.83007 h 229.6504 v -56.76172 c -0.042,-0.90263 -0.5181,-1.2853 -1.3535,-1.23632 z m 232.0977,0 c -0.6971,-0.008 -1.0102,0.38321 -0.9453,1.16797 v 56.83007 h 229.6504 v -56.76172 c -0.042,-0.90263 -0.5181,-1.2853 -1.3536,-1.23632 z m 233.1015,0 c -0.697,-0.008 -1.0102,0.38321 -0.9453,1.16797 v 56.83007 h 229.6504 v -56.76172 c -0.042,-0.90263 -0.518,-1.2853 -1.3535,-1.23632 z m 233.1915,0 c -0.6971,-0.008 -1.0103,0.38321 -0.9454,1.16797 v 56.83007 h 229.6504 v -56.76172 c -0.042,-0.90263 -0.518,-1.2853 -1.3535,-1.23632 z m -687.4903,7.41992 h 32.7949 c 1.1099,0 2.0098,0.89974 2.0098,2.00976 v 16.55664 c 0,1.11003 -0.8999,2.00977 -2.0098,2.00977 h -32.7949 c -1.1099,0 -2.0097,-0.89974 -2.0097,-2.00977 v -16.55664 c 0,-1.11002 0.8998,-2.00976 2.0097,-2.00976 z m 84.6504,0 h 32.793 c 1.1099,0 2.0097,0.89974 2.0097,2.00976 v 16.55664 c 0,1.11003 -0.8998,2.00977 -2.0097,2.00977 h -32.793 c -1.1099,0 -2.0117,-0.89974 -2.0117,-2.00977 v -16.55664 c 0,-1.11002 0.9018,-2.00976 2.0117,-2.00976 z m 87.7637,0 h 32.793 c 1.1099,0 2.0097,0.89974 2.0097,2.00976 v 16.55664 c 0,1.11003 -0.8998,2.00977 -2.0097,2.00977 h -32.793 c -1.1099,0 -2.0098,-0.89974 -2.0098,-2.00977 v -16.55664 c 0,-1.11002 0.8999,-2.00976 2.0098,-2.00976 z m 59.6855,0 h 32.793 c 1.1099,0 2.0098,0.89974 2.0098,2.00976 v 16.55664 c 0,1.11003 -0.8999,2.00977 -2.0098,2.00977 h -32.793 c -1.1098,0 -2.0117,-0.89974 -2.0117,-2.00977 v -16.55664 c 0,-1.11002 0.9019,-2.00976 2.0117,-2.00976 z m 84.6485,0 h 32.7929 c 1.1099,0 2.0098,0.89974 2.0098,2.00976 v 16.55664 c 0,1.11003 -0.8999,2.00977 -2.0098,2.00977 h -32.7929 c -1.1099,0 -2.0118,-0.89974 -2.0118,-2.00977 v -16.55664 c 0,-1.11002 0.9019,-2.00976 2.0118,-2.00976 z m 87.7636,0 h 32.793 c 1.1099,0 2.0117,0.89974 2.0117,2.00976 v 16.55664 c 0,1.11003 -0.9018,2.00977 -2.0117,2.00977 h -32.793 c -1.1098,0 -2.0097,-0.89974 -2.0097,-2.00977 v -16.55664 c 0,-1.11002 0.8999,-2.00976 2.0097,-2.00976 z m 60.6895,0 h 32.793 c 1.1099,0 2.0097,0.89974 2.0097,2.00976 v 16.55664 c 0,1.11003 -0.8998,2.00977 -2.0097,2.00977 h -32.793 c -1.1099,0 -2.0117,-0.89974 -2.0117,-2.00977 v -16.55664 c 0,-1.11002 0.9018,-2.00976 2.0117,-2.00976 z m 84.6484,0 h 32.793 c 1.1099,0 2.0098,0.89974 2.0098,2.00976 v 16.55664 c 0,1.11003 -0.8999,2.00977 -2.0098,2.00977 h -32.793 c -1.1098,0 -2.0117,-0.89974 -2.0117,-2.00977 v -16.55664 c 0,-1.11002 0.9019,-2.00976 2.0117,-2.00976 z m 87.7637,0 h 32.793 c 1.1098,0 2.0117,0.89974 2.0117,2.00976 v 16.55664 c 0,1.11003 -0.9019,2.00977 -2.0117,2.00977 h -32.793 c -1.1099,0 -2.0098,-0.89974 -2.0098,-2.00977 v -16.55664 c 0,-1.11002 0.8999,-2.00976 2.0098,-2.00976 z m 60.7773,0 h 32.793 c 1.1099,0 2.0117,0.89974 2.0117,2.00976 v 16.55664 c 0,1.11003 -0.9018,2.00977 -2.0117,2.00977 h -32.793 c -1.1099,0 -2.0097,-0.89974 -2.0097,-2.00977 v -16.55664 c 0,-1.11002 0.8998,-2.00976 2.0097,-2.00976 z m 84.6485,0 h 32.793 c 1.1099,0 2.0117,0.89974 2.0117,2.00976 v 16.55664 c 0,1.11003 -0.9018,2.00977 -2.0117,2.00977 h -32.793 c -1.1099,0 -2.0098,-0.89974 -2.0098,-2.00977 v -16.55664 c 0,-1.11002 0.8999,-2.00976 2.0098,-2.00976 z m 87.7656,0 h 32.793 c 1.1099,0 2.0097,0.89974 2.0097,2.00976 v 16.55664 c 0,1.11003 -0.8998,2.00977 -2.0097,2.00977 h -32.793 c -1.1099,0 -2.0117,-0.89974 -2.0117,-2.00977 v -16.55664 c 0,-1.11002 0.9018,-2.00976 2.0117,-2.00976 z m -824.4961,1.49219 h 7.9121 c 0.5305,0 0.961,0.43055 0.961,0.96093 v 15.66993 c 0,0.53037 -0.4305,0.96093 -0.961,0.96093 h -7.9121 c -0.5304,0 -0.9609,-0.43056 -0.9609,-0.96093 V 592.1777 c 0,-0.53038 0.4305,-0.96093 0.9609,-0.96093 z m 14.8906,0 h 7.9102 c 0.5304,0 0.9609,0.43055 0.9609,0.96093 v 15.66993 c 0,0.53037 -0.4305,0.96093 -0.9609,0.96093 h -7.9102 c -0.5304,0 -0.9609,-0.43056 -0.9609,-0.96093 V 592.1777 c 0,-0.53038 0.4305,-0.96093 0.9609,-0.96093 z m 71.8008,0 h 7.9121 c 0.5305,0 0.959,0.43055 0.959,0.96093 v 15.66993 c 0,0.53037 -0.4285,0.96093 -0.959,0.96093 h -7.9121 c -0.5304,0 -0.9609,-0.43056 -0.9609,-0.96093 V 592.1777 c 0,-0.53038 0.4305,-0.96093 0.9609,-0.96093 z m 14.8887,0 h 7.9121 c 0.5304,0 0.9609,0.43055 0.9609,0.96093 v 15.66993 c 0,0.53037 -0.4305,0.96093 -0.9609,0.96093 h -7.9121 c -0.5304,0 -0.959,-0.43056 -0.959,-0.96093 V 592.1777 c 0,-0.53038 0.4286,-0.96093 0.959,-0.96093 z m 130.5176,0 h 7.9121 c 0.5304,0 0.9609,0.43055 0.9609,0.96093 v 15.66993 c 0,0.53037 -0.4305,0.96093 -0.9609,0.96093 h -7.9121 c -0.5305,0 -0.961,-0.43056 -0.961,-0.96093 V 592.1777 c 0,-0.53038 0.4305,-0.96093 0.961,-0.96093 z m 14.8906,0 h 7.9102 c 0.5304,0 0.9609,0.43055 0.9609,0.96093 v 15.66993 c 0,0.53037 -0.4305,0.96093 -0.9609,0.96093 h -7.9102 c -0.5304,0 -0.9609,-0.43056 -0.9609,-0.96093 V 592.1777 c 0,-0.53038 0.4305,-0.96093 0.9609,-0.96093 z m 71.8008,0 h 7.9121 c 0.5304,0 0.9609,0.43055 0.9609,0.96093 v 15.66993 c 0,0.53037 -0.4305,0.96093 -0.9609,0.96093 h -7.9121 c -0.5305,0 -0.961,-0.43056 -0.961,-0.96093 V 592.1777 c 0,-0.53038 0.4305,-0.96093 0.961,-0.96093 z m 14.8906,0 h 7.9102 c 0.5304,0 0.9609,0.43055 0.9609,0.96093 v 15.66993 c 0,0.53037 -0.4305,0.96093 -0.9609,0.96093 h -7.9102 c -0.5304,0 -0.9609,-0.43056 -0.9609,-0.96093 V 592.1777 c 0,-0.53038 0.4305,-0.96093 0.9609,-0.96093 z m 131.5195,0 h 7.9121 c 0.5305,0 0.961,0.43055 0.961,0.96093 v 15.66993 c 0,0.53037 -0.4305,0.96093 -0.961,0.96093 h -7.9121 c -0.5304,0 -0.9609,-0.43056 -0.9609,-0.96093 V 592.1777 c 0,-0.53038 0.4305,-0.96093 0.9609,-0.96093 z m 14.8907,0 h 7.9101 c 0.5305,0 0.961,0.43055 0.961,0.96093 v 15.66993 c 0,0.53037 -0.4305,0.96093 -0.961,0.96093 h -7.9101 c -0.5305,0 -0.961,-0.43056 -0.961,-0.96093 V 592.1777 c 0,-0.53038 0.4305,-0.96093 0.961,-0.96093 z m 71.8007,0 h 7.9121 c 0.5305,0 0.961,0.43055 0.961,0.96093 v 15.66993 c 0,0.53037 -0.4305,0.96093 -0.961,0.96093 h -7.9121 c -0.5304,0 -0.9609,-0.43056 -0.9609,-0.96093 V 592.1777 c 0,-0.53038 0.4305,-0.96093 0.9609,-0.96093 z m 14.8907,0 h 7.9101 c 0.5305,0 0.961,0.43055 0.961,0.96093 v 15.66993 c 0,0.53037 -0.4305,0.96093 -0.961,0.96093 h -7.9101 c -0.5305,0 -0.961,-0.43056 -0.961,-0.96093 V 592.1777 c 0,-0.53038 0.4305,-0.96093 0.961,-0.96093 z m 131.6093,0 h 7.9102 c 0.5304,0 0.9609,0.43055 0.9609,0.96093 v 15.66993 c 0,0.53037 -0.4305,0.96093 -0.9609,0.96093 h -7.9102 c -0.5304,0 -0.9609,-0.43056 -0.9609,-0.96093 V 592.1777 c 0,-0.53038 0.4305,-0.96093 0.9609,-0.96093 z m 14.8887,0 h 7.9121 c 0.5305,0 0.961,0.43055 0.961,0.96093 v 15.66993 c 0,0.53037 -0.4305,0.96093 -0.961,0.96093 h -7.9121 c -0.5304,0 -0.9609,-0.43056 -0.9609,-0.96093 V 592.1777 c 0,-0.53038 0.4305,-0.96093 0.9609,-0.96093 z m 71.8027,0 h 7.9102 c 0.5304,0 0.9609,0.43055 0.9609,0.96093 v 15.66993 c 0,0.53037 -0.4305,0.96093 -0.9609,0.96093 h -7.9102 c -0.5304,0 -0.9609,-0.43056 -0.9609,-0.96093 V 592.1777 c 0,-0.53038 0.4305,-0.96093 0.9609,-0.96093 z m 14.8887,0 h 7.9121 c 0.5305,0 0.961,0.43055 0.961,0.96093 v 15.66993 c 0,0.53037 -0.4305,0.96093 -0.961,0.96093 h -7.9121 c -0.5304,0 -0.9609,-0.43056 -0.9609,-0.96093 V 592.1777 c 0,-0.53038 0.4305,-0.96093 0.9609,-0.96093 z"
   sodipodi:nodetypes="ccccccccccccccccccccccccccccsssssssssssssssssssssssssssssssssssssssssssssssssssssssssssssssssssssssssssssssssssssssssssssssssssssssssssssssssssssssssssssssssssssssssssssssssssssssssssssssssssssssssssssssssssssssssssssssssssssssssssssssssssssssssssssssssssssssssssssssssssssssssccs" /><path
   id="path2-4"
   style="clip-rule:evenodd;fill:#4a448a;fill-rule:evenodd;stroke-width:0.569488;stroke-linejoin:round;stroke-miterlimit:1.5"
   d="m 2547.098,582.30466 3.5136,7.41992 h 10.0821 l -3.5137,-7.41992 z m 20.7109,22.43945 v 3.54687 c 0,1.11003 -0.8999,2.00977 -2.0098,2.00977 h -5.4433 l 5.0957,10.75781 c 0.7534,1.59115 2.3563,2.60547 4.1172,2.60547 h 181.2402 v -9.11328 h -178.3555 z m 185.4473,9.80664 v 9.11328 h 229.6504 v -9.11328 z m 233.1015,0 v 9.11328 h 229.6504 v -9.11328 z m 233.1914,0 v 9.11328 h 229.6504 v -9.11328 z" /><path
   id="path3-2"
   style="clip-rule:evenodd;fill:#c8092e;fill-rule:evenodd;stroke-width:0.569488;stroke-linejoin:round;stroke-miterlimit:1.5"
   d="m 2534.9417,582.30466 3.5137,7.41992 h 10.082 l -3.5137,-7.41992 z m 13.2598,27.99609 7.3711,15.56445 c 0.047,0.0997 0.098,0.19869 0.1523,0.29493 3.0644,5.41468 7.4562,7.96169 12.8418,8.3125 0.099,0.007 0.1984,0.01 0.2969,0.01 h 181.9453 v -9.11137 h -181.7793 c -2.2318,-0.18508 -3.9996,-1.34662 -5.2969,-3.5625 l -5.4492,-11.50781 z m 205.0469,15.07031 0.01,9.11133 h 229.6504 v -9.11133 z m 233.1015,0 0.01,9.11133 h 229.6504 v -9.11133 z m 233.1895,0 0.01,9.11133 h 229.6504 v -9.11133 z" /><rect
   x="2575.824"
   y="585.82477"
   width="14.889985"
   height="52.477634"
   style="clip-rule:evenodd;fill:#787878;fill-opacity:0.21;fill-rule:evenodd;stroke:#c8c8c8;stroke-width:1.92087px;stroke-linejoin:round;stroke-miterlimit:1.5"
   id="rect6-8" /><rect
   x="2590.7141"
   y="585.82477"
   width="14.889985"
   height="52.477634"
   style="clip-rule:evenodd;fill:#787878;fill-opacity:0.21;fill-rule:evenodd;stroke:#c8c8c8;stroke-width:1.92087px;stroke-linejoin:round;stroke-miterlimit:1.5"
   id="rect7-8" /><rect
   x="2662.5154"
   y="585.82477"
   width="14.889985"
   height="52.477634"
   style="clip-rule:evenodd;fill:#787878;fill-opacity:0.21;fill-rule:evenodd;stroke:#c8c8c8;stroke-width:1.92087px;stroke-linejoin:round;stroke-miterlimit:1.5"
   id="rect11-2" /><rect
   x="2677.4053"
   y="585.82477"
   width="14.889985"
   height="52.477634"
   style="clip-rule:evenodd;fill:#787878;fill-opacity:0.21;fill-rule:evenodd;stroke:#c8c8c8;stroke-width:1.92087px;stroke-linejoin:round;stroke-miterlimit:1.5"
   id="rect12-5" /><rect
   x="2807.9221"
   y="585.82477"
   width="14.889985"
   height="52.477634"
   style="clip-rule:evenodd;fill:#787878;fill-opacity:0.21;fill-rule:evenodd;stroke:#c8c8c8;stroke-width:1.92087px;stroke-linejoin:round;stroke-miterlimit:1.5"
   id="rect23" /><rect
   x="2822.8118"
   y="585.82477"
   width="14.889985"
   height="52.477634"
   style="clip-rule:evenodd;fill:#787878;fill-opacity:0.21;fill-rule:evenodd;stroke:#c8c8c8;stroke-width:1.92087px;stroke-linejoin:round;stroke-miterlimit:1.5"
   id="rect24" /><rect
   x="2894.6133"
   y="585.82477"
   width="14.889985"
   height="52.477634"
   style="clip-rule:evenodd;fill:#787878;fill-opacity:0.21;fill-rule:evenodd;stroke:#c8c8c8;stroke-width:1.92087px;stroke-linejoin:round;stroke-miterlimit:1.5"
   id="rect28" /><rect
   x="2909.5032"
   y="585.82477"
   width="14.889985"
   height="52.477634"
   style="clip-rule:evenodd;fill:#787878;fill-opacity:0.21;fill-rule:evenodd;stroke:#c8c8c8;stroke-width:1.92087px;stroke-linejoin:round;stroke-miterlimit:1.5"
   id="rect29" /><rect
   x="3041.0234"
   y="585.82477"
   width="14.889985"
   height="52.477634"
   style="clip-rule:evenodd;fill:#787878;fill-opacity:0.21;fill-rule:evenodd;stroke:#c8c8c8;stroke-width:1.92087px;stroke-linejoin:round;stroke-miterlimit:1.5"
   id="rect40" /><rect
   x="3055.9133"
   y="585.82477"
   width="14.889985"
   height="52.477634"
   style="clip-rule:evenodd;fill:#787878;fill-opacity:0.21;fill-rule:evenodd;stroke:#c8c8c8;stroke-width:1.92087px;stroke-linejoin:round;stroke-miterlimit:1.5"
   id="rect41" /><rect
   x="3127.7148"
   y="585.82477"
   width="14.889985"
   height="52.477634"
   style="clip-rule:evenodd;fill:#787878;fill-opacity:0.21;fill-rule:evenodd;stroke:#c8c8c8;stroke-width:1.92087px;stroke-linejoin:round;stroke-miterlimit:1.5"
   id="rect45" /><rect
   x="3142.6045"
   y="585.82477"
   width="14.889985"
   height="52.477634"
   style="clip-rule:evenodd;fill:#787878;fill-opacity:0.21;fill-rule:evenodd;stroke:#c8c8c8;stroke-width:1.92087px;stroke-linejoin:round;stroke-miterlimit:1.5"
   id="rect46" /><rect
   x="3274.2144"
   y="585.82477"
   width="14.889985"
   height="52.477634"
   style="clip-rule:evenodd;fill:#787878;fill-opacity:0.21;fill-rule:evenodd;stroke:#c8c8c8;stroke-width:1.92087px;stroke-linejoin:round;stroke-miterlimit:1.5"
   id="rect57" /><rect
   x="3289.1042"
   y="585.82477"
   width="14.889985"
   height="52.477634"
   style="clip-rule:evenodd;fill:#787878;fill-opacity:0.21;fill-rule:evenodd;stroke:#c8c8c8;stroke-width:1.92087px;stroke-linejoin:round;stroke-miterlimit:1.5"
   id="rect58" /><rect
   x="3360.9055"
   y="585.82477"
   width="14.889985"
   height="52.477634"
   style="clip-rule:evenodd;fill:#787878;fill-opacity:0.21;fill-rule:evenodd;stroke:#c8c8c8;stroke-width:1.92087px;stroke-linejoin:round;stroke-miterlimit:1.5"
   id="rect62" /><rect
   x="3375.7954"
   y="585.82477"
   width="14.889985"
   height="52.477634"
   style="clip-rule:evenodd;fill:#787878;fill-opacity:0.21;fill-rule:evenodd;stroke:#c8c8c8;stroke-width:1.92087px;stroke-linejoin:round;stroke-miterlimit:1.5"
   id="rect63" /><path
   id="path4-0"
   style="clip-rule:evenodd;fill:#787878;fill-opacity:0.426829;fill-rule:evenodd;stroke-width:0.542893;stroke-linejoin:round;stroke-miterlimit:1.5"
   d="m 2533.0042,589.72458 c -1.1099,0 -2.0097,0.89974 -2.0097,2.00976 v 16.55664 c 0,1.11003 0.8998,2.00977 2.0097,2.00977 h 32.7949 c 1.1099,0 2.0098,-0.89974 2.0098,-2.00977 v -16.55664 c 0,-1.11002 -0.8999,-2.00976 -2.0098,-2.00976 z m 84.6504,0 c -1.1099,0 -2.0117,0.89974 -2.0117,2.00976 v 16.55664 c 0,1.11003 0.9018,2.00977 2.0117,2.00977 h 32.793 c 1.1099,0 2.0097,-0.89974 2.0097,-2.00977 v -16.55664 c 0,-1.11002 -0.8998,-2.00976 -2.0097,-2.00976 z m 87.7637,0 c -1.1099,0 -2.0098,0.89974 -2.0098,2.00976 v 16.55664 c 0,1.11003 0.8999,2.00977 2.0098,2.00977 h 32.793 c 1.1099,0 2.0097,-0.89974 2.0097,-2.00977 v -16.55664 c 0,-1.11002 -0.8998,-2.00976 -2.0097,-2.00976 z m 59.6855,0 c -1.1099,0 -2.0117,0.89974 -2.0117,2.00976 v 16.55664 c 0,1.11003 0.9018,2.00977 2.0117,2.00977 h 32.793 c 1.1099,0 2.0098,-0.89974 2.0098,-2.00977 v -16.55664 c 0,-1.11002 -0.8999,-2.00976 -2.0098,-2.00976 z m 84.6485,0 c -1.1099,0 -2.0118,0.89974 -2.0118,2.00976 v 16.55664 c 0,1.11003 0.9019,2.00977 2.0118,2.00977 h 32.7929 c 1.1099,0 2.0098,-0.89974 2.0098,-2.00977 v -16.55664 c 0,-1.11002 -0.8999,-2.00976 -2.0098,-2.00976 z m 87.7636,0 c -1.1098,0 -2.0097,0.89974 -2.0097,2.00976 v 16.55664 c 0,1.11003 0.8999,2.00977 2.0097,2.00977 h 32.793 c 1.1099,0 2.0117,-0.89974 2.0117,-2.00977 v -16.55664 c 0,-1.11002 -0.9018,-2.00976 -2.0117,-2.00976 z m 60.6895,0 c -1.1099,0 -2.0117,0.89974 -2.0117,2.00976 v 16.55664 c 0,1.11003 0.9018,2.00977 2.0117,2.00977 h 32.793 c 1.1099,0 2.0097,-0.89974 2.0097,-2.00977 v -16.55664 c 0,-1.11002 -0.8998,-2.00976 -2.0097,-2.00976 z m 84.6484,0 c -1.1099,0 -2.0117,0.89974 -2.0117,2.00976 v 16.55664 c 0,1.11003 0.9018,2.00977 2.0117,2.00977 h 32.793 c 1.1099,0 2.0098,-0.89974 2.0098,-2.00977 v -16.55664 c 0,-1.11002 -0.8999,-2.00976 -2.0098,-2.00976 z m 87.7637,0 c -1.1099,0 -2.0098,0.89974 -2.0098,2.00976 v 16.55664 c 0,1.11003 0.8999,2.00977 2.0098,2.00977 h 32.793 c 1.1099,0 2.0117,-0.89974 2.0117,-2.00977 v -16.55664 c 0,-1.11002 -0.9018,-2.00976 -2.0117,-2.00976 z m 60.7773,0 c -1.1099,0 -2.0097,0.89974 -2.0097,2.00976 v 16.55664 c 0,1.11003 0.8998,2.00977 2.0097,2.00977 h 32.793 c 1.1099,0 2.0117,-0.89974 2.0117,-2.00977 v -16.55664 c 0,-1.11002 -0.9018,-2.00976 -2.0117,-2.00976 z m 84.6485,0 c -1.1099,0 -2.0098,0.89974 -2.0098,2.00976 v 16.55664 c 0,1.11003 0.8999,2.00977 2.0098,2.00977 h 32.793 c 1.1099,0 2.0117,-0.89974 2.0117,-2.00977 v -16.55664 c 0,-1.11002 -0.9019,-2.00976 -2.0117,-2.00976 z m 87.7656,0 c -1.1099,0 -2.0117,0.89974 -2.0117,2.00976 v 16.55664 c 0,1.11003 0.9018,2.00977 2.0117,2.00977 h 32.793 c 1.1099,0 2.0097,-0.89974 2.0097,-2.00977 v -16.55664 c 0,-1.11002 -0.8998,-2.00976 -2.0097,-2.00976 z m -824.4961,1.49219 c -0.5304,0 -0.9609,0.43055 -0.9609,0.96093 v 15.66993 c 0,0.53038 0.4305,0.96093 0.9609,0.96093 h 7.9121 c 0.5305,0 0.961,-0.43055 0.961,-0.96093 V 592.1777 c 0,-0.53038 -0.4305,-0.96093 -0.961,-0.96093 z m 14.8906,0 c -0.5304,0 -0.9609,0.43055 -0.9609,0.96093 v 15.66993 c 0,0.53038 0.4305,0.96093 0.9609,0.96093 h 7.9102 c 0.5304,0 0.9609,-0.43055 0.9609,-0.96093 V 592.1777 c 0,-0.53038 -0.4305,-0.96093 -0.9609,-0.96093 z m 71.8008,0 c -0.5304,0 -0.9609,0.43055 -0.9609,0.96093 v 15.66993 c 0,0.53038 0.4305,0.96093 0.9609,0.96093 h 7.9121 c 0.5305,0 0.959,-0.43055 0.959,-0.96093 V 592.1777 c 0,-0.53038 -0.4285,-0.96093 -0.959,-0.96093 z m 14.8887,0 c -0.5304,0 -0.959,0.43055 -0.959,0.96093 v 15.66993 c 0,0.53038 0.4286,0.96093 0.959,0.96093 h 7.9121 c 0.5304,0 0.9609,-0.43055 0.9609,-0.96093 V 592.1777 c 0,-0.53038 -0.4305,-0.96093 -0.9609,-0.96093 z m 130.5176,0 c -0.5305,0 -0.961,0.43055 -0.961,0.96093 v 15.66993 c 0,0.53038 0.4305,0.96093 0.961,0.96093 h 7.9121 c 0.5304,0 0.9609,-0.43055 0.9609,-0.96093 V 592.1777 c 0,-0.53038 -0.4305,-0.96093 -0.9609,-0.96093 z m 14.8906,0 c -0.5304,0 -0.9609,0.43055 -0.9609,0.96093 v 15.66993 c 0,0.53038 0.4305,0.96093 0.9609,0.96093 h 7.9102 c 0.5304,0 0.9609,-0.43055 0.9609,-0.96093 V 592.1777 c 0,-0.53038 -0.4305,-0.96093 -0.9609,-0.96093 z m 71.8008,0 c -0.5305,0 -0.961,0.43055 -0.961,0.96093 v 15.66993 c 0,0.53038 0.4305,0.96093 0.961,0.96093 h 7.9121 c 0.5304,0 0.9609,-0.43055 0.9609,-0.96093 V 592.1777 c 0,-0.53038 -0.4305,-0.96093 -0.9609,-0.96093 z m 14.8906,0 c -0.5304,0 -0.9609,0.43055 -0.9609,0.96093 v 15.66993 c 0,0.53038 0.4305,0.96093 0.9609,0.96093 h 7.9102 c 0.5304,0 0.9609,-0.43055 0.9609,-0.96093 V 592.1777 c 0,-0.53038 -0.4305,-0.96093 -0.9609,-0.96093 z m 131.5195,0 c -0.5304,0 -0.9609,0.43055 -0.9609,0.96093 v 15.66993 c 0,0.53038 0.4305,0.96093 0.9609,0.96093 h 7.9121 c 0.5305,0 0.961,-0.43055 0.961,-0.96093 V 592.1777 c 0,-0.53038 -0.4305,-0.96093 -0.961,-0.96093 z m 14.8907,0 c -0.5305,0 -0.961,0.43055 -0.961,0.96093 v 15.66993 c 0,0.53038 0.4305,0.96093 0.961,0.96093 h 7.9101 c 0.5305,0 0.961,-0.43055 0.961,-0.96093 V 592.1777 c 0,-0.53038 -0.4305,-0.96093 -0.961,-0.96093 z m 71.8007,0 c -0.5304,0 -0.9609,0.43055 -0.9609,0.96093 v 15.66993 c 0,0.53038 0.4305,0.96093 0.9609,0.96093 h 7.9121 c 0.5305,0 0.961,-0.43055 0.961,-0.96093 V 592.1777 c 0,-0.53038 -0.4305,-0.96093 -0.961,-0.96093 z m 14.8907,0 c -0.5305,0 -0.961,0.43055 -0.961,0.96093 v 15.66993 c 0,0.53038 0.4305,0.96093 0.961,0.96093 h 7.9101 c 0.5305,0 0.961,-0.43055 0.961,-0.96093 V 592.1777 c 0,-0.53038 -0.4305,-0.96093 -0.961,-0.96093 z m 131.6093,0 c -0.5304,0 -0.9609,0.43055 -0.9609,0.96093 v 15.66993 c 0,0.53038 0.4305,0.96093 0.9609,0.96093 h 7.9102 c 0.5304,0 0.9609,-0.43055 0.9609,-0.96093 V 592.1777 c 0,-0.53038 -0.4305,-0.96093 -0.9609,-0.96093 z m 14.8887,0 c -0.5304,0 -0.9609,0.43055 -0.9609,0.96093 v 15.66993 c 0,0.53038 0.4305,0.96093 0.9609,0.96093 h 7.9121 c 0.5305,0 0.961,-0.43055 0.961,-0.96093 V 592.1777 c 0,-0.53038 -0.4305,-0.96093 -0.961,-0.96093 z m 71.8027,0 c -0.5304,0 -0.9609,0.43055 -0.9609,0.96093 v 15.66993 c 0,0.53038 0.4305,0.96093 0.9609,0.96093 h 7.9102 c 0.5304,0 0.9609,-0.43055 0.9609,-0.96093 V 592.1777 c 0,-0.53038 -0.4305,-0.96093 -0.9609,-0.96093 z m 14.8887,0 c -0.5304,0 -0.9609,0.43055 -0.9609,0.96093 v 15.66993 c 0,0.53038 0.4305,0.96093 0.9609,0.96093 h 7.9121 c 0.5305,0 0.961,-0.43055 0.961,-0.96093 V 592.1777 c 0,-0.53038 -0.4305,-0.96093 -0.961,-0.96093 z" /></svg>
