<?xml version="1.0" encoding="UTF-8" standalone="no"?>
<!DOCTYPE svg PUBLIC "-//W3C//DTD SVG 1.1//EN" "http://www.w3.org/Graphics/SVG/1.1/DTD/svg11.dtd">
<svg width="100%" height="100%" viewBox="0 0 380 213" version="1.1" xmlns="http://www.w3.org/2000/svg" xmlns:xlink="http://www.w3.org/1999/xlink" xml:space="preserve" xmlns:serif="http://www.serif.com/" style="fill-rule:evenodd;clip-rule:evenodd;stroke-linejoin:round;stroke-miterlimit:2;">
    <g transform="matrix(1,0,0,1,-2716.237723,-565.239503)">
        <g transform="matrix(0.913013,0,0,0.913013,508.300721,16.639644)">
            <g id="path9135" transform="matrix(1.550032,0,0,1.550032,-60284.27504,15059.871852)">
                <path d="M40668.936,-9188.281C40647.356,-9188.281 40629.616,-9204.727 40627.556,-9225.767L40670.926,-9225.767C40674.881,-9225.767 40676.191,-9230.026 40674.536,-9232.949C40673.721,-9234.39 40663.946,-9251.665 40654.241,-9268.814L40654.291,-9268.814C40658.841,-9270.526 40663.781,-9271.465 40668.931,-9271.465C40691.896,-9271.465 40710.511,-9252.847 40710.511,-9229.881C40710.511,-9206.921 40691.896,-9188.303 40668.931,-9188.303M40617.356,-9235.246L40605.721,-9235.246L40630.191,-9292.982L40641.286,-9273.813C40628.136,-9265.538 40619.026,-9251.528 40617.356,-9235.29L40617.356,-9235.246ZM40597.706,-9237.544L40532.301,-9293.501L40532.701,-9295.231L40620.756,-9295.231L40597.706,-9237.544ZM40663.481,-9235.246L40627.661,-9235.246C40629.186,-9247.787 40636.291,-9258.33 40646.421,-9264.868L40663.481,-9235.246ZM40545.861,-9229.882C40545.861,-9206.921 40527.246,-9188.303 40504.281,-9188.303C40481.321,-9188.303 40462.706,-9206.921 40462.706,-9229.882C40462.706,-9252.847 40481.321,-9271.465 40504.281,-9271.465C40507.706,-9271.465 40511.036,-9271.05 40514.221,-9270.269C40514.221,-9270.269 40499.721,-9232.273 40499.251,-9231.014C40498.346,-9228.568 40499.601,-9225.826 40502.046,-9224.916C40504.491,-9224.01 40507.236,-9225.266 40508.141,-9227.71C40509.046,-9230.155 40522.701,-9267.175 40522.701,-9267.175C40536.426,-9260.382 40545.861,-9246.236 40545.861,-9229.881M40668.931,-9281.738C40661.931,-9281.738 40655.251,-9280.348 40649.161,-9277.831C40641.156,-9291.986 40634.356,-9304.003 40634.356,-9304.003L40637.036,-9308.808C40637.036,-9308.808 40651.476,-9310.882 40651.651,-9323.507C40638.076,-9323.252 40611.786,-9322.729 40611.786,-9322.729C40611.786,-9322.729 40610.316,-9322.814 40609.886,-9322.124C40608.851,-9320.741 40610.401,-9319.185 40610.401,-9319.185L40627.871,-9311.66L40624.461,-9304.024L40536.466,-9304.074C40536.466,-9304.074 40536.616,-9310.645 40535.686,-9313.24C40535.436,-9315.143 40531.626,-9321.369 40531.626,-9321.369L40548.531,-9321.369C40550.311,-9321.369 40551.771,-9322.907 40551.771,-9324.784C40551.771,-9326.663 40550.351,-9328.199 40548.616,-9328.199L40517.876,-9328.199C40517.876,-9328.199 40516.491,-9327.999 40516.056,-9326.125C40516.156,-9324.913 40516.056,-9325.089 40516.576,-9324.398C40515.971,-9323.01 40516.776,-9319.38 40519.776,-9319.38C40525.051,-9315.143 40526.436,-9312.375 40526.436,-9312.375C40526.436,-9312.375 40528.081,-9309.089 40527.211,-9305.371C40527.211,-9304.764 40517.806,-9279.983 40517.806,-9279.983C40513.496,-9281.142 40508.971,-9281.761 40504.296,-9281.761C40475.661,-9281.761 40452.446,-9258.547 40452.446,-9229.905C40452.446,-9201.27 40475.661,-9178.054 40504.296,-9178.054C40532.936,-9178.054 40556.151,-9201.27 40556.151,-9229.905C40556.151,-9250.86 40543.726,-9268.908 40525.841,-9277.089L40529.461,-9284.359L40594.926,-9228.755C40594.926,-9228.755 40598.021,-9227.153 40600.371,-9227.282C40602.186,-9226.506 40603.401,-9226.333 40603.401,-9226.333L40617.216,-9226.333C40619.051,-9199.363 40641.511,-9178.054 40668.946,-9178.054C40697.581,-9178.054 40720.796,-9201.27 40720.796,-9229.905C40720.796,-9258.547 40697.581,-9281.761 40668.946,-9281.761" style="fill:white;"/>
            </g>
        </g>
    </g>
</svg>
