<?xml version="1.0" encoding="UTF-8" standalone="no"?>
<!DOCTYPE svg PUBLIC "-//W3C//DTD SVG 1.1//EN" "http://www.w3.org/Graphics/SVG/1.1/DTD/svg11.dtd">
<svg width="100%" height="100%" viewBox="0 0 144 144" version="1.1" xmlns="http://www.w3.org/2000/svg" xmlns:xlink="http://www.w3.org/1999/xlink" xml:space="preserve" xmlns:serif="http://www.serif.com/" style="fill-rule:evenodd;clip-rule:evenodd;stroke-linejoin:round;stroke-miterlimit:2;">
    <g transform="matrix(0.555954,0.555954,-0.555954,0.555954,71.940064,-12.90172)">
        <path d="M144,18.155L144,134.337C144,139.566 139.755,143.811 134.526,143.811L18.344,143.811C13.115,143.811 8.87,139.566 8.87,134.337L8.87,18.155C8.87,12.927 13.115,8.682 18.344,8.682L134.526,8.682C139.755,8.682 144,12.927 144,18.155Z"/>
    </g>
    <g transform="matrix(0.528393,0.528393,-0.528393,0.528393,71.900277,-8.693745)">
        <path d="M144,18.155L144,134.337C144,139.566 139.755,143.811 134.526,143.811L18.344,143.811C13.115,143.811 8.87,139.566 8.87,134.337L8.87,18.155C8.87,12.927 13.115,8.682 18.344,8.682L134.526,8.682C139.755,8.682 144,12.927 144,18.155Z" style="fill:rgb(255,203,5);"/>
    </g>
    <g transform="matrix(1,0,0,1,-4.904838,17.813424)">
        <path d="M65.636,42.964C65.636,39.78 64.92,37.43 63.487,35.914C62.054,34.399 59.801,33.641 56.727,33.641C55.622,33.641 54.561,33.67 53.542,33.727C52.523,33.785 51.479,33.871 50.408,33.986L50.408,52.057L57.66,52.057C58.972,52.057 60.12,51.904 61.104,51.597C62.088,51.29 62.917,50.781 63.59,50.072C64.264,49.362 64.773,48.422 65.118,47.252C65.464,46.082 65.636,44.652 65.636,42.964ZM66.154,83.25L60.249,63.164C59.973,62.205 59.662,61.534 59.317,61.15C58.972,60.767 58.402,60.575 57.608,60.575L50.356,60.575L50.356,83.25L40.774,83.25L40.774,26.044C43.468,25.699 46.101,25.459 48.673,25.325C51.246,25.191 53.879,25.124 56.572,25.124C59.196,25.124 61.657,25.421 63.953,26.016C66.249,26.61 68.252,27.579 69.961,28.922C71.67,30.265 73.017,32.039 74.001,34.245C74.985,36.451 75.477,39.166 75.477,42.389C75.477,46.264 74.795,49.448 73.431,51.942C72.067,54.436 70.039,56.297 67.345,57.525L67.345,57.64C67.794,57.755 68.157,58.158 68.433,58.848C68.709,59.539 68.951,60.172 69.158,60.747L76.306,83.25L66.154,83.25Z" style="fill-rule:nonzero;"/>
        <path d="M94.337,34.792L94.337,49.122L111.119,49.122L111.119,58.33L94.337,58.33L94.337,83.25L84.755,83.25L84.755,25.699L113.035,25.699L113.035,34.792L94.337,34.792Z" style="fill-rule:nonzero;"/>
    </g>
</svg>
