<?xml version="1.0" encoding="UTF-8" standalone="no"?>
<svg
   width="4839.9995"
   height="1174.8761"
   viewBox="0 0 4839.9995 1174.8761"
   version="1.1"
   xml:space="preserve"
   style="clip-rule:evenodd;fill-rule:evenodd;stroke-linejoin:round;stroke-miterlimit:2"
   id="svg33"
   sodipodi:docname="Guideway.svg"
   inkscape:version="1.3 (0e150ed6c4, 2023-07-21)"
   xmlns:inkscape="http://www.inkscape.org/namespaces/inkscape"
   xmlns:sodipodi="http://sodipodi.sourceforge.net/DTD/sodipodi-0.dtd"
   xmlns="http://www.w3.org/2000/svg"
   xmlns:svg="http://www.w3.org/2000/svg"
   xmlns:serif="http://www.serif.com/"><defs
   id="defs33" /><sodipodi:namedview
   id="namedview33"
   pagecolor="#ffffff"
   bordercolor="#000000"
   borderopacity="0.25"
   inkscape:showpageshadow="2"
   inkscape:pageopacity="0.0"
   inkscape:pagecheckerboard="0"
   inkscape:deskcolor="#d1d1d1"
   inkscape:zoom="0.28099174"
   inkscape:cx="2455.5882"
   inkscape:cy="991.13235"
   inkscape:window-width="1920"
   inkscape:window-height="1009"
   inkscape:window-x="-8"
   inkscape:window-y="-8"
   inkscape:window-maximized="1"
   inkscape:current-layer="svg33" />&#10;    <g
   id="Guideway"
   transform="matrix(0.721295,0,0,0.721295,1693.5613,-625.28389)">&#10;        <g
   transform="matrix(0.925269,0,0,0.325653,809.17382,598.47283)"
   id="g1">&#10;            <rect
   x="0"
   y="824.24597"
   width="3840"
   height="55.979"
   style="fill:#988982"
   id="rect1" />&#10;        </g>&#10;        <g
   transform="matrix(-0.705723,0,0,-0.488004,4996.8281,1393.7151)"
   id="g2">&#10;            <path
   d="m 1823.139,969.853 h 11.723 l 34.555,72.34 h -138.218 l 34.554,-72.34 h 11.723 V 264.806 h 45.663 z"
   style="fill:#685055"
   id="path1" />&#10;        </g>&#10;        <g
   transform="matrix(-0.705723,0,0,-0.488004,4673.1186,1393.7151)"
   id="g3">&#10;            <path
   d="m 1823.139,969.853 h 11.723 l 34.555,72.34 h -138.218 l 34.554,-72.34 h 11.723 V 264.806 h 45.663 z"
   style="fill:#685055"
   id="path2" />&#10;        </g>&#10;        <g
   transform="matrix(-0.705723,0,0,-0.488004,4349.4091,1393.7151)"
   id="g4">&#10;            <path
   d="m 1823.139,969.853 h 11.723 l 34.555,72.34 h -138.218 l 34.554,-72.34 h 11.723 V 264.806 h 45.663 z"
   style="fill:#685055"
   id="path3" />&#10;        </g>&#10;        <g
   transform="matrix(-0.705723,0,0,-0.488004,5644.2471,1393.7151)"
   id="g5">&#10;            <path
   d="m 1823.139,969.853 h 11.723 l 34.555,72.34 h -138.218 l 34.554,-72.34 h 11.723 V 264.806 h 45.663 z"
   style="fill:#685055"
   id="path4" />&#10;        </g>&#10;        <g
   transform="matrix(-0.705723,0,0,-0.488004,5320.5376,1393.7151)"
   id="g6">&#10;            <path
   d="m 1823.139,969.853 h 11.723 l 34.555,72.34 h -138.218 l 34.554,-72.34 h 11.723 V 264.806 h 45.663 z"
   style="fill:#685055"
   id="path5" />&#10;        </g>&#10;        <g
   transform="matrix(-0.705723,0,0,-0.488004,-507.43869,1393.7151)"
   id="g7">&#10;            <path
   d="m 1823.139,969.853 h 11.723 l 34.555,72.34 h -138.218 l 34.554,-72.34 h 11.723 V 264.806 h 45.663 z"
   style="fill:#685055"
   id="path6" />&#10;        </g>&#10;        <g
   transform="matrix(-0.705723,0,0,-0.488004,-831.14819,1393.7151)"
   id="g8">&#10;            <path
   d="m 1823.139,969.853 h 11.723 l 34.555,72.34 h -138.218 l 34.554,-72.34 h 11.723 V 264.806 h 45.663 z"
   style="fill:#685055"
   id="path7" />&#10;        </g>&#10;        <g
   transform="matrix(0.789535,0,0,0.789535,2382.701,885.1209)"
   id="g9">&#10;            <path
   d="M 451.365,44.712 H 440.886 L 410,0 h 123.545 l -30.886,44.712 h -10.478 v 435.783 h -40.816 z"
   style="fill:#685055"
   id="path8" />&#10;        </g>&#10;        <g
   transform="matrix(0.789535,0,0,0.789535,2382.701,885.1209)"
   id="g10">&#10;            <path
   d="M 41.365,44.712 H 30.886 L 0,0 H 123.545 L 92.659,44.712 H 82.181 V 480.495 H 41.365 Z"
   style="fill:#685055"
   id="path9" />&#10;        </g>&#10;        <g
   transform="matrix(-0.705723,0,0,-0.488004,3054.5711,1393.715)"
   id="g11">&#10;            <path
   d="m 1823.139,969.853 h 11.723 l 34.555,72.34 h -138.218 l 34.554,-72.34 h 11.723 V 264.806 h 45.663 z"
   style="fill:#685055"
   id="path10" />&#10;        </g>&#10;        <g
   transform="matrix(-0.705723,0,0,-0.488004,2730.8616,1393.715)"
   id="g12">&#10;            <path
   d="m 1823.139,969.853 h 11.723 l 34.555,72.34 h -138.218 l 34.554,-72.34 h 11.723 V 264.806 h 45.663 z"
   style="fill:#685055"
   id="path11" />&#10;        </g>&#10;        <g
   transform="matrix(-0.705723,0,0,-0.488004,2407.1521,1393.715)"
   id="g13">&#10;            <path
   d="m 1823.139,969.853 h 11.723 l 34.555,72.34 h -138.218 l 34.554,-72.34 h 11.723 V 264.806 h 45.663 z"
   style="fill:#685055"
   id="path12" />&#10;        </g>&#10;        <g
   transform="matrix(0.789535,0,0,0.789535,440.44396,885.12074)"
   id="g14">&#10;            <path
   d="M 451.365,44.712 H 440.886 L 410,0 h 123.545 l -30.886,44.712 h -10.478 v 435.783 h -40.816 z"
   style="fill:#685055"
   id="path13" />&#10;        </g>&#10;        <g
   transform="matrix(-0.705723,0,0,-0.488004,3378.2806,1393.715)"
   id="g15">&#10;            <path
   d="m 1823.139,969.853 h 11.723 l 34.555,72.34 h -138.218 l 34.554,-72.34 h 11.723 V 264.806 h 45.663 z"
   style="fill:#685055"
   id="path14" />&#10;        </g>&#10;        <g
   transform="matrix(0.789535,0,0,0.789535,1087.863,885.12074)"
   id="g16">&#10;            <path
   d="M 451.365,44.712 H 440.886 L 410,0 h 123.545 l -30.886,44.712 h -10.478 v 435.783 h -40.816 z"
   style="fill:#685055"
   id="path15" />&#10;        </g>&#10;        <g
   transform="matrix(0.789535,0,0,0.789535,1087.863,885.12074)"
   id="g17">&#10;            <path
   d="M 41.365,44.712 H 30.886 L 0,0 H 123.545 L 92.659,44.712 H 82.181 V 480.495 H 41.365 Z"
   style="fill:#685055"
   id="path16" />&#10;        </g>&#10;        <g
   transform="matrix(0.892798,0,0,0.325653,-2347.9447,598.47251)"
   id="g18">&#10;            <rect
   x="0"
   y="824.24597"
   width="3840"
   height="55.979"
   style="fill:#988982"
   id="rect17" />&#10;        </g>&#10;        <g
   transform="matrix(-0.705723,0,0,-0.488004,2405.9468,1393.7148)"
   id="g19">&#10;            <path
   d="m 1823.139,969.853 h 11.723 l 34.555,72.34 h -138.218 l 34.554,-72.34 h 11.723 V 264.806 h 45.663 z"
   style="fill:#685055"
   id="path18" />&#10;        </g>&#10;        <g
   transform="matrix(-0.705723,0,0,-0.488004,2082.2373,1393.7148)"
   id="g20">&#10;            <path
   d="m 1823.139,969.853 h 11.723 l 34.555,72.34 h -138.218 l 34.554,-72.34 h 11.723 V 264.806 h 45.663 z"
   style="fill:#685055"
   id="path19" />&#10;        </g>&#10;        <g
   transform="matrix(-0.705723,0,0,-0.488004,1758.5278,1393.7148)"
   id="g21">&#10;            <path
   d="m 1823.139,969.853 h 11.723 l 34.555,72.34 h -138.218 l 34.554,-72.34 h 11.723 V 264.806 h 45.663 z"
   style="fill:#685055"
   id="path20" />&#10;        </g>&#10;        <g
   transform="matrix(0.789535,0,0,0.789535,-208.18036,885.12058)"
   id="g22">&#10;            <path
   d="M 451.365,44.712 H 440.886 L 410,0 h 123.545 l -30.886,44.712 h -10.478 v 435.783 h -40.816 z"
   style="fill:#685055"
   id="path21" />&#10;        </g>&#10;        <g
   transform="matrix(0.789535,0,0,0.789535,-208.18036,885.12058)"
   id="g23">&#10;            <path
   d="M 41.365,44.712 H 30.886 L 0,0 H 123.545 L 92.659,44.712 H 82.181 V 480.495 H 41.365 Z"
   style="fill:#685055"
   id="path22" />&#10;        </g>&#10;        <g
   transform="matrix(-0.705723,0,0,-0.488004,463.68981,1393.7146)"
   id="g24">&#10;            <path
   d="m 1823.139,969.853 h 11.723 l 34.555,72.34 h -138.218 l 34.554,-72.34 h 11.723 V 264.806 h 45.663 z"
   style="fill:#685055"
   id="path23" />&#10;        </g>&#10;        <g
   transform="matrix(-0.705723,0,0,-0.488004,139.98031,1393.7146)"
   id="g25">&#10;            <path
   d="m 1823.139,969.853 h 11.723 l 34.555,72.34 h -138.218 l 34.554,-72.34 h 11.723 V 264.806 h 45.663 z"
   style="fill:#685055"
   id="path24" />&#10;        </g>&#10;        <g
   transform="matrix(-0.705723,0,0,-0.488004,-183.72919,1393.7146)"
   id="g26">&#10;            <path
   d="m 1823.139,969.853 h 11.723 l 34.555,72.34 h -138.218 l 34.554,-72.34 h 11.723 V 264.806 h 45.663 z"
   style="fill:#685055"
   id="path25" />&#10;        </g>&#10;        <g
   transform="matrix(0.789535,0,0,0.789535,-2150.4374,885.12042)"
   id="g27">&#10;            <path
   d="M 451.365,44.712 H 440.886 L 410,0 h 123.545 l -30.886,44.712 h -10.478 v 435.783 h -40.816 z"
   style="fill:#685055"
   id="path26" />&#10;        </g>&#10;        <g
   transform="matrix(-0.705723,0,0,-0.488004,787.39931,1393.7146)"
   id="g28">&#10;            <path
   d="m 1823.139,969.853 h 11.723 l 34.555,72.34 h -138.218 l 34.554,-72.34 h 11.723 V 264.806 h 45.663 z"
   style="fill:#685055"
   id="path27" />&#10;        </g>&#10;        <g
   transform="matrix(0.789535,0,0,0.789535,-1503.0184,885.12042)"
   id="g29">&#10;            <path
   d="M 451.365,44.712 H 440.886 L 410,0 h 123.545 l -30.886,44.712 h -10.478 v 435.783 h -40.816 z"
   style="fill:#685055"
   id="path28" />&#10;        </g>&#10;        <g
   transform="matrix(0.789535,0,0,0.789535,-1503.0184,885.12042)"
   id="g30">&#10;            <path
   d="M 41.365,44.712 H 30.886 L 0,0 H 123.545 L 92.659,44.712 H 82.181 V 480.495 H 41.365 Z"
   style="fill:#685055"
   id="path29" />&#10;        </g>&#10;    </g>&#10;    <g
   id="Grass"
   transform="translate(500,-843.7683)">&#10;        <path
   d="m -521.038,1146.474 c 0,0 1123.049,-26.52 1689.233,-66.474 566.184,-39.954 3247.459,66.205 3247.459,66.205 V 2530.701 H -590.927 Z"
   style="fill:#9bc6a3"
   id="path30" />&#10;    </g>&#10;    <g
   id="Bike-lane"
   serif:id="Bike lane"
   transform="translate(500,-985.12402)">&#10;        <g
   transform="matrix(0.934305,0,0,0.934305,135.928,148.51876)"
   id="g33">&#10;            <g
   transform="matrix(1.123026,0,0,1.036953,-180.94429,-183.11284)"
   id="g31">&#10;                <path
   d="m 1822.579,2082.722 c -0.237,-0.504 -0.502,-1.036 -0.796,-1.599 -9.049,-17.293 -37.224,-42.884 -63.326,-71.952 -0.034,-0.037 -7.037,-8.15 -14.728,-18 -35.62,-45.621 -73.294,-111.437 -68.855,-206.427 0.069,-1.472 0.131,-1.462 1.121,-8.724 2.37,-17.376 5.852,-31.39 5.878,-31.474 4.009,-12.824 8.845,-24.141 9.721,-26.191 3.293,-7.707 6.126,-13.329 7.344,-15.725 0.034,-0.067 4.822,-8.704 11.984,-18.89 30.002,-42.676 66.34,-63.833 103.507,-80.835 1.661,-0.76 7.489,-3.807 23.684,-10.972 1.282,-0.568 7.011,-3.439 20.044,-9.239 5.952,-2.649 12.687,-6.35 50.407,-22.053 48.319,-20.116 62.993,-26.869 68.411,-29.363 56.922,-26.197 110.472,-57.822 150.907,-109.85 40.055,-51.539 55.1,-107.809 62.516,-143.499 l 24.127,5.836 65.558,3.337 c -0.338,6.53 -0.532,8.561 -3.414,21.55 -46.047,207.572 -184.343,278.632 -289.953,325.207 -30.571,13.482 -61.27,25.896 -89.013,40.074 -2.227,1.138 -13.16,7.37 -17.394,10.374 -7.615,5.401 -12.843,10.191 -13.706,10.974 -3.205,2.906 -9.588,10.23 -12.899,15.713 -0.369,0.612 -4.983,7.626 -6.889,15.855 -0.049,0.211 -0.106,0.42 -0.144,0.633 -0.01,0.026 0.024,0.05 0.019,0.076 -0.049,0.224 -0.084,0.209 -0.154,0.551 -1.549,7.598 -1.305,16.758 6.059,26.112 0.114,0.144 0.218,0.298 0.342,0.431 0.037,0.039 0.102,0.039 0.135,0.082 0.026,0.033 0.01,0.089 0.024,0.128 0.01,0.011 1.155,1.813 2.868,4.005 2.578,3.298 4.551,5.359 4.625,5.495 0.419,0.771 3.746,6.4 4.463,7.537 0.497,0.787 0.422,0.833 1.27,2.405 0.322,0.597 0.719,2.348 2.095,5.661 5.549,13.354 12.527,16.443 21.167,20.712 11.573,5.719 19.247,9.453 20.923,10.269 0.291,0.142 19.151,10.514 20.816,11.429 43.522,23.935 107.972,60.463 148.143,140.687 12.498,24.96 18.931,46.904 22.164,59.128 0.13,0.493 2.351,9.209 4.442,20.852 5.422,30.174 5.976,56.616 5.747,73.664 -0.029,2.185 -0.451,16.893 -3.482,40.906 -3.173,25.138 -7.736,48.804 -7.783,49.003 -1.201,5.058 -7.654,32.231 -16.878,62.679 -1.078,3.555 -2.18,7.034 -2.286,7.323 -1.102,2.999 -2.092,6.052 -3.346,8.981 -1.331,3.107 -2.97,6.048 -4.398,9.104 -0.057,0.12 -4.184,10.13 -11.949,28.744 -0.974,2.334 -1.019,2.306 -2.14,4.563 -33.653,67.714 -54.603,108.127 -59.19,117.018 l -291.04,-176.52 c 34.943,-67.733 55.932,-110.792 57.913,-114.558 0.054,-0.102 0.062,-0.091 7.227,-12.375 l 8.887,-15.265 -7.202,16.693 c 0.024,-0.047 0.414,-0.628 2.901,-6.098 7.457,-16.406 13.673,-32.157 14.79,-34.988 0.023,-0.057 5.961,-12.11 8.033,-15.729 0,-0.01 1.663,-3.033 2.352,-2.909 1.574,0.284 2.762,0.502 3.753,0.685 0.682,-0.237 1.222,-0.132 1.702,-0.156 3.051,-0.153 7.694,-0.45 12.896,-1.085 z m -17.174,3.528 -0.206,-0.022 -0.061,0.681 c 0.102,-0.213 0.174,-0.441 0.267,-0.659 z"
   style="fill:#959595"
   id="path31" />&#10;            </g>&#10;            <g
   transform="matrix(1.123026,0,0,1.036953,-180.94429,-183.11284)"
   id="g32">&#10;                <path
   d="m 1920.177,2205.676 c 8.961,-23.938 25.668,-72.914 29.211,-101.109 0.058,-0.456 1.36,-10.668 1.27,-23.102 -0.598,-82.051 -58.924,-112.361 -111.436,-157.738 -38.524,-33.289 -71.404,-73.419 -73.992,-143.664 -0.641,-17.379 1.37,-30.186 1.777,-32.775 7,-44.58 31.813,-74.212 67.658,-97.921 105.644,-69.875 297.371,-86.842 375.516,-286.424 2.065,-5.273 13.135,-33.134 21.283,-72.31 0.787,-3.786 0.857,-5.828 0.882,-6.296 l 5.167,0.113 c -0.082,1.931 0,3.585 -3.379,18.153 -57.096,246.086 -257.226,273.642 -372.655,337.501 -47.706,26.392 -77.656,57.715 -84.221,106.007 -0.838,6.163 -2.405,20.03 -0.524,41.172 7.962,89.5 69.75,121.833 121.896,165.01 40.113,33.212 74.656,73.278 68.697,150.085 -0.327,4.207 -1.826,31.167 -25.544,99.261 -2.648,7.604 -4.517,12.633 -4.55,12.705 -0.01,0.021 -11.298,23.188 -16.153,32.957 -33.024,66.45 -53.533,106.011 -57.911,114.496 l -16.624,-10.084 c 5.288,-10.265 18.32,-35.468 39.219,-77.092 z"
   style="fill:#ffe834"
   id="path32" />&#10;            </g>&#10;        </g>&#10;        <path
   d="m 1859.459,1997.948 c 0,0 4.824,-3.112 5.136,-9.182 0.311,-6.07 -3.736,-23.033 -3.736,-23.033 l 28.014,22.41 0.623,17.275 -23.189,4.202 z"
   style="fill:#959595"
   id="path33" />&#10;    </g>&#10;</svg>
