<?xml version="1.0" encoding="UTF-8" standalone="no"?>
<svg
   width="4839.9995"
   height="1174.8761"
   viewBox="0 0 4839.9995 1174.8761"
   version="1.1"
   xml:space="preserve"
   style="clip-rule:evenodd;fill-rule:evenodd;stroke-linejoin:round;stroke-miterlimit:2"
   id="svg33"
   sodipodi:docname="guideway.svg"
   inkscape:version="1.3 (0e150ed6c4, 2023-07-21)"
   xmlns:inkscape="http://www.inkscape.org/namespaces/inkscape"
   xmlns:sodipodi="http://sodipodi.sourceforge.net/DTD/sodipodi-0.dtd"
   xmlns="http://www.w3.org/2000/svg"
   xmlns:svg="http://www.w3.org/2000/svg"><defs
   id="defs33"><inkscape:path-effect
   effect="bspline"
   id="path-effect34"
   is_visible="true"
   lpeversion="1.3"
   weight="33.333333"
   steps="2"
   helper_size="0"
   apply_no_weight="true"
   apply_with_weight="true"
   only_selected="false"
   uniform="false" /><inkscape:path-effect
   effect="bspline"
   id="path-effect17"
   is_visible="true"
   lpeversion="1.3"
   weight="33.333333"
   steps="2"
   helper_size="0"
   apply_no_weight="true"
   apply_with_weight="true"
   only_selected="false"
   uniform="false" />&#10;            &#10;            &#10;        &#10;        &#10;        &#10;    &#10;                &#10;            </defs><sodipodi:namedview
   id="namedview33"
   pagecolor="#ffffff"
   bordercolor="#000000"
   borderopacity="0.25"
   inkscape:showpageshadow="2"
   inkscape:pageopacity="0.0"
   inkscape:pagecheckerboard="0"
   inkscape:deskcolor="#d1d1d1"
   inkscape:zoom="0.28099174"
   inkscape:cx="2049.8823"
   inkscape:cy="311.39705"
   inkscape:window-width="1920"
   inkscape:window-height="1009"
   inkscape:window-x="-8"
   inkscape:window-y="-8"
   inkscape:window-maximized="1"
   inkscape:current-layer="svg33" />&#10;    <g
   id="Guideway"
   transform="matrix(0.721295,0,0,0.721295,1693.5613,-625.28389)">&#10;        <g
   transform="matrix(0.925269,0,0,0.325653,809.17382,598.47283)"
   id="g1">&#10;            <rect
   x="0"
   y="824.24597"
   width="3840"
   height="55.979"
   style="fill:#988982"
   id="rect1" />&#10;        </g>&#10;        <g
   transform="matrix(-0.705723,0,0,-0.488004,4996.8281,1393.7151)"
   id="g2">&#10;            <path
   d="m 1823.139,969.853 h 11.723 l 34.555,72.34 h -138.218 l 34.554,-72.34 h 11.723 V 207.98699 h 45.663 z"
   style="fill:#685055"
   id="path1"
   sodipodi:nodetypes="ccccccccc" />&#10;        </g>&#10;        <g
   transform="matrix(-0.705723,0,0,-0.488004,4673.1186,1393.7151)"
   id="g3">&#10;            <path
   d="m 1823.139,969.853 h 11.723 l 34.555,72.34 h -138.218 l 34.554,-72.34 h 11.723 V 264.806 h 45.663 z"
   style="fill:#685055"
   id="path2" />&#10;        </g>&#10;        <g
   transform="matrix(-0.705723,0,0,-0.488004,4349.4091,1393.7151)"
   id="g4">&#10;            <path
   d="m 1823.139,969.853 h 11.723 l 34.555,72.34 h -138.218 l 34.554,-72.34 h 11.723 V 264.806 h 45.663 z"
   style="fill:#685055"
   id="path3" />&#10;        </g>&#10;        <g
   transform="matrix(-0.705723,0,0,-0.488004,5644.2471,1393.7151)"
   id="g5">&#10;            <path
   d="m 1823.139,969.853 h 11.723 l 34.555,72.34 h -138.218 l 34.554,-72.34 h 11.723 V 207.98699 h 45.663 z"
   style="fill:#685055"
   id="path4"
   sodipodi:nodetypes="ccccccccc" />&#10;        </g>&#10;        <g
   transform="matrix(-0.705723,0,0,-0.488004,5320.5376,1393.7151)"
   id="g6">&#10;            <path
   d="m 1823.139,969.853 h 11.723 l 34.555,72.34 h -138.218 l 34.554,-72.34 h 11.723 V 207.98699 h 45.663 z"
   style="fill:#685055"
   id="path5"
   sodipodi:nodetypes="ccccccccc" />&#10;        </g>&#10;        <g
   transform="matrix(-0.705723,0,0,-0.488004,-507.43869,1393.7151)"
   id="g7">&#10;            <path
   d="m 1823.139,969.853 h 11.723 l 34.555,72.34 h -138.218 l 34.554,-72.34 h 11.723 V 264.806 h 45.663 z"
   style="fill:#685055"
   id="path6" />&#10;        </g>&#10;        <g
   transform="matrix(-0.705723,0,0,-0.488004,-831.14819,1393.7151)"
   id="g8">&#10;            <path
   d="m 1823.139,969.853 h 11.723 l 34.555,72.34 h -138.218 l 34.554,-72.34 h 11.723 V 207.98699 h 45.663 z"
   style="fill:#685055"
   id="path7"
   sodipodi:nodetypes="ccccccccc" />&#10;        </g>&#10;        <g
   transform="matrix(0.789535,0,0,0.789535,2382.701,885.1209)"
   id="g9">&#10;            <path
   d="M 451.365,44.712 H 440.886 L 410,0 h 123.545 l -30.886,44.712 h -10.478 v 435.783 h -40.816 z"
   style="fill:#685055"
   id="path8" />&#10;        </g>&#10;        <g
   transform="matrix(0.789535,0,0,0.789535,2382.701,885.1209)"
   id="g10">&#10;            <path
   d="M 41.365,44.712 H 30.886 L 0,0 H 123.545 L 92.659,44.712 H 82.181 V 480.495 H 41.365 Z"
   style="fill:#685055"
   id="path9" />&#10;        </g>&#10;        <g
   transform="matrix(-0.705723,0,0,-0.488004,3054.5711,1393.715)"
   id="g11">&#10;            <path
   d="m 1823.139,969.853 h 11.723 l 34.555,72.34 h -138.218 l 34.554,-72.34 h 11.723 V 264.806 h 45.663 z"
   style="fill:#685055"
   id="path10" />&#10;        </g>&#10;        <g
   transform="matrix(-0.705723,0,0,-0.488004,2730.8616,1393.715)"
   id="g12">&#10;            <path
   d="m 1823.139,969.853 h 11.723 l 34.555,72.34 h -138.218 l 34.554,-72.34 h 11.723 V 264.806 h 45.663 z"
   style="fill:#685055"
   id="path11" />&#10;        </g>&#10;        <g
   transform="matrix(-0.705723,0,0,-0.488004,2407.1521,1393.715)"
   id="g13">&#10;            <path
   d="m 1823.139,969.853 h 11.723 l 34.555,72.34 h -138.218 l 34.554,-72.34 h 11.723 V 264.806 h 45.663 z"
   style="fill:#685055"
   id="path12" />&#10;        </g>&#10;        <g
   transform="matrix(0.789535,0,0,0.789535,440.44396,885.12074)"
   id="g14">&#10;            <path
   d="M 451.365,44.712 H 440.886 L 410,0 h 123.545 l -30.886,44.712 h -10.478 v 435.783 h -40.816 z"
   style="fill:#685055"
   id="path13" />&#10;        </g>&#10;        <g
   transform="matrix(-0.705723,0,0,-0.488004,3378.2806,1393.715)"
   id="g15">&#10;            <path
   d="m 1823.139,969.853 h 11.723 l 34.555,72.34 h -138.218 l 34.554,-72.34 h 11.723 V 264.806 h 45.663 z"
   style="fill:#685055"
   id="path14" />&#10;        </g>&#10;        <g
   transform="matrix(0.789535,0,0,0.789535,1087.863,885.12074)"
   id="g16">&#10;            <path
   d="M 451.365,44.712 H 440.886 L 410,0 h 123.545 l -30.886,44.712 h -10.478 v 435.783 h -40.816 z"
   style="fill:#685055"
   id="path15" />&#10;        </g>&#10;        <g
   transform="matrix(0.789535,0,0,0.789535,1087.863,885.12074)"
   id="g17">&#10;            <path
   d="M 41.365,44.712 H 30.886 L 0,0 H 123.545 L 92.659,44.712 H 82.181 V 480.495 H 41.365 Z"
   style="fill:#685055"
   id="path16" />&#10;        </g>&#10;        <g
   transform="matrix(0.892798,0,0,0.325653,-2347.9447,598.47251)"
   id="g18">&#10;            <rect
   x="0"
   y="824.24597"
   width="3840"
   height="55.979"
   style="fill:#988982"
   id="rect17" />&#10;        </g>&#10;        <g
   transform="matrix(-0.705723,0,0,-0.488004,2405.9468,1393.7148)"
   id="g19">&#10;            <path
   d="m 1823.139,969.853 h 11.723 l 34.555,72.34 h -138.218 l 34.554,-72.34 h 11.723 V 264.806 h 45.663 z"
   style="fill:#685055"
   id="path18" />&#10;        </g>&#10;        <g
   transform="matrix(-0.705723,0,0,-0.488004,2082.2373,1393.7148)"
   id="g20">&#10;            <path
   d="m 1823.139,969.853 h 11.723 l 34.555,72.34 h -138.218 l 34.554,-72.34 h 11.723 V 264.806 h 45.663 z"
   style="fill:#685055"
   id="path19" />&#10;        </g>&#10;        <g
   transform="matrix(-0.705723,0,0,-0.488004,1758.5278,1393.7148)"
   id="g21">&#10;            <path
   d="m 1823.139,969.853 h 11.723 l 34.555,72.34 h -138.218 l 34.554,-72.34 h 11.723 V 264.806 h 45.663 z"
   style="fill:#685055"
   id="path20" />&#10;        </g>&#10;        <g
   transform="matrix(0.789535,0,0,0.789535,-208.18036,885.12058)"
   id="g22">&#10;            <path
   d="M 451.365,44.712 H 440.886 L 410,0 h 123.545 l -30.886,44.712 h -10.478 v 435.783 h -40.816 z"
   style="fill:#685055"
   id="path21" />&#10;        </g>&#10;        <g
   transform="matrix(0.789535,0,0,0.789535,-208.18036,885.12058)"
   id="g23">&#10;            <path
   d="M 41.365,44.712 H 30.886 L 0,0 H 123.545 L 92.659,44.712 H 82.181 V 480.495 H 41.365 Z"
   style="fill:#685055"
   id="path22" />&#10;        </g>&#10;        <g
   transform="matrix(-0.705723,0,0,-0.488004,463.68981,1393.7146)"
   id="g24">&#10;            <path
   d="m 1823.139,969.853 h 11.723 l 34.555,72.34 h -138.218 l 34.554,-72.34 h 11.723 V 264.806 h 45.663 z"
   style="fill:#685055"
   id="path23" />&#10;        </g>&#10;        <g
   transform="matrix(-0.705723,0,0,-0.488004,139.98031,1393.7146)"
   id="g25">&#10;            <path
   d="m 1823.139,969.853 h 11.723 l 34.555,72.34 h -138.218 l 34.554,-72.34 h 11.723 V 264.806 h 45.663 z"
   style="fill:#685055"
   id="path24" />&#10;        </g>&#10;        <g
   transform="matrix(-0.705723,0,0,-0.488004,-183.72919,1393.7146)"
   id="g26">&#10;            <path
   d="m 1823.139,969.853 h 11.723 l 34.555,72.34 h -138.218 l 34.554,-72.34 h 11.723 V 264.806 h 45.663 z"
   style="fill:#685055"
   id="path25" />&#10;        </g>&#10;        <g
   transform="matrix(0.789535,0,0,0.789535,-2150.4374,885.12042)"
   id="g27">&#10;            <path
   d="M 451.365,44.712 H 440.886 L 410,0 h 123.545 l -30.886,44.712 h -10.478 v 470.90229 h -40.816 z"
   style="fill:#685055"
   id="path26"
   sodipodi:nodetypes="ccccccccc" />&#10;        </g>&#10;        <g
   transform="matrix(-0.705723,0,0,-0.488004,787.39931,1393.7146)"
   id="g28">&#10;            <path
   d="m 1823.139,969.853 h 11.723 l 34.555,72.34 h -138.218 l 34.554,-72.34 h 11.723 V 264.806 h 45.663 z"
   style="fill:#685055"
   id="path27" />&#10;        </g>&#10;        <g
   transform="matrix(0.789535,0,0,0.789535,-1503.0184,885.12042)"
   id="g29">&#10;            <path
   d="M 451.365,44.712 H 440.886 L 410,0 h 123.545 l -30.886,44.712 h -10.478 v 435.783 h -40.816 z"
   style="fill:#685055"
   id="path28" />&#10;        </g>&#10;        <g
   transform="matrix(0.789535,0,0,0.789535,-1503.0184,885.12042)"
   id="g30">&#10;            <path
   d="M 41.365,44.712 H 30.886 L 0,0 H 123.545 L 92.659,44.712 H 82.181 V 480.495 H 41.365 Z"
   style="fill:#685055"
   id="path29" />&#10;        </g>&#10;    </g>&#10;    <g
   id="Grass"
   transform="translate(500,-843.7683)">&#10;        <path
   d="m -521.038,1146.474 c 0,0 1123.049,-26.52 1689.233,-66.474 566.184,-39.954 3247.459,66.205 3247.459,66.205 V 2530.701 H -590.927 Z"
   style="fill:#9bc6a3"
   id="path30" />&#10;    </g>&#10;    <path
   id="path31"
   style="fill:#959595;stroke-width:1.00824"
   d="M 2764.5898 235.69727 C 2756.8088 270.27474 2741.5764 319.50114 2699.5488 369.43359 C 2657.1226 419.83979 2600.9341 450.47897 2541.209 475.85938 C 2535.5242 478.27562 2520.1282 484.81964 2469.4297 504.30859 C 2429.8521 519.52211 2422.7842 523.1074 2416.5391 525.67383 C 2402.8642 531.29303 2396.8529 534.0747 2395.5078 534.625 C 2378.5152 541.56665 2372.401 544.5176 2370.6582 545.25391 C 2331.6608 561.72593 2293.5323 582.22458 2262.0527 623.57031 C 2254.538 633.43879 2249.5165 641.80619 2249.4805 641.87109 C 2248.2025 644.19241 2245.2286 649.63871 2241.7734 657.10547 C 2240.8543 659.09157 2235.7806 670.05621 2231.5742 682.48047 C 2231.5469 682.56185 2227.8929 696.13829 2225.4062 712.97266 C 2224.3676 720.00829 2224.3025 719.99966 2224.2305 721.42578 C 2219.5729 813.4548 2259.1024 877.21904 2296.4766 921.41797 C 2304.5464 930.96093 2311.8937 938.82162 2311.9297 938.85742 C 2339.3172 967.01932 2368.8803 991.81242 2378.375 1008.5664 C 2378.6835 1009.1118 2378.9603 1009.6269 2379.209 1010.1152 C 2373.7508 1010.7304 2368.8789 1011.0198 2365.6777 1011.168 C 2365.174 1011.1913 2364.6082 1011.0888 2363.8926 1011.3184 C 2362.8528 1011.1411 2361.6066 1010.9294 2359.9551 1010.6543 C 2359.2322 1010.5342 2357.4863 1013.4627 2357.4863 1013.4727 C 2355.3122 1016.9789 2349.0826 1028.6559 2349.0586 1028.7109 C 2347.8866 1031.4536 2341.3652 1046.7148 2333.541 1062.6094 C 2330.9315 1067.9089 2330.5211 1068.4716 2330.4961 1068.5176 L 2338.0527 1052.3438 L 2328.7285 1067.1328 C 2321.2106 1079.0341 2321.2015 1079.024 2321.1445 1079.123 C 2319.0659 1082.7716 2297.0446 1124.4876 2260.3809 1190.1094 L 2565.7539 1361.127 C 2570.5668 1352.5131 2592.549 1313.361 2627.8594 1247.7578 C 2629.0356 1245.5712 2629.0815 1245.5972 2630.1035 1243.3359 C 2638.2509 1225.3023 2642.5806 1215.6045 2642.6406 1215.4883 C 2644.139 1212.5275 2645.8594 1209.6781 2647.2559 1206.668 C 2648.5717 1203.8303 2649.6113 1200.8723 2650.7676 1197.9668 C 2650.8788 1197.6868 2652.0349 1194.3172 2653.166 1190.873 C 2662.8443 1161.3743 2669.6149 1135.0469 2670.875 1130.1465 C 2670.9243 1129.9537 2675.7118 1107.0264 2679.041 1082.6719 C 2682.2213 1059.4074 2682.6634 1045.1579 2682.6934 1043.041 C 2682.9337 1026.5243 2682.3531 1000.9053 2676.6641 971.67188 C 2674.4701 960.3918 2672.1403 951.94833 2672.0039 951.4707 C 2668.6117 939.62773 2661.8615 918.3675 2648.748 894.18555 C 2606.5988 816.46225 2538.9738 781.07172 2493.3086 757.88281 C 2491.5616 756.99633 2471.774 746.94813 2471.4688 746.81055 C 2469.8892 746.10046 2461.8867 742.49173 2451.748 737.875 C 2450.3265 737.38986 2448.9579 736.89555 2447.7949 736.45312 C 2444.7688 735.30194 2442.9708 734.50985 2435.8301 727.75195 C 2428.6895 720.99406 2416.2072 708.2709 2410.1113 697.02539 C 2407.1975 691.65 2405.7525 686.61739 2405.1758 682.00977 C 2403.2942 676.4885 2403.3194 671.20509 2404.3457 666.55664 C 2404.4193 666.2253 2404.4568 666.23849 2404.5078 666.02148 C 2404.5128 665.99628 2404.4783 665.97442 2404.4883 665.94922 C 2404.5282 665.74285 2404.5877 665.54036 2404.6387 665.33594 C 2406.6385 657.36345 2411.4801 650.56753 2411.8672 649.97461 C 2415.3413 644.66251 2422.0395 637.56737 2425.4023 634.75195 C 2426.3078 633.99335 2431.7932 629.3518 2439.7832 624.11914 C 2444.2257 621.20878 2455.6966 615.17089 2458.0332 614.06836 C 2487.1426 600.3323 2519.3531 588.30589 2551.4297 575.24414 C 2662.2407 530.12097 2807.3493 461.27549 2855.6641 260.17383 C 2858.688 247.58971 2858.8915 245.62138 2859.2461 239.29492 L 2790.459 236.0625 L 2764.5898 235.69727 z M 2360.9746 1013.5137 L 2361.1895 1013.5332 L 2361.1895 1013.5352 C 2361.0919 1013.7464 2361.0173 1013.9656 2360.9102 1014.1719 L 2360.9746 1013.5137 z " /><g
   transform="matrix(1.0492488,0,0,0.96883037,466.87085,-1007.6885)"
   id="g32">&#10;                <path
   d="m 1920.177,2205.676 c 8.961,-23.938 25.668,-72.914 29.211,-101.109 0.058,-0.456 1.36,-10.668 1.27,-23.102 -0.598,-82.051 -58.924,-112.361 -111.436,-157.738 -38.524,-33.289 -71.404,-73.419 -73.992,-143.664 -0.641,-17.379 1.37,-30.186 1.777,-32.775 7,-44.58 31.813,-74.212 67.658,-97.921 105.644,-69.875 297.371,-86.842 375.516,-286.424 2.065,-5.273 13.135,-33.134 21.283,-72.31 0.787,-3.786 0.857,-5.828 0.882,-6.296 l 5.167,0.113 c -0.082,1.931 0,3.585 -3.379,18.153 -57.096,246.086 -257.226,273.642 -372.655,337.501 -47.706,26.392 -77.656,57.715 -84.221,106.007 -0.838,6.163 -2.405,20.03 -0.524,41.172 7.962,89.5 69.75,121.833 121.896,165.01 40.113,33.212 74.656,73.278 68.697,150.085 -0.327,4.207 -1.826,31.167 -25.544,99.261 -2.648,7.604 -4.517,12.633 -4.55,12.705 -0.01,0.021 -11.298,23.188 -16.153,32.957 -33.024,66.45 -53.533,106.011 -57.911,114.496 l -16.624,-10.084 c 5.288,-10.265 18.32,-35.468 39.219,-77.092 z"
   style="fill:#ffe834"
   id="path32" />&#10;            </g><path
   d="m 2357.4871,1013.4728 c 0,0 1.5909,-2.0443 3.1087,-4.6987 0.7873,-1.3769 1.9207,-2.41 2.0273,-4.4833 0.1095,-2.1376 -0.2707,-6.55012 -1.2403,-9.64232 -1.7796,-5.6752 -8.2364,-15.8285 -8.2364,-15.8285 l 33.7547,24.84782 0.623,17.275 -23.189,4.202 z"
   style="fill:#959595"
   id="path33"
   sodipodi:nodetypes="cscaccccc" />&#10;</svg>
