<?xml version="1.0" encoding="UTF-8" standalone="no"?>
<svg
   width="4839.9995"
   height="1174.8761"
   viewBox="0 0 4839.9995 1174.8761"
   version="1.1"
   xml:space="preserve"
   style="clip-rule:evenodd;fill-rule:evenodd;stroke-linejoin:round;stroke-miterlimit:2"
   id="svg33"
   sodipodi:docname="guideway.svg"
   inkscape:version="1.3 (0e150ed6c4, 2023-07-21)"
   xmlns:inkscape="http://www.inkscape.org/namespaces/inkscape"
   xmlns:sodipodi="http://sodipodi.sourceforge.net/DTD/sodipodi-0.dtd"
   xmlns="http://www.w3.org/2000/svg"
   xmlns:svg="http://www.w3.org/2000/svg"><defs
   id="defs33"><inkscape:path-effect
   effect="bspline"
   id="path-effect34"
   is_visible="true"
   lpeversion="1.3"
   weight="33.333333"
   steps="2"
   helper_size="0"
   apply_no_weight="true"
   apply_with_weight="true"
   only_selected="false"
   uniform="false" /><inkscape:path-effect
   effect="bspline"
   id="path-effect17"
   is_visible="true"
   lpeversion="1.3"
   weight="33.333333"
   steps="2"
   helper_size="0"
   apply_no_weight="true"
   apply_with_weight="true"
   only_selected="false"
   uniform="false" />&#10;            &#10;            &#10;        &#10;        &#10;        &#10;    &#10;                &#10;            </defs><sodipodi:namedview
   id="namedview33"
   pagecolor="#ffffff"
   bordercolor="#000000"
   borderopacity="0.25"
   inkscape:showpageshadow="2"
   inkscape:pageopacity="0.0"
   inkscape:pagecheckerboard="0"
   inkscape:deskcolor="#d1d1d1"
   inkscape:zoom="12.716235"
   inkscape:cx="2830.6335"
   inkscape:cy="240.99115"
   inkscape:window-width="1920"
   inkscape:window-height="1009"
   inkscape:window-x="-8"
   inkscape:window-y="-8"
   inkscape:window-maximized="1"
   inkscape:current-layer="svg33" />&#10;    <g
   id="Guideway"
   transform="matrix(0.721295,0,0,0.721295,1693.5613,-625.28389)">&#10;        <g
   transform="matrix(0.925269,0,0,0.325653,809.17382,598.47283)"
   id="g1">&#10;            <rect
   x="0"
   y="824.24597"
   width="3840"
   height="55.979"
   style="fill:#988982"
   id="rect1" />&#10;        </g>&#10;        <g
   transform="matrix(-0.705723,0,0,-0.488004,4996.8281,1393.7151)"
   id="g2">&#10;            <path
   d="m 1823.139,969.853 h 11.723 l 34.555,72.34 h -138.218 l 34.554,-72.34 h 11.723 V 207.98699 h 45.663 z"
   style="fill:#685055"
   id="path1"
   sodipodi:nodetypes="ccccccccc" />&#10;        </g>&#10;        <g
   transform="matrix(-0.705723,0,0,-0.488004,4673.1186,1393.7151)"
   id="g3">&#10;            <path
   d="m 1823.139,969.853 h 11.723 l 34.555,72.34 h -138.218 l 34.554,-72.34 h 11.723 V 264.806 h 45.663 z"
   style="fill:#685055"
   id="path2" />&#10;        </g>&#10;        <g
   transform="matrix(-0.705723,0,0,-0.488004,4349.4091,1393.7151)"
   id="g4">&#10;            <path
   d="m 1823.139,969.853 h 11.723 l 34.555,72.34 h -138.218 l 34.554,-72.34 h 11.723 V 264.806 h 45.663 z"
   style="fill:#685055"
   id="path3" />&#10;        </g>&#10;        <g
   transform="matrix(-0.705723,0,0,-0.488004,5644.2471,1393.7151)"
   id="g5">&#10;            <path
   d="m 1823.139,969.853 h 11.723 l 34.555,72.34 h -138.218 l 34.554,-72.34 h 11.723 V 207.98699 h 45.663 z"
   style="fill:#685055"
   id="path4"
   sodipodi:nodetypes="ccccccccc" />&#10;        </g>&#10;        <g
   transform="matrix(-0.705723,0,0,-0.488004,5320.5376,1393.7151)"
   id="g6">&#10;            <path
   d="m 1823.139,969.853 h 11.723 l 34.555,72.34 h -138.218 l 34.554,-72.34 h 11.723 V 207.98699 h 45.663 z"
   style="fill:#685055"
   id="path5"
   sodipodi:nodetypes="ccccccccc" />&#10;        </g>&#10;        <g
   transform="matrix(-0.705723,0,0,-0.488004,-507.43869,1393.7151)"
   id="g7">&#10;            <path
   d="m 1823.139,969.853 h 11.723 l 34.555,72.34 h -138.218 l 34.554,-72.34 h 11.723 V 264.806 h 45.663 z"
   style="fill:#685055"
   id="path6" />&#10;        </g>&#10;        <g
   transform="matrix(-0.705723,0,0,-0.488004,-831.14819,1393.7151)"
   id="g8">&#10;            <path
   d="m 1823.139,969.853 h 11.723 l 34.555,72.34 h -138.218 l 34.554,-72.34 h 11.723 V 207.98699 h 45.663 z"
   style="fill:#685055"
   id="path7"
   sodipodi:nodetypes="ccccccccc" />&#10;        </g>&#10;        <g
   transform="matrix(0.789535,0,0,0.789535,2382.701,885.1209)"
   id="g9">&#10;            <path
   d="M 451.365,44.712 H 440.886 L 410,0 h 123.545 l -30.886,44.712 h -10.478 v 435.783 h -40.816 z"
   style="fill:#685055"
   id="path8" />&#10;        </g>&#10;        <g
   transform="matrix(0.789535,0,0,0.789535,2382.701,885.1209)"
   id="g10">&#10;            <path
   d="M 41.365,44.712 H 30.886 L 0,0 H 123.545 L 92.659,44.712 H 82.181 V 480.495 H 41.365 Z"
   style="fill:#685055"
   id="path9" />&#10;        </g>&#10;        <g
   transform="matrix(-0.705723,0,0,-0.488004,3054.5711,1393.715)"
   id="g11">&#10;            <path
   d="m 1823.139,969.853 h 11.723 l 34.555,72.34 h -138.218 l 34.554,-72.34 h 11.723 V 264.806 h 45.663 z"
   style="fill:#685055"
   id="path10" />&#10;        </g>&#10;        <g
   transform="matrix(-0.705723,0,0,-0.488004,2730.8616,1393.715)"
   id="g12">&#10;            <path
   d="m 1823.139,969.853 h 11.723 l 34.555,72.34 h -138.218 l 34.554,-72.34 h 11.723 V 264.806 h 45.663 z"
   style="fill:#685055"
   id="path11" />&#10;        </g>&#10;        <g
   transform="matrix(-0.705723,0,0,-0.488004,2407.1521,1393.715)"
   id="g13">&#10;            <path
   d="m 1823.139,969.853 h 11.723 l 34.555,72.34 h -138.218 l 34.554,-72.34 h 11.723 V 264.806 h 45.663 z"
   style="fill:#685055"
   id="path12" />&#10;        </g>&#10;        <g
   transform="matrix(0.789535,0,0,0.789535,440.44396,885.12074)"
   id="g14">&#10;            <path
   d="M 451.365,44.712 H 440.886 L 410,0 h 123.545 l -30.886,44.712 h -10.478 v 435.783 h -40.816 z"
   style="fill:#685055"
   id="path13" />&#10;        </g>&#10;        <g
   transform="matrix(-0.705723,0,0,-0.488004,3378.2806,1393.715)"
   id="g15">&#10;            <path
   d="m 1823.139,969.853 h 11.723 l 34.555,72.34 h -138.218 l 34.554,-72.34 h 11.723 V 264.806 h 45.663 z"
   style="fill:#685055"
   id="path14" />&#10;        </g>&#10;        <g
   transform="matrix(0.789535,0,0,0.789535,1087.863,885.12074)"
   id="g16">&#10;            <path
   d="M 451.365,44.712 H 440.886 L 410,0 h 123.545 l -30.886,44.712 h -10.478 v 435.783 h -40.816 z"
   style="fill:#685055"
   id="path15" />&#10;        </g>&#10;        <g
   transform="matrix(0.789535,0,0,0.789535,1087.863,885.12074)"
   id="g17">&#10;            <path
   d="M 41.365,44.712 H 30.886 L 0,0 H 123.545 L 92.659,44.712 H 82.181 V 480.495 H 41.365 Z"
   style="fill:#685055"
   id="path16" />&#10;        </g>&#10;        <g
   transform="matrix(0.892798,0,0,0.325653,-2347.9447,598.47251)"
   id="g18">&#10;            <rect
   x="0"
   y="824.24597"
   width="3840"
   height="55.979"
   style="fill:#988982"
   id="rect17" />&#10;        </g>&#10;        <g
   transform="matrix(-0.705723,0,0,-0.488004,2405.9468,1393.7148)"
   id="g19">&#10;            <path
   d="m 1823.139,969.853 h 11.723 l 34.555,72.34 h -138.218 l 34.554,-72.34 h 11.723 V 264.806 h 45.663 z"
   style="fill:#685055"
   id="path18" />&#10;        </g>&#10;        <g
   transform="matrix(-0.705723,0,0,-0.488004,2082.2373,1393.7148)"
   id="g20">&#10;            <path
   d="m 1823.139,969.853 h 11.723 l 34.555,72.34 h -138.218 l 34.554,-72.34 h 11.723 V 264.806 h 45.663 z"
   style="fill:#685055"
   id="path19" />&#10;        </g>&#10;        <g
   transform="matrix(-0.705723,0,0,-0.488004,1758.5278,1393.7148)"
   id="g21">&#10;            <path
   d="m 1823.139,969.853 h 11.723 l 34.555,72.34 h -138.218 l 34.554,-72.34 h 11.723 V 264.806 h 45.663 z"
   style="fill:#685055"
   id="path20" />&#10;        </g>&#10;        <g
   transform="matrix(0.789535,0,0,0.789535,-208.18036,885.12058)"
   id="g22">&#10;            <path
   d="M 451.365,44.712 H 440.886 L 410,0 h 123.545 l -30.886,44.712 h -10.478 v 435.783 h -40.816 z"
   style="fill:#685055"
   id="path21" />&#10;        </g>&#10;        <g
   transform="matrix(0.789535,0,0,0.789535,-208.18036,885.12058)"
   id="g23">&#10;            <path
   d="M 41.365,44.712 H 30.886 L 0,0 H 123.545 L 92.659,44.712 H 82.181 V 480.495 H 41.365 Z"
   style="fill:#685055"
   id="path22" />&#10;        </g>&#10;        <g
   transform="matrix(-0.705723,0,0,-0.488004,463.68981,1393.7146)"
   id="g24">&#10;            <path
   d="m 1823.139,969.853 h 11.723 l 34.555,72.34 h -138.218 l 34.554,-72.34 h 11.723 V 264.806 h 45.663 z"
   style="fill:#685055"
   id="path23" />&#10;        </g>&#10;        <g
   transform="matrix(-0.705723,0,0,-0.488004,139.98031,1393.7146)"
   id="g25">&#10;            <path
   d="m 1823.139,969.853 h 11.723 l 34.555,72.34 h -138.218 l 34.554,-72.34 h 11.723 V 264.806 h 45.663 z"
   style="fill:#685055"
   id="path24" />&#10;        </g>&#10;        <g
   transform="matrix(-0.705723,0,0,-0.488004,-183.72919,1393.7146)"
   id="g26">&#10;            <path
   d="m 1823.139,969.853 h 11.723 l 34.555,72.34 h -138.218 l 34.554,-72.34 h 11.723 V 264.806 h 45.663 z"
   style="fill:#685055"
   id="path25" />&#10;        </g>&#10;        <g
   transform="matrix(0.789535,0,0,0.789535,-2150.4374,885.12042)"
   id="g27">&#10;            <path
   d="M 451.365,44.712 H 440.886 L 410,0 h 123.545 l -30.886,44.712 h -10.478 v 470.90229 h -40.816 z"
   style="fill:#685055"
   id="path26"
   sodipodi:nodetypes="ccccccccc" />&#10;        </g>&#10;        <g
   transform="matrix(-0.705723,0,0,-0.488004,787.39931,1393.7146)"
   id="g28">&#10;            <path
   d="m 1823.139,969.853 h 11.723 l 34.555,72.34 h -138.218 l 34.554,-72.34 h 11.723 V 264.806 h 45.663 z"
   style="fill:#685055"
   id="path27" />&#10;        </g>&#10;        <g
   transform="matrix(0.789535,0,0,0.789535,-1503.0184,885.12042)"
   id="g29">&#10;            <path
   d="M 451.365,44.712 H 440.886 L 410,0 h 123.545 l -30.886,44.712 h -10.478 v 435.783 h -40.816 z"
   style="fill:#685055"
   id="path28" />&#10;        </g>&#10;        <g
   transform="matrix(0.789535,0,0,0.789535,-1503.0184,885.12042)"
   id="g30">&#10;            <path
   d="M 41.365,44.712 H 30.886 L 0,0 H 123.545 L 92.659,44.712 H 82.181 V 480.495 H 41.365 Z"
   style="fill:#685055"
   id="path29" />&#10;        </g>&#10;    </g>&#10;    <g
   id="Grass"
   transform="translate(500,-843.7683)">&#10;        <path
   d="m -521.038,1146.474 c 0,0 1123.049,-26.52 1689.233,-66.474 566.184,-39.954 3247.459,66.205 3247.459,66.205 V 2530.701 H -590.927 Z"
   style="fill:#9bc6a3"
   id="path30" />&#10;    </g>&#10;    <path
   id="path31"
   style="fill:#959595;stroke-width:1.00824"
   d="m 2764.5898,235.69727 c -7.781,34.57747 -23.0134,83.80387 -65.041,133.73632 -42.4262,50.4062 -98.6147,81.04538 -158.3398,106.42579 -5.6848,2.41624 -21.0808,8.96026 -71.7793,28.44921 -39.5776,15.21352 -46.6455,18.79881 -52.8906,21.36524 -13.6749,5.6192 -19.6862,8.40087 -21.0313,8.95117 -16.9926,6.94165 -23.1068,9.8926 -24.8496,10.62891 -38.9974,16.47202 -77.1259,36.97067 -108.6055,78.3164 -7.5147,9.86848 -12.5362,18.23588 -12.5722,18.30078 -1.278,2.32132 -4.2519,7.76762 -7.7071,15.23438 -0.9191,1.9861 -5.9928,12.95074 -10.1992,25.375 -0.027,0.0814 -3.6813,13.65782 -6.168,30.49219 -1.0386,7.03563 -1.1037,7.027 -1.1757,8.45312 -4.6576,92.02902 34.8719,155.79326 72.2461,199.99219 8.0698,9.54296 15.4171,17.40365 15.4531,17.43945 27.3875,28.1619 56.9506,52.955 66.4453,69.70898 0.3085,0.5454 0.5853,1.0605 0.834,1.5488 -5.4582,0.6152 -10.3301,0.9046 -13.5313,1.0528 -0.5037,0.023 -1.0695,-0.079 -1.7851,0.1504 -1.0398,-0.1773 -2.286,-0.389 -3.9375,-0.6641 -0.7229,-0.1201 -2.4688,2.8084 -2.4688,2.8184 -2.1741,3.5062 -8.4037,15.1832 -8.4277,15.2382 -1.172,2.7427 -7.6934,18.0039 -15.5176,33.8985 -2.6095,5.2995 -3.0199,5.8622 -3.0449,5.9082 l 7.5566,-16.1738 -9.3242,14.789 c -7.5179,11.9013 -7.527,11.8912 -7.584,11.9902 -2.0786,3.6486 -24.0999,45.3646 -60.7636,110.9864 l 305.373,171.0176 c 4.8129,-8.6139 26.7951,-47.766 62.1055,-113.3692 1.1762,-2.1866 1.2221,-2.1606 2.2441,-4.4219 8.1474,-18.0336 12.4771,-27.7314 12.5371,-27.8476 1.4984,-2.9608 3.2188,-5.8102 4.6153,-8.8203 1.3158,-2.8377 2.3554,-5.7957 3.5117,-8.7012 0.1112,-0.28 1.2673,-3.6496 2.3984,-7.0938 9.6783,-29.4987 16.4489,-55.8261 17.709,-60.7265 0.049,-0.1928 4.8368,-23.1201 8.166,-47.4746 3.1803,-23.2645 3.6224,-37.514 3.6524,-39.6309 0.2403,-16.5167 -0.3403,-42.1357 -6.0293,-71.36912 -2.194,-11.28008 -4.5238,-19.72355 -4.6602,-20.20118 -3.3922,-11.84297 -10.1424,-33.1032 -23.2559,-57.28515 -42.1492,-77.7233 -109.7742,-113.11383 -155.4394,-136.30274 -1.747,-0.88648 -21.5346,-10.93468 -21.8398,-11.07226 -1.5796,-0.71009 -9.5821,-4.31882 -19.7208,-8.93555 -1.4215,-0.48514 -2.7901,-0.97945 -3.9531,-1.42188 -3.0261,-1.15118 -4.8241,-1.94327 -11.9648,-8.70117 -7.1406,-6.75789 -19.6229,-19.48105 -25.7188,-30.72656 -2.9138,-5.37539 -4.3588,-10.408 -4.9355,-15.01562 -1.8816,-5.52127 -1.8564,-10.80468 -0.8301,-15.45313 0.074,-0.33134 0.1111,-0.31815 0.1621,-0.53516 0.01,-0.0252 -0.029,-0.0471 -0.019,-0.0723 0.04,-0.20637 0.099,-0.40886 0.1504,-0.61328 1.9998,-7.97249 6.8414,-14.76841 7.2285,-15.36133 3.4741,-5.3121 10.1723,-12.40724 13.5351,-15.22266 0.9055,-0.7586 6.3909,-5.40015 14.3809,-10.63281 4.4425,-2.91036 15.9134,-8.94825 18.25,-10.05078 29.1094,-13.73606 61.3199,-25.76247 93.3965,-38.82422 110.811,-45.12317 255.9196,-113.96865 304.2344,-315.07031 3.0239,-12.58412 3.4705,-16.1407 3.8251,-22.46716 l -69.0302,-1.64417 z m -403.6152,777.81643 0.2149,0.019 v 0 c -0.098,0.2112 -0.1722,0.4304 -0.2793,0.6367 z"
   sodipodi:nodetypes="cssssccccssccscscscscccccccccccccscsscccccccssscsccccsccsscccccccc" /><g
   transform="matrix(1.0492488,0,0,0.96883037,466.87085,-1007.6885)"
   id="g32">&#10;                <path
   d="m 1920.177,2205.676 c 8.961,-23.938 25.668,-72.914 29.211,-101.109 0.058,-0.456 1.36,-10.668 1.27,-23.102 -0.598,-82.051 -58.924,-112.361 -111.436,-157.738 -38.524,-33.289 -71.404,-73.419 -73.992,-143.664 -0.641,-17.379 1.37,-30.186 1.777,-32.775 7,-44.58 31.813,-74.212 67.658,-97.921 105.644,-69.875 297.371,-86.842 375.516,-286.424 2.065,-5.273 13.135,-33.134 21.283,-72.31 0.787,-3.786 0.857,-5.828 0.882,-6.296 l 5.167,0.113 c -0.082,1.931 0,3.585 -3.379,18.153 -57.096,246.086 -257.226,273.642 -372.655,337.501 -47.706,26.392 -77.656,57.715 -84.221,106.007 -0.838,6.163 -2.405,20.03 -0.524,41.172 7.962,89.5 69.75,121.833 121.896,165.01 40.113,33.212 74.656,73.278 68.697,150.085 -0.327,4.207 -1.826,31.167 -25.544,99.261 -2.648,7.604 -4.517,12.633 -4.55,12.705 -0.01,0.021 -11.298,23.188 -16.153,32.957 -33.024,66.45 -53.533,106.011 -57.911,114.496 l -16.624,-10.084 c 5.288,-10.265 18.32,-35.468 39.219,-77.092 z"
   style="fill:#ffe834"
   id="path32" />&#10;            </g><path
   d="m 2357.4871,1013.4728 c 0,0 1.5909,-2.0443 3.1087,-4.6987 0.7873,-1.3769 1.9207,-2.41 2.0273,-4.4833 0.1095,-2.1376 -0.2707,-6.55012 -1.2403,-9.64232 -1.7796,-5.6752 -8.2364,-15.8285 -8.2364,-15.8285 l 33.7547,24.84782 0.623,17.275 -23.189,4.202 z"
   style="fill:#959595"
   id="path33"
   sodipodi:nodetypes="cscaccccc" />&#10;</svg>
