<?xml version="1.0" encoding="UTF-8" standalone="no"?>
<!DOCTYPE svg PUBLIC "-//W3C//DTD SVG 1.1//EN" "http://www.w3.org/Graphics/SVG/1.1/DTD/svg11.dtd">
<svg width="100%" height="100%" viewBox="0 0 1526 761" version="1.1" xmlns="http://www.w3.org/2000/svg" xmlns:xlink="http://www.w3.org/1999/xlink" xml:space="preserve" xmlns:serif="http://www.serif.com/" style="fill-rule:evenodd;clip-rule:evenodd;stroke-linejoin:round;stroke-miterlimit:1.5;">
    <g transform="matrix(1,0,0,1,-1936.729456,-1430.987396)">
        <g id="Bike" transform="matrix(1,0,0,1,432.176682,31.655067)">
            <path d="M2441.383,1672.824C2435.537,1672.765 2423.844,1672.648 2417.865,1678.005C2399.19,1694.735 2335.439,1735.506 2329.329,1773.207C2323.22,1810.908 2383.829,1870.069 2381.206,1904.21C2378.649,1937.485 2331.792,1952.917 2313.591,1978.048C2296.489,2001.662 2280.163,2037.22 2272,2054.998" style="fill:none;stroke:black;stroke-width:8px;"/>
            <path d="M2189.863,1672.81C2164.693,1724.551 2114.353,1828.033 2119.829,1888.417C2125.223,1947.9 2201.823,2005.764 2222.718,2035.112C2229.872,2045.161 2240.089,2058.06 2245.198,2064.509" style="fill:none;stroke:black;stroke-width:8px;"/>
            <path d="M2271.111,1942.032C2269.915,1938.314 2267.522,1930.878 2271.111,1927.751C2292.442,1909.171 2377.046,1857.756 2399.098,1830.552C2412.986,1813.418 2408.855,1785.902 2403.421,1764.526C2396.353,1736.725 2369.912,1688.07 2356.692,1663.743" style="fill:none;stroke:black;stroke-width:8px;"/>
            <g transform="matrix(0.89418,0,0,1,240.286518,5.395185)">
                <rect x="2231.94" y="1682.721" width="78.438" height="104.169" style="fill:rgb(87,87,87);"/>
            </g>
            <path d="M2365.027,2160L2177.195,2160C2177.195,2160 2204.69,2106.437 2205.209,2097.618C2205.728,2088.799 2203.134,2078.424 2203.134,2067.53C2203.134,2056.636 2219.216,1931.094 2219.216,1913.974C2219.216,1896.855 2211.953,1829.415 2215.584,1816.446C2219.216,1803.477 2223.366,1787.395 2223.366,1787.395C2223.366,1787.395 2229.072,1778.057 2243.079,1774.945C2254.904,1772.317 2267.1,1771.168 2270.611,1770.874L2270.611,1770.794C2270.611,1770.794 2270.784,1770.807 2271.111,1770.833C2271.438,1770.807 2271.611,1770.794 2271.611,1770.794L2271.611,1770.874C2275.123,1771.168 2287.318,1772.317 2299.143,1774.945C2313.15,1778.057 2318.857,1787.395 2318.857,1787.395C2318.857,1787.395 2323.007,1803.477 2326.638,1816.446C2330.27,1829.415 2323.007,1896.855 2323.007,1913.974C2323.007,1931.094 2339.089,2056.636 2339.089,2067.53C2339.089,2078.424 2336.495,2088.799 2337.013,2097.618C2337.532,2106.437 2365.027,2160 2365.027,2160Z" style="fill:url(#_Linear1);"/>
            <g transform="matrix(1,0,0,1,4.895685,7.61551)">
                <g>
                    <g transform="matrix(-0.357581,-0.767776,-0.829569,0.38636,3774.353634,2904.391318)">
                        <path d="M2088.409,1685.199C2085.885,1685.199 2066.079,1672.75 2060.767,1661.944C2055.269,1650.761 2054.03,1620.446 2055.423,1618.096C2056.815,1615.746 2059.949,1614.03 2063.082,1613.67C2066.215,1613.309 2073.004,1612.09 2077.268,1612.09C2081.533,1612.09 2093.103,1610.972 2093.103,1610.972C2093.103,1610.972 2090.933,1685.199 2088.409,1685.199Z" style="fill:url(#_Linear2);"/>
                    </g>
                    <g transform="matrix(-0.191183,-0.713505,-0.973788,0.260926,3658.314614,2977.305925)">
                        <path d="M2088.409,1685.199C2085.885,1685.199 2062.908,1685.286 2058.643,1684.155C2054.378,1683.023 2052.986,1681.718 2052.986,1681.718C2052.986,1681.718 2054.03,1620.446 2055.423,1618.096C2056.815,1615.746 2059.949,1614.03 2063.082,1613.67C2066.215,1613.309 2073.004,1612.09 2077.268,1612.09C2081.533,1612.09 2093.103,1610.972 2093.103,1610.972C2093.103,1610.972 2090.933,1685.199 2088.409,1685.199Z" style="fill:url(#_Linear3);"/>
                    </g>
                    <g transform="matrix(0.146005,0.724102,0.98825,-0.199267,-280.247735,732.455433)">
                        <path d="M2088.409,1685.199C2085.885,1685.199 2062.908,1685.286 2058.643,1684.155C2054.378,1683.023 2052.986,1681.718 2052.986,1681.718C2052.986,1681.718 2054.03,1620.446 2055.423,1618.096C2056.815,1615.746 2059.949,1614.03 2063.082,1613.67C2066.215,1613.309 2073.004,1612.09 2077.268,1612.09C2081.533,1612.09 2093.103,1610.972 2093.103,1610.972C2093.103,1610.972 2090.933,1685.199 2088.409,1685.199Z" style="fill:url(#_Linear4);"/>
                    </g>
                    <g transform="matrix(0.093553,0.884784,1.002042,-0.105951,-196.414022,228.653174)">
                        <path d="M2088.409,1685.199C2085.885,1685.199 2062.908,1685.286 2058.643,1684.155C2054.378,1683.023 2052.986,1681.718 2052.986,1681.718C2052.986,1681.718 2054.03,1620.446 2055.423,1618.096C2056.815,1615.746 2059.949,1614.03 2063.082,1613.67C2066.215,1613.309 2073.004,1612.09 2077.268,1612.09C2081.533,1612.09 2093.103,1610.972 2093.103,1610.972C2093.103,1610.972 2090.933,1685.199 2088.409,1685.199Z" style="fill:url(#_Linear5);"/>
                    </g>
                    <g transform="matrix(-0.006016,0.889696,1.007605,0.006813,-0.878995,5.209603)">
                        <path d="M2088.409,1685.199C2085.885,1685.199 2062.908,1685.286 2058.643,1684.155C2054.378,1683.023 2052.986,1681.718 2052.986,1681.718C2052.986,1681.718 2054.03,1620.446 2055.423,1618.096C2056.815,1615.746 2059.949,1614.03 2063.082,1613.67C2066.215,1613.309 2073.004,1612.09 2077.268,1612.09C2081.533,1612.09 2093.103,1610.972 2093.103,1610.972C2093.103,1610.972 2090.933,1685.199 2088.409,1685.199Z" style="fill:url(#_Linear6);"/>
                    </g>
                    <g transform="matrix(-0.079274,0.894641,1.054912,0.093475,72.02266,-177.677683)">
                        <path d="M2088.409,1685.199C2085.885,1685.199 2062.908,1685.286 2058.643,1684.155C2054.378,1683.023 2052.986,1681.718 2052.986,1681.718C2052.986,1681.718 2054.03,1620.446 2055.423,1618.096C2056.815,1615.746 2059.949,1614.03 2063.082,1613.67C2066.215,1613.309 2073.004,1612.09 2077.268,1612.09C2081.533,1612.09 2093.103,1610.972 2093.103,1610.972C2093.103,1610.972 2090.933,1685.199 2088.409,1685.199Z" style="fill:url(#_Linear7);"/>
                    </g>
                    <g transform="matrix(-0.204816,0.917296,1.075525,0.240145,300.343619,-494.16074)">
                        <path d="M2088.409,1685.199C2085.885,1685.199 2062.908,1685.286 2058.643,1684.155C2054.378,1683.023 2052.986,1681.718 2052.986,1681.718C2052.986,1681.718 2054.03,1620.446 2055.423,1618.096C2056.815,1615.746 2059.949,1614.03 2063.082,1613.67C2066.215,1613.309 2073.004,1612.09 2077.268,1612.09C2081.533,1612.09 2093.103,1610.972 2093.103,1610.972C2093.103,1610.972 2090.933,1685.199 2088.409,1685.199Z" style="fill:url(#_Linear8);"/>
                    </g>
                    <g transform="matrix(-0.284301,0.895853,1.050384,0.333342,513.864801,-633.564477)">
                        <path d="M2088.409,1685.199C2085.885,1685.199 2062.908,1685.286 2058.643,1684.155C2054.378,1683.023 2052.986,1681.718 2052.986,1681.718C2052.986,1681.718 2054.03,1620.446 2055.423,1618.096C2056.815,1615.746 2059.949,1614.03 2063.082,1613.67C2066.215,1613.309 2073.004,1612.09 2077.268,1612.09C2081.533,1612.09 2093.103,1610.972 2093.103,1610.972C2093.103,1610.972 2090.933,1685.199 2088.409,1685.199Z" style="fill:url(#_Linear9);"/>
                    </g>
                    <g transform="matrix(-0.39466,0.853009,1.00015,0.462737,835.803343,-786.557945)">
                        <path d="M2088.409,1685.199C2085.885,1685.199 2062.908,1685.286 2058.643,1684.155C2054.378,1683.023 2052.986,1681.718 2052.986,1681.718C2052.986,1681.718 2054.03,1620.446 2055.423,1618.096C2056.815,1615.746 2059.949,1614.03 2063.082,1613.67C2066.215,1613.309 2073.004,1612.09 2077.268,1612.09C2081.533,1612.09 2093.103,1610.972 2093.103,1610.972C2093.103,1610.972 2090.933,1685.199 2088.409,1685.199Z" style="fill:url(#_Linear10);"/>
                    </g>
                    <g transform="matrix(-0.41037,0.845563,0.991419,0.481157,895.849668,-833.111379)">
                        <path d="M2088.409,1685.199C2085.885,1685.199 2062.908,1685.286 2058.643,1684.155C2054.378,1683.023 2052.986,1681.718 2052.986,1681.718C2052.986,1681.718 2054.03,1620.446 2055.423,1618.096C2056.815,1615.746 2059.949,1614.03 2063.082,1613.67C2066.215,1613.309 2073.004,1612.09 2077.268,1612.09C2081.533,1612.09 2093.103,1610.972 2093.103,1610.972C2093.103,1610.972 2090.933,1685.199 2088.409,1685.199Z" style="fill:url(#_Linear11);"/>
                    </g>
                    <g transform="matrix(0.454079,-0.935624,0.991419,0.481157,-876.943993,2827.906185)">
                        <path d="M2054.579,1613.67C2054.782,1614.665 2053.153,1677.132 2054.579,1681.868C2056.006,1686.605 2057.773,1685.351 2057.773,1685.351C2057.773,1685.351 2076.132,1683.962 2080.756,1685.351C2085.38,1686.741 2086.332,1687.693 2089.868,1687.965C2093.403,1688.236 2100.339,1682.804 2100.339,1682.804C2100.339,1682.804 2095.744,1669.541 2096.002,1665.425C2096.259,1661.31 2098.435,1632.888 2099.115,1628.536C2099.795,1624.184 2104.283,1611.66 2100.203,1611.123C2096.123,1610.585 2088.1,1611.932 2086.332,1611.123C2084.564,1610.313 2054.377,1612.674 2054.579,1613.67Z"/>
                    </g>
                    <path d="M1653.343,1522.312L1653.343,1533.489L1574.384,1659.367C1574.384,1659.367 1562.349,1682.193 1554.879,1693.398C1547.408,1704.603 1526.243,1730.256 1522.109,1733.846C1517.975,1737.437 1504.811,1746.14 1503.179,1747.989C1501.547,1749.839 1496.869,1756.018 1501.982,1760C1507.095,1763.982 1506.551,1764.526 1512.97,1764.526C1519.389,1764.526 1522.435,1764.504 1529.18,1760C1535.926,1755.496 1554.502,1739.864 1557.732,1735.614C1560.962,1731.364 1637.117,1635.32 1637.117,1635.32C1637.117,1635.32 1659.896,1607.612 1663.635,1605.572C1667.375,1603.532 1672.513,1600.465 1672.513,1600.465L1717.522,1525.847L1674.175,1495.419L1653.343,1522.312Z" style="fill:url(#_Linear12);"/>
                    <g transform="matrix(-0.939883,0,0,1,3956.92011,1.378876)">
                        <path d="M2088.409,1685.199C2085.885,1685.199 2062.908,1685.286 2058.643,1684.155C2054.378,1683.023 2052.986,1681.718 2052.986,1681.718C2052.986,1681.718 2054.03,1620.446 2055.423,1618.096C2056.815,1615.746 2059.949,1614.03 2063.082,1613.67C2066.215,1613.309 2073.004,1612.09 2077.268,1612.09C2081.533,1612.09 2093.103,1610.972 2093.103,1610.972C2093.103,1610.972 2090.933,1685.199 2088.409,1685.199Z" style="fill:url(#_Linear13);"/>
                    </g>
                    <g transform="matrix(-0.922934,0,0,0.961527,3825.67177,63.55774)">
                        <path d="M2088.409,1685.199C2085.885,1685.199 2062.908,1685.286 2058.643,1684.155C2054.378,1683.023 2052.986,1681.718 2052.986,1681.718C2052.986,1681.718 2054.03,1620.446 2055.423,1618.096C2056.815,1615.746 2059.949,1614.03 2063.082,1613.67C2066.215,1613.309 2073.004,1612.09 2077.268,1612.09C2081.533,1612.09 2093.103,1610.972 2093.103,1610.972C2093.103,1610.972 2090.933,1685.199 2088.409,1685.199Z" style="fill:url(#_Linear14);"/>
                    </g>
                    <g transform="matrix(-0.500984,-0.014786,-0.028366,0.961108,2876.651765,71.65817)">
                        <path d="M2088.409,1685.199C2085.885,1685.199 2062.908,1685.286 2058.643,1684.155C2054.378,1683.023 2052.986,1681.718 2052.986,1681.718C2052.986,1681.718 2054.03,1620.446 2055.423,1618.096C2056.815,1615.746 2059.949,1614.03 2063.082,1613.67C2066.215,1613.309 2073.004,1612.09 2077.268,1612.09C2081.533,1612.09 2093.103,1610.972 2093.103,1610.972C2093.103,1610.972 2090.933,1685.199 2088.409,1685.199Z" style="fill:url(#_Linear15);"/>
                    </g>
                    <g transform="matrix(-0.500984,-0.014786,-0.028366,0.961108,2891.100863,74.845471)">
                        <path d="M2088.409,1685.199C2085.885,1685.199 2062.908,1685.286 2058.643,1684.155C2054.378,1683.023 2052.986,1681.718 2052.986,1681.718C2052.986,1681.718 2054.03,1620.446 2055.423,1618.096C2056.815,1615.746 2059.949,1614.03 2063.082,1613.67C2066.215,1613.309 2073.004,1612.09 2077.268,1612.09C2081.533,1612.09 2093.103,1610.972 2093.103,1610.972C2093.103,1610.972 2090.933,1685.199 2088.409,1685.199Z" style="fill:url(#_Linear16);"/>
                    </g>
                    <g transform="matrix(-0.500984,-0.014786,-0.028366,0.961108,2906.824882,78.032772)">
                        <path d="M2088.409,1685.199C2085.885,1685.199 2062.908,1685.286 2058.643,1684.155C2054.378,1683.023 2052.986,1681.718 2052.986,1681.718C2052.986,1681.718 2054.03,1620.446 2055.423,1618.096C2056.815,1615.746 2059.949,1614.03 2063.082,1613.67C2066.215,1613.309 2073.004,1612.09 2077.268,1612.09C2081.533,1612.09 2093.103,1610.972 2093.103,1610.972C2093.103,1610.972 2090.933,1685.199 2088.409,1685.199Z" style="fill:url(#_Linear17);"/>
                    </g>
                    <g transform="matrix(-0.500984,-0.014786,-0.028366,0.961108,2919.999061,82.07002)">
                        <path d="M2088.409,1685.199C2085.885,1685.199 2062.908,1685.286 2058.643,1684.155C2054.378,1683.023 2052.986,1681.718 2052.986,1681.718C2052.986,1681.718 2054.03,1620.446 2055.423,1618.096C2056.815,1615.746 2059.949,1614.03 2063.082,1613.67C2066.215,1613.309 2073.004,1612.09 2077.268,1612.09C2081.533,1612.09 2093.103,1610.972 2093.103,1610.972C2093.103,1610.972 2090.933,1685.199 2088.409,1685.199Z" style="fill:url(#_Linear18);"/>
                    </g>
                    <g transform="matrix(-0.636838,0.032105,0.048412,0.960307,3089.767821,-11.503498)">
                        <path d="M2088.409,1685.199C2085.885,1685.199 2062.908,1685.286 2058.643,1684.155C2054.378,1683.023 2052.986,1681.718 2052.986,1681.718C2052.986,1681.718 2054.03,1620.446 2055.423,1618.096C2056.815,1615.746 2059.949,1614.03 2063.082,1613.67C2066.215,1613.309 2073.004,1612.09 2077.268,1612.09C2081.533,1612.09 2093.103,1610.972 2093.103,1610.972C2093.103,1610.972 2090.933,1685.199 2088.409,1685.199Z" style="fill:url(#_Linear19);"/>
                    </g>
                    <g transform="matrix(-0.636838,0.032105,0.048412,0.960307,3104.254494,-8.335318)">
                        <path d="M2088.409,1685.199C2085.885,1685.199 2062.908,1685.286 2058.643,1684.155C2054.378,1683.023 2052.986,1681.718 2052.986,1681.718C2052.986,1681.718 2054.03,1620.446 2055.423,1618.096C2056.815,1615.746 2059.949,1614.03 2063.082,1613.67C2066.215,1613.309 2073.004,1612.09 2077.268,1612.09C2081.533,1612.09 2093.103,1610.972 2093.103,1610.972C2093.103,1610.972 2090.933,1685.199 2088.409,1685.199Z" style="fill:url(#_Linear20);"/>
                    </g>
                    <g transform="matrix(-0.722017,0.036399,0.048412,0.960307,3302.244399,-13.733208)">
                        <path d="M2088.409,1685.199C2085.885,1685.199 2062.908,1685.286 2058.643,1684.155C2054.378,1683.023 2052.986,1681.718 2052.986,1681.718C2052.986,1681.718 2054.03,1620.446 2055.423,1618.096C2056.815,1615.746 2059.949,1614.03 2063.082,1613.67C2066.215,1613.309 2073.004,1612.09 2077.268,1612.09C2081.533,1612.09 2093.103,1610.972 2093.103,1610.972C2093.103,1610.972 2090.933,1685.199 2088.409,1685.199Z" style="fill:url(#_Linear21);"/>
                    </g>
                    <g transform="matrix(-0.922934,0,0,0.961527,3827.847635,63.358441)">
                        <path d="M2088.409,1685.199C2085.885,1685.199 2062.908,1685.286 2058.643,1684.155C2054.378,1683.023 2052.986,1681.718 2052.986,1681.718C2052.986,1681.718 2054.03,1620.446 2055.423,1618.096C2056.815,1615.746 2059.949,1614.03 2063.082,1613.67C2066.215,1613.309 2073.004,1612.09 2077.268,1612.09C2081.533,1612.09 2093.103,1610.972 2093.103,1610.972C2093.103,1610.972 2090.933,1685.199 2088.409,1685.199Z" style="fill:url(#_Linear22);"/>
                    </g>
                    <g transform="matrix(-0.939883,0,0,1,3892.83409,1.378876)">
                        <path d="M2088.409,1685.199C2085.885,1685.199 2062.908,1685.286 2058.643,1684.155C2054.378,1683.023 2052.986,1681.718 2052.986,1681.718C2052.986,1681.718 2054.03,1620.446 2055.423,1618.096C2056.815,1615.746 2059.949,1614.03 2063.082,1613.67C2066.215,1613.309 2073.004,1612.09 2077.268,1612.09C2081.533,1612.09 2093.103,1610.972 2093.103,1610.972C2093.103,1610.972 2090.933,1685.199 2088.409,1685.199Z" style="fill:url(#_Linear23);"/>
                    </g>
                    <g transform="matrix(-0.939883,0,0,1,3924.112147,1.378876)">
                        <path d="M2088.409,1685.199C2085.885,1685.199 2062.908,1685.286 2058.643,1684.155C2054.378,1683.023 2052.986,1681.718 2052.986,1681.718C2052.986,1681.718 2054.03,1620.446 2055.423,1618.096C2056.815,1615.746 2059.949,1614.03 2063.082,1613.67C2066.215,1613.309 2073.004,1612.09 2077.268,1612.09C2081.533,1612.09 2093.103,1610.972 2093.103,1610.972C2093.103,1610.972 2090.933,1685.199 2088.409,1685.199Z" style="fill:url(#_Linear24);"/>
                    </g>
                    <g transform="matrix(-0.939883,0,0,1,3956.92011,-0.015742)">
                        <path d="M2088.409,1685.199C2085.885,1685.199 2062.908,1685.286 2058.643,1684.155C2054.378,1683.023 2052.986,1681.718 2052.986,1681.718C2052.986,1681.718 2054.03,1620.446 2055.423,1618.096C2056.815,1615.746 2059.949,1614.03 2063.082,1613.67C2066.215,1613.309 2073.004,1612.09 2077.268,1612.09C2081.533,1612.09 2093.103,1610.972 2093.103,1610.972C2093.103,1610.972 2090.933,1685.199 2088.409,1685.199Z" style="fill:url(#_Linear25);"/>
                    </g>
                    <g transform="matrix(-0.939883,0,0,1,3987.146376,0.150265)">
                        <path d="M2088.409,1685.199C2085.885,1685.199 2062.908,1685.286 2058.643,1684.155C2054.378,1683.023 2052.986,1681.718 2052.986,1681.718C2052.986,1681.718 2054.03,1620.446 2055.423,1618.096C2056.815,1615.746 2059.949,1614.03 2063.082,1613.67C2066.215,1613.309 2073.004,1612.09 2077.268,1612.09C2081.533,1612.09 2093.103,1610.972 2093.103,1610.972C2093.103,1610.972 2090.933,1685.199 2088.409,1685.199Z" style="fill:url(#_Linear26);"/>
                    </g>
                    <path d="M1671.823,1598.847C1671.823,1598.847 1678.463,1613.373 1677.218,1623.748C1675.973,1634.123 1670.162,1648.237 1670.162,1648.237C1670.162,1648.237 1677.629,1661.774 1690.549,1665.004C1703.468,1668.234 1748.345,1672.824 1748.345,1672.824C1748.345,1672.824 1761.264,1658.715 1766.874,1656.165C1772.484,1653.615 1776.563,1652.255 1776.563,1652.255L1780.983,1654.635C1780.983,1654.635 1789.993,1662.238 1798.662,1648.237C1807.332,1634.236 1813.281,1619.447 1809.711,1610.268C1806.142,1601.088 1801.382,1595.818 1798.152,1592.759C1794.922,1589.699 1786.423,1580.349 1781.153,1572.53C1775.883,1564.71 1773.674,1560.631 1773.674,1553.661C1773.674,1546.691 1798.492,1467.306 1799.512,1461.697C1800.532,1456.087 1804.952,1440.278 1803.932,1429.399C1802.912,1418.519 1800.022,1417.669 1800.022,1417.669C1800.022,1417.669 1785.063,1399.99 1764.664,1396.081C1744.265,1392.171 1735.256,1390.641 1732.366,1392.511C1729.476,1394.381 1724.037,1404.07 1722.167,1407.64C1720.297,1411.21 1692.52,1465.206 1686.212,1473.174C1679.904,1481.143 1670.276,1484.463 1665.959,1492.099C1661.643,1499.735 1653.343,1522.312 1653.343,1522.312L1655.999,1528.62L1672.031,1503.811L1676.165,1503.811C1678.124,1503.811 1706.296,1525.121 1706.296,1525.121C1706.296,1525.121 1710.546,1526.184 1707.784,1530.858C1705.021,1535.533 1671.823,1598.847 1671.823,1598.847Z" style="fill:rgb(51,51,51);"/>
                    <path d="M2054.579,1613.67C2054.782,1614.665 2053.153,1677.132 2054.579,1681.868C2056.006,1686.605 2057.773,1685.351 2057.773,1685.351C2057.773,1685.351 2076.132,1683.962 2080.756,1685.351C2085.38,1686.741 2086.332,1687.693 2089.868,1687.965C2093.403,1688.236 2100.339,1682.804 2100.339,1682.804C2100.339,1682.804 2095.744,1669.541 2096.002,1665.425C2096.259,1661.31 2098.435,1632.888 2099.115,1628.536C2099.795,1624.184 2104.283,1611.66 2100.203,1611.123C2096.123,1610.585 2088.1,1611.932 2086.332,1611.123C2084.564,1610.313 2054.377,1612.674 2054.579,1613.67Z"/>
                </g>
                <g transform="matrix(0,0.930158,-1.650597,0,5048.606352,-460.900944)">
                    <path d="M2304.667,1592.15L2304.667,1773.293C2304.667,1777.825 2301.012,1786.89 2301.012,1786.89C2301.012,1786.89 2290.23,1788.821 2285.296,1788.821C2273.784,1788.821 2231.94,1786.89 2231.94,1786.89C2231.94,1786.89 2230.341,1776.838 2230.341,1771.876C2230.341,1754.515 2231.94,1682.721 2231.94,1682.721C2231.94,1682.721 2230.341,1610.927 2230.341,1593.566C2230.341,1588.605 2231.94,1578.553 2231.94,1578.553C2231.94,1578.553 2273.784,1576.622 2285.296,1576.622C2290.23,1576.622 2301.012,1578.553 2301.012,1578.553C2301.012,1578.553 2304.667,1587.618 2304.667,1592.15Z" style="fill:rgb(87,87,87);"/>
                </g>
                <path d="M2263.265,1685.023C2260.383,1685.095 2256.124,1685.292 2254.398,1685.831C2251.678,1686.681 2248.448,1691.101 2245.729,1696.88C2243.009,1702.66 2236.889,1703.34 2233.319,1703.34C2229.75,1703.34 2227.37,1703 2224.48,1699.6C2221.59,1696.201 2222.44,1676.312 2222.44,1676.312C2222.44,1676.312 2229.07,1649.793 2229.41,1638.234C2229.75,1626.675 2222.1,1603.386 2222.95,1598.116C2223.8,1592.847 2229.24,1590.297 2233.149,1590.127C2237.059,1589.957 2243.009,1590.977 2244.709,1593.697C2246.409,1596.417 2252.528,1604.916 2255.928,1606.786C2258.837,1608.386 2259.381,1609.613 2262.034,1609.933C2263.27,1609.952 2264.601,1609.971 2265.871,1609.986C2266.288,1609.97 2266.518,1609.951 2266.637,1609.931L2266.636,1609.994C2267.872,1610.007 2269.019,1610.016 2269.924,1610.016C2274.004,1610.016 2274.174,1608.656 2277.573,1606.786C2280.973,1604.916 2287.093,1596.417 2288.793,1593.697C2290.493,1590.977 2296.442,1589.957 2300.352,1590.127C2304.262,1590.297 2309.701,1592.847 2310.551,1598.116C2311.401,1603.386 2303.752,1626.675 2304.092,1638.234C2304.432,1649.793 2311.061,1676.312 2311.061,1676.312C2311.061,1676.312 2311.911,1696.201 2309.021,1699.6C2306.132,1703 2303.752,1703.34 2300.182,1703.34C2296.612,1703.34 2290.493,1702.66 2287.773,1696.88C2285.053,1691.101 2281.823,1686.681 2279.103,1685.831C2277.377,1685.292 2269.09,1685.095 2263.265,1685.023ZM2266.637,1609.931L2266.637,1609.846C2266.637,1609.846 2266.893,1609.888 2266.637,1609.931Z" style="fill:rgb(48,48,48);"/>
                <g transform="matrix(1,0,0,1,-2.785112,0)">
                    <circle cx="2236.718" cy="1691.588" r="6.441" style="fill:rgb(48,48,48);stroke:rgb(118,118,118);stroke-width:2px;"/>
                </g>
                <g transform="matrix(1,0,0,1,-0.785112,-90.307048)">
                    <circle cx="2236.718" cy="1691.588" r="6.441" style="fill:rgb(48,48,48);stroke:rgb(118,118,118);stroke-width:2px;"/>
                </g>
                <g transform="matrix(1,0,0,1,62.752056,0)">
                    <circle cx="2236.718" cy="1691.588" r="6.441" style="fill:rgb(48,48,48);stroke:rgb(118,118,118);stroke-width:2px;"/>
                </g>
                <g transform="matrix(1,0,0,1,60.752056,-90.307048)">
                    <circle cx="2236.718" cy="1691.588" r="6.441" style="fill:rgb(48,48,48);stroke:rgb(118,118,118);stroke-width:2px;"/>
                </g>
                <g transform="matrix(-1,0,0,1,4525.192802,0)">
                    <g transform="matrix(-0.357581,-0.767776,-0.829569,0.38636,3774.353634,2904.391318)">
                        <path d="M2088.409,1685.199C2085.885,1685.199 2066.079,1672.75 2060.767,1661.944C2055.269,1650.761 2054.03,1620.446 2055.423,1618.096C2056.815,1615.746 2059.949,1614.03 2063.082,1613.67C2066.215,1613.309 2073.004,1612.09 2077.268,1612.09C2081.533,1612.09 2093.103,1610.972 2093.103,1610.972C2093.103,1610.972 2090.933,1685.199 2088.409,1685.199Z" style="fill:url(#_Linear27);"/>
                    </g>
                    <g transform="matrix(-0.191183,-0.713505,-0.973788,0.260926,3658.314614,2977.305925)">
                        <path d="M2088.409,1685.199C2085.885,1685.199 2062.908,1685.286 2058.643,1684.155C2054.378,1683.023 2052.986,1681.718 2052.986,1681.718C2052.986,1681.718 2054.03,1620.446 2055.423,1618.096C2056.815,1615.746 2059.949,1614.03 2063.082,1613.67C2066.215,1613.309 2073.004,1612.09 2077.268,1612.09C2081.533,1612.09 2093.103,1610.972 2093.103,1610.972C2093.103,1610.972 2090.933,1685.199 2088.409,1685.199Z" style="fill:url(#_Linear28);"/>
                    </g>
                    <g transform="matrix(0.146005,0.724102,0.98825,-0.199267,-280.247735,732.455433)">
                        <path d="M2088.409,1685.199C2085.885,1685.199 2062.908,1685.286 2058.643,1684.155C2054.378,1683.023 2052.986,1681.718 2052.986,1681.718C2052.986,1681.718 2054.03,1620.446 2055.423,1618.096C2056.815,1615.746 2059.949,1614.03 2063.082,1613.67C2066.215,1613.309 2073.004,1612.09 2077.268,1612.09C2081.533,1612.09 2093.103,1610.972 2093.103,1610.972C2093.103,1610.972 2090.933,1685.199 2088.409,1685.199Z" style="fill:url(#_Linear29);"/>
                    </g>
                    <g transform="matrix(0.093553,0.884784,1.002042,-0.105951,-196.414022,228.653174)">
                        <path d="M2088.409,1685.199C2085.885,1685.199 2062.908,1685.286 2058.643,1684.155C2054.378,1683.023 2052.986,1681.718 2052.986,1681.718C2052.986,1681.718 2054.03,1620.446 2055.423,1618.096C2056.815,1615.746 2059.949,1614.03 2063.082,1613.67C2066.215,1613.309 2073.004,1612.09 2077.268,1612.09C2081.533,1612.09 2093.103,1610.972 2093.103,1610.972C2093.103,1610.972 2090.933,1685.199 2088.409,1685.199Z" style="fill:url(#_Linear30);"/>
                    </g>
                    <g transform="matrix(-0.006016,0.889696,1.007605,0.006813,-0.878995,5.209603)">
                        <path d="M2088.409,1685.199C2085.885,1685.199 2062.908,1685.286 2058.643,1684.155C2054.378,1683.023 2052.986,1681.718 2052.986,1681.718C2052.986,1681.718 2054.03,1620.446 2055.423,1618.096C2056.815,1615.746 2059.949,1614.03 2063.082,1613.67C2066.215,1613.309 2073.004,1612.09 2077.268,1612.09C2081.533,1612.09 2093.103,1610.972 2093.103,1610.972C2093.103,1610.972 2090.933,1685.199 2088.409,1685.199Z" style="fill:url(#_Linear31);"/>
                    </g>
                    <g transform="matrix(-0.079274,0.894641,1.054912,0.093475,72.02266,-177.677683)">
                        <path d="M2088.409,1685.199C2085.885,1685.199 2062.908,1685.286 2058.643,1684.155C2054.378,1683.023 2052.986,1681.718 2052.986,1681.718C2052.986,1681.718 2054.03,1620.446 2055.423,1618.096C2056.815,1615.746 2059.949,1614.03 2063.082,1613.67C2066.215,1613.309 2073.004,1612.09 2077.268,1612.09C2081.533,1612.09 2093.103,1610.972 2093.103,1610.972C2093.103,1610.972 2090.933,1685.199 2088.409,1685.199Z" style="fill:url(#_Linear32);"/>
                    </g>
                    <g transform="matrix(-0.204816,0.917296,1.075525,0.240145,300.343619,-494.16074)">
                        <path d="M2088.409,1685.199C2085.885,1685.199 2062.908,1685.286 2058.643,1684.155C2054.378,1683.023 2052.986,1681.718 2052.986,1681.718C2052.986,1681.718 2054.03,1620.446 2055.423,1618.096C2056.815,1615.746 2059.949,1614.03 2063.082,1613.67C2066.215,1613.309 2073.004,1612.09 2077.268,1612.09C2081.533,1612.09 2093.103,1610.972 2093.103,1610.972C2093.103,1610.972 2090.933,1685.199 2088.409,1685.199Z" style="fill:url(#_Linear33);"/>
                    </g>
                    <g transform="matrix(-0.284301,0.895853,1.050384,0.333342,513.864801,-633.564477)">
                        <path d="M2088.409,1685.199C2085.885,1685.199 2062.908,1685.286 2058.643,1684.155C2054.378,1683.023 2052.986,1681.718 2052.986,1681.718C2052.986,1681.718 2054.03,1620.446 2055.423,1618.096C2056.815,1615.746 2059.949,1614.03 2063.082,1613.67C2066.215,1613.309 2073.004,1612.09 2077.268,1612.09C2081.533,1612.09 2093.103,1610.972 2093.103,1610.972C2093.103,1610.972 2090.933,1685.199 2088.409,1685.199Z" style="fill:url(#_Linear34);"/>
                    </g>
                    <g transform="matrix(-0.39466,0.853009,1.00015,0.462737,835.803343,-786.557945)">
                        <path d="M2088.409,1685.199C2085.885,1685.199 2062.908,1685.286 2058.643,1684.155C2054.378,1683.023 2052.986,1681.718 2052.986,1681.718C2052.986,1681.718 2054.03,1620.446 2055.423,1618.096C2056.815,1615.746 2059.949,1614.03 2063.082,1613.67C2066.215,1613.309 2073.004,1612.09 2077.268,1612.09C2081.533,1612.09 2093.103,1610.972 2093.103,1610.972C2093.103,1610.972 2090.933,1685.199 2088.409,1685.199Z" style="fill:url(#_Linear35);"/>
                    </g>
                    <g transform="matrix(-0.41037,0.845563,0.991419,0.481157,895.849668,-833.111379)">
                        <path d="M2088.409,1685.199C2085.885,1685.199 2062.908,1685.286 2058.643,1684.155C2054.378,1683.023 2052.986,1681.718 2052.986,1681.718C2052.986,1681.718 2054.03,1620.446 2055.423,1618.096C2056.815,1615.746 2059.949,1614.03 2063.082,1613.67C2066.215,1613.309 2073.004,1612.09 2077.268,1612.09C2081.533,1612.09 2093.103,1610.972 2093.103,1610.972C2093.103,1610.972 2090.933,1685.199 2088.409,1685.199Z" style="fill:url(#_Linear36);"/>
                    </g>
                    <g transform="matrix(0.454079,-0.935624,0.991419,0.481157,-876.943993,2827.906185)">
                        <path d="M2054.579,1613.67C2054.782,1614.665 2053.153,1677.132 2054.579,1681.868C2056.006,1686.605 2057.773,1685.351 2057.773,1685.351C2057.773,1685.351 2076.132,1683.962 2080.756,1685.351C2085.38,1686.741 2086.332,1687.693 2089.868,1687.965C2093.403,1688.236 2100.339,1682.804 2100.339,1682.804C2100.339,1682.804 2095.744,1669.541 2096.002,1665.425C2096.259,1661.31 2098.435,1632.888 2099.115,1628.536C2099.795,1624.184 2104.283,1611.66 2100.203,1611.123C2096.123,1610.585 2088.1,1611.932 2086.332,1611.123C2084.564,1610.313 2054.377,1612.674 2054.579,1613.67Z"/>
                    </g>
                    <path d="M1653.343,1522.312L1653.343,1533.489L1574.384,1659.367C1574.384,1659.367 1562.349,1682.193 1554.879,1693.398C1547.408,1704.603 1526.243,1730.256 1522.109,1733.846C1517.975,1737.437 1504.811,1746.14 1503.179,1747.989C1501.547,1749.839 1496.869,1756.018 1501.982,1760C1507.095,1763.982 1506.551,1764.526 1512.97,1764.526C1519.389,1764.526 1522.435,1764.504 1529.18,1760C1535.926,1755.496 1554.502,1739.864 1557.732,1735.614C1560.962,1731.364 1637.117,1635.32 1637.117,1635.32C1637.117,1635.32 1659.896,1607.612 1663.635,1605.572C1667.375,1603.532 1672.513,1600.465 1672.513,1600.465L1717.522,1525.847L1674.175,1495.419L1653.343,1522.312Z" style="fill:url(#_Linear37);"/>
                    <g transform="matrix(-0.939883,0,0,1,3956.92011,1.378876)">
                        <path d="M2088.409,1685.199C2085.885,1685.199 2062.908,1685.286 2058.643,1684.155C2054.378,1683.023 2052.986,1681.718 2052.986,1681.718C2052.986,1681.718 2054.03,1620.446 2055.423,1618.096C2056.815,1615.746 2059.949,1614.03 2063.082,1613.67C2066.215,1613.309 2073.004,1612.09 2077.268,1612.09C2081.533,1612.09 2093.103,1610.972 2093.103,1610.972C2093.103,1610.972 2090.933,1685.199 2088.409,1685.199Z" style="fill:url(#_Linear38);"/>
                    </g>
                    <g transform="matrix(-0.922934,0,0,0.961527,3825.67177,63.55774)">
                        <path d="M2088.409,1685.199C2085.885,1685.199 2062.908,1685.286 2058.643,1684.155C2054.378,1683.023 2052.986,1681.718 2052.986,1681.718C2052.986,1681.718 2054.03,1620.446 2055.423,1618.096C2056.815,1615.746 2059.949,1614.03 2063.082,1613.67C2066.215,1613.309 2073.004,1612.09 2077.268,1612.09C2081.533,1612.09 2093.103,1610.972 2093.103,1610.972C2093.103,1610.972 2090.933,1685.199 2088.409,1685.199Z" style="fill:url(#_Linear39);"/>
                    </g>
                    <g transform="matrix(-0.500984,-0.014786,-0.028366,0.961108,2876.651765,71.65817)">
                        <path d="M2088.409,1685.199C2085.885,1685.199 2062.908,1685.286 2058.643,1684.155C2054.378,1683.023 2052.986,1681.718 2052.986,1681.718C2052.986,1681.718 2054.03,1620.446 2055.423,1618.096C2056.815,1615.746 2059.949,1614.03 2063.082,1613.67C2066.215,1613.309 2073.004,1612.09 2077.268,1612.09C2081.533,1612.09 2093.103,1610.972 2093.103,1610.972C2093.103,1610.972 2090.933,1685.199 2088.409,1685.199Z" style="fill:url(#_Linear40);"/>
                    </g>
                    <g transform="matrix(-0.500984,-0.014786,-0.028366,0.961108,2891.100863,74.845471)">
                        <path d="M2088.409,1685.199C2085.885,1685.199 2062.908,1685.286 2058.643,1684.155C2054.378,1683.023 2052.986,1681.718 2052.986,1681.718C2052.986,1681.718 2054.03,1620.446 2055.423,1618.096C2056.815,1615.746 2059.949,1614.03 2063.082,1613.67C2066.215,1613.309 2073.004,1612.09 2077.268,1612.09C2081.533,1612.09 2093.103,1610.972 2093.103,1610.972C2093.103,1610.972 2090.933,1685.199 2088.409,1685.199Z" style="fill:url(#_Linear41);"/>
                    </g>
                    <g transform="matrix(-0.500984,-0.014786,-0.028366,0.961108,2906.824882,78.032772)">
                        <path d="M2088.409,1685.199C2085.885,1685.199 2062.908,1685.286 2058.643,1684.155C2054.378,1683.023 2052.986,1681.718 2052.986,1681.718C2052.986,1681.718 2054.03,1620.446 2055.423,1618.096C2056.815,1615.746 2059.949,1614.03 2063.082,1613.67C2066.215,1613.309 2073.004,1612.09 2077.268,1612.09C2081.533,1612.09 2093.103,1610.972 2093.103,1610.972C2093.103,1610.972 2090.933,1685.199 2088.409,1685.199Z" style="fill:url(#_Linear42);"/>
                    </g>
                    <g transform="matrix(-0.500984,-0.014786,-0.028366,0.961108,2919.999061,82.07002)">
                        <path d="M2088.409,1685.199C2085.885,1685.199 2062.908,1685.286 2058.643,1684.155C2054.378,1683.023 2052.986,1681.718 2052.986,1681.718C2052.986,1681.718 2054.03,1620.446 2055.423,1618.096C2056.815,1615.746 2059.949,1614.03 2063.082,1613.67C2066.215,1613.309 2073.004,1612.09 2077.268,1612.09C2081.533,1612.09 2093.103,1610.972 2093.103,1610.972C2093.103,1610.972 2090.933,1685.199 2088.409,1685.199Z" style="fill:url(#_Linear43);"/>
                    </g>
                    <g transform="matrix(-0.636838,0.032105,0.048412,0.960307,3089.767821,-11.503498)">
                        <path d="M2088.409,1685.199C2085.885,1685.199 2062.908,1685.286 2058.643,1684.155C2054.378,1683.023 2052.986,1681.718 2052.986,1681.718C2052.986,1681.718 2054.03,1620.446 2055.423,1618.096C2056.815,1615.746 2059.949,1614.03 2063.082,1613.67C2066.215,1613.309 2073.004,1612.09 2077.268,1612.09C2081.533,1612.09 2093.103,1610.972 2093.103,1610.972C2093.103,1610.972 2090.933,1685.199 2088.409,1685.199Z" style="fill:url(#_Linear44);"/>
                    </g>
                    <g transform="matrix(-0.636838,0.032105,0.048412,0.960307,3104.254494,-8.335318)">
                        <path d="M2088.409,1685.199C2085.885,1685.199 2062.908,1685.286 2058.643,1684.155C2054.378,1683.023 2052.986,1681.718 2052.986,1681.718C2052.986,1681.718 2054.03,1620.446 2055.423,1618.096C2056.815,1615.746 2059.949,1614.03 2063.082,1613.67C2066.215,1613.309 2073.004,1612.09 2077.268,1612.09C2081.533,1612.09 2093.103,1610.972 2093.103,1610.972C2093.103,1610.972 2090.933,1685.199 2088.409,1685.199Z" style="fill:url(#_Linear45);"/>
                    </g>
                    <g transform="matrix(-0.722017,0.036399,0.048412,0.960307,3302.244399,-13.733208)">
                        <path d="M2088.409,1685.199C2085.885,1685.199 2062.908,1685.286 2058.643,1684.155C2054.378,1683.023 2052.986,1681.718 2052.986,1681.718C2052.986,1681.718 2054.03,1620.446 2055.423,1618.096C2056.815,1615.746 2059.949,1614.03 2063.082,1613.67C2066.215,1613.309 2073.004,1612.09 2077.268,1612.09C2081.533,1612.09 2093.103,1610.972 2093.103,1610.972C2093.103,1610.972 2090.933,1685.199 2088.409,1685.199Z" style="fill:url(#_Linear46);"/>
                    </g>
                    <g transform="matrix(-0.922934,0,0,0.961527,3827.847635,63.358441)">
                        <path d="M2088.409,1685.199C2085.885,1685.199 2062.908,1685.286 2058.643,1684.155C2054.378,1683.023 2052.986,1681.718 2052.986,1681.718C2052.986,1681.718 2054.03,1620.446 2055.423,1618.096C2056.815,1615.746 2059.949,1614.03 2063.082,1613.67C2066.215,1613.309 2073.004,1612.09 2077.268,1612.09C2081.533,1612.09 2093.103,1610.972 2093.103,1610.972C2093.103,1610.972 2090.933,1685.199 2088.409,1685.199Z" style="fill:url(#_Linear47);"/>
                    </g>
                    <g transform="matrix(-0.939883,0,0,1,3892.83409,1.378876)">
                        <path d="M2088.409,1685.199C2085.885,1685.199 2062.908,1685.286 2058.643,1684.155C2054.378,1683.023 2052.986,1681.718 2052.986,1681.718C2052.986,1681.718 2054.03,1620.446 2055.423,1618.096C2056.815,1615.746 2059.949,1614.03 2063.082,1613.67C2066.215,1613.309 2073.004,1612.09 2077.268,1612.09C2081.533,1612.09 2093.103,1610.972 2093.103,1610.972C2093.103,1610.972 2090.933,1685.199 2088.409,1685.199Z" style="fill:url(#_Linear48);"/>
                    </g>
                    <g transform="matrix(-0.939883,0,0,1,3924.112147,1.378876)">
                        <path d="M2088.409,1685.199C2085.885,1685.199 2062.908,1685.286 2058.643,1684.155C2054.378,1683.023 2052.986,1681.718 2052.986,1681.718C2052.986,1681.718 2054.03,1620.446 2055.423,1618.096C2056.815,1615.746 2059.949,1614.03 2063.082,1613.67C2066.215,1613.309 2073.004,1612.09 2077.268,1612.09C2081.533,1612.09 2093.103,1610.972 2093.103,1610.972C2093.103,1610.972 2090.933,1685.199 2088.409,1685.199Z" style="fill:url(#_Linear49);"/>
                    </g>
                    <g transform="matrix(-0.939883,0,0,1,3956.92011,-0.015742)">
                        <path d="M2088.409,1685.199C2085.885,1685.199 2062.908,1685.286 2058.643,1684.155C2054.378,1683.023 2052.986,1681.718 2052.986,1681.718C2052.986,1681.718 2054.03,1620.446 2055.423,1618.096C2056.815,1615.746 2059.949,1614.03 2063.082,1613.67C2066.215,1613.309 2073.004,1612.09 2077.268,1612.09C2081.533,1612.09 2093.103,1610.972 2093.103,1610.972C2093.103,1610.972 2090.933,1685.199 2088.409,1685.199Z" style="fill:url(#_Linear50);"/>
                    </g>
                    <g transform="matrix(-0.939883,0,0,1,3987.146376,0.150265)">
                        <path d="M2088.409,1685.199C2085.885,1685.199 2062.908,1685.286 2058.643,1684.155C2054.378,1683.023 2052.986,1681.718 2052.986,1681.718C2052.986,1681.718 2054.03,1620.446 2055.423,1618.096C2056.815,1615.746 2059.949,1614.03 2063.082,1613.67C2066.215,1613.309 2073.004,1612.09 2077.268,1612.09C2081.533,1612.09 2093.103,1610.972 2093.103,1610.972C2093.103,1610.972 2090.933,1685.199 2088.409,1685.199Z" style="fill:url(#_Linear51);"/>
                    </g>
                    <path d="M1671.823,1598.847C1671.823,1598.847 1678.463,1613.373 1677.218,1623.748C1675.973,1634.123 1670.162,1648.237 1670.162,1648.237C1670.162,1648.237 1677.629,1661.774 1690.549,1665.004C1703.468,1668.234 1748.345,1672.824 1748.345,1672.824C1748.345,1672.824 1761.264,1658.715 1766.874,1656.165C1772.484,1653.615 1776.563,1652.255 1776.563,1652.255L1780.983,1654.635C1780.983,1654.635 1789.993,1662.238 1798.662,1648.237C1807.332,1634.236 1813.281,1619.447 1809.711,1610.268C1806.142,1601.088 1801.382,1595.818 1798.152,1592.759C1794.922,1589.699 1786.423,1580.349 1781.153,1572.53C1775.883,1564.71 1773.674,1560.631 1773.674,1553.661C1773.674,1546.691 1798.492,1467.306 1799.512,1461.697C1800.532,1456.087 1804.952,1440.278 1803.932,1429.399C1802.912,1418.519 1800.022,1417.669 1800.022,1417.669C1800.022,1417.669 1785.063,1399.99 1764.664,1396.081C1744.265,1392.171 1735.256,1390.641 1732.366,1392.511C1729.476,1394.381 1724.037,1404.07 1722.167,1407.64C1720.297,1411.21 1692.52,1465.206 1686.212,1473.174C1679.904,1481.143 1670.276,1484.463 1665.959,1492.099C1661.643,1499.735 1653.343,1522.312 1653.343,1522.312L1655.999,1528.62L1672.031,1503.811L1676.165,1503.811C1678.124,1503.811 1706.296,1525.121 1706.296,1525.121C1706.296,1525.121 1710.546,1526.184 1707.784,1530.858C1705.021,1535.533 1671.823,1598.847 1671.823,1598.847Z" style="fill:rgb(51,51,51);"/>
                    <path d="M2054.579,1613.67C2054.782,1614.665 2053.153,1677.132 2054.579,1681.868C2056.006,1686.605 2057.773,1685.351 2057.773,1685.351C2057.773,1685.351 2076.132,1683.962 2080.756,1685.351C2085.38,1686.741 2086.332,1687.693 2089.868,1687.965C2093.403,1688.236 2100.339,1682.804 2100.339,1682.804C2100.339,1682.804 2095.744,1669.541 2096.002,1665.425C2096.259,1661.31 2098.435,1632.888 2099.115,1628.536C2099.795,1624.184 2104.283,1611.66 2100.203,1611.123C2096.123,1610.585 2088.1,1611.932 2086.332,1611.123C2084.564,1610.313 2054.377,1612.674 2054.579,1613.67Z"/>
                </g>
            </g>
        </g>
    </g>
    <defs>
        <linearGradient id="_Linear1" x1="0" y1="0" x2="1" y2="0" gradientUnits="userSpaceOnUse" gradientTransform="matrix(-4.474444,276.101783,-276.101783,-4.474444,2271.1112,1859.34278)"><stop offset="0" style="stop-color:rgb(111,111,111);stop-opacity:1"/><stop offset="1" style="stop-color:rgb(63,63,63);stop-opacity:1"/></linearGradient>
        <linearGradient id="_Linear2" x1="0" y1="0" x2="1" y2="0" gradientUnits="userSpaceOnUse" gradientTransform="matrix(30.300951,0,0,-28.479357,2061.344316,1649.315247)"><stop offset="0" style="stop-color:rgb(63,146,125);stop-opacity:1"/><stop offset="1" style="stop-color:rgb(25,124,99);stop-opacity:1"/></linearGradient>
        <linearGradient id="_Linear3" x1="0" y1="0" x2="1" y2="0" gradientUnits="userSpaceOnUse" gradientTransform="matrix(30.300951,0,0,-28.479357,2061.344316,1649.315247)"><stop offset="0" style="stop-color:rgb(63,146,125);stop-opacity:1"/><stop offset="1" style="stop-color:rgb(25,124,99);stop-opacity:1"/></linearGradient>
        <linearGradient id="_Linear4" x1="0" y1="0" x2="1" y2="0" gradientUnits="userSpaceOnUse" gradientTransform="matrix(30.300951,0,0,-28.479357,2061.344316,1649.315247)"><stop offset="0" style="stop-color:rgb(63,146,125);stop-opacity:1"/><stop offset="1" style="stop-color:rgb(25,124,99);stop-opacity:1"/></linearGradient>
        <linearGradient id="_Linear5" x1="0" y1="0" x2="1" y2="0" gradientUnits="userSpaceOnUse" gradientTransform="matrix(30.300951,0,0,-28.479357,2061.344316,1649.315247)"><stop offset="0" style="stop-color:rgb(63,146,125);stop-opacity:1"/><stop offset="1" style="stop-color:rgb(25,124,99);stop-opacity:1"/></linearGradient>
        <linearGradient id="_Linear6" x1="0" y1="0" x2="1" y2="0" gradientUnits="userSpaceOnUse" gradientTransform="matrix(30.300951,0,0,-28.479357,2061.344316,1649.315247)"><stop offset="0" style="stop-color:rgb(63,146,125);stop-opacity:1"/><stop offset="1" style="stop-color:rgb(25,124,99);stop-opacity:1"/></linearGradient>
        <linearGradient id="_Linear7" x1="0" y1="0" x2="1" y2="0" gradientUnits="userSpaceOnUse" gradientTransform="matrix(30.300951,0,0,-28.479357,2061.344316,1649.315247)"><stop offset="0" style="stop-color:rgb(63,146,125);stop-opacity:1"/><stop offset="1" style="stop-color:rgb(25,124,99);stop-opacity:1"/></linearGradient>
        <linearGradient id="_Linear8" x1="0" y1="0" x2="1" y2="0" gradientUnits="userSpaceOnUse" gradientTransform="matrix(30.300951,0,0,-28.479357,2061.344316,1649.315247)"><stop offset="0" style="stop-color:rgb(63,146,125);stop-opacity:1"/><stop offset="1" style="stop-color:rgb(25,124,99);stop-opacity:1"/></linearGradient>
        <linearGradient id="_Linear9" x1="0" y1="0" x2="1" y2="0" gradientUnits="userSpaceOnUse" gradientTransform="matrix(30.300951,0,0,-28.479357,2061.344316,1649.315247)"><stop offset="0" style="stop-color:rgb(63,146,125);stop-opacity:1"/><stop offset="1" style="stop-color:rgb(25,124,99);stop-opacity:1"/></linearGradient>
        <linearGradient id="_Linear10" x1="0" y1="0" x2="1" y2="0" gradientUnits="userSpaceOnUse" gradientTransform="matrix(30.300951,0,0,-28.479357,2061.344316,1649.315247)"><stop offset="0" style="stop-color:rgb(63,146,125);stop-opacity:1"/><stop offset="1" style="stop-color:rgb(25,124,99);stop-opacity:1"/></linearGradient>
        <linearGradient id="_Linear11" x1="0" y1="0" x2="1" y2="0" gradientUnits="userSpaceOnUse" gradientTransform="matrix(30.300951,0,0,-28.479357,2061.344316,1649.315247)"><stop offset="0" style="stop-color:rgb(63,146,125);stop-opacity:1"/><stop offset="1" style="stop-color:rgb(25,124,99);stop-opacity:1"/></linearGradient>
        <linearGradient id="_Linear12" x1="0" y1="0" x2="1" y2="0" gradientUnits="userSpaceOnUse" gradientTransform="matrix(-134.440264,197.822707,-197.822707,-134.440264,1664.450798,1549.34153)"><stop offset="0" style="stop-color:rgb(182,182,182);stop-opacity:1"/><stop offset="1" style="stop-color:rgb(225,225,225);stop-opacity:1"/></linearGradient>
        <linearGradient id="_Linear13" x1="0" y1="0" x2="1" y2="0" gradientUnits="userSpaceOnUse" gradientTransform="matrix(30.300951,0,0,-28.479357,2061.344316,1649.315247)"><stop offset="0" style="stop-color:rgb(63,146,125);stop-opacity:1"/><stop offset="1" style="stop-color:rgb(25,124,99);stop-opacity:1"/></linearGradient>
        <linearGradient id="_Linear14" x1="0" y1="0" x2="1" y2="0" gradientUnits="userSpaceOnUse" gradientTransform="matrix(30.300951,0,0,-28.479357,2061.344316,1649.315247)"><stop offset="0" style="stop-color:rgb(63,146,125);stop-opacity:1"/><stop offset="1" style="stop-color:rgb(25,124,99);stop-opacity:1"/></linearGradient>
        <linearGradient id="_Linear15" x1="0" y1="0" x2="1" y2="0" gradientUnits="userSpaceOnUse" gradientTransform="matrix(30.300951,0,0,-28.479357,2061.344316,1649.315247)"><stop offset="0" style="stop-color:rgb(63,146,125);stop-opacity:1"/><stop offset="1" style="stop-color:rgb(25,124,99);stop-opacity:1"/></linearGradient>
        <linearGradient id="_Linear16" x1="0" y1="0" x2="1" y2="0" gradientUnits="userSpaceOnUse" gradientTransform="matrix(30.300951,0,0,-28.479357,2061.344316,1649.315247)"><stop offset="0" style="stop-color:rgb(63,146,125);stop-opacity:1"/><stop offset="1" style="stop-color:rgb(25,124,99);stop-opacity:1"/></linearGradient>
        <linearGradient id="_Linear17" x1="0" y1="0" x2="1" y2="0" gradientUnits="userSpaceOnUse" gradientTransform="matrix(30.300951,0,0,-28.479357,2061.344316,1649.315247)"><stop offset="0" style="stop-color:rgb(63,146,125);stop-opacity:1"/><stop offset="1" style="stop-color:rgb(25,124,99);stop-opacity:1"/></linearGradient>
        <linearGradient id="_Linear18" x1="0" y1="0" x2="1" y2="0" gradientUnits="userSpaceOnUse" gradientTransform="matrix(30.300951,0,0,-28.479357,2061.344316,1649.315247)"><stop offset="0" style="stop-color:rgb(63,146,125);stop-opacity:1"/><stop offset="1" style="stop-color:rgb(25,124,99);stop-opacity:1"/></linearGradient>
        <linearGradient id="_Linear19" x1="0" y1="0" x2="1" y2="0" gradientUnits="userSpaceOnUse" gradientTransform="matrix(30.300951,0,0,-28.479357,2061.344316,1649.315247)"><stop offset="0" style="stop-color:rgb(63,146,125);stop-opacity:1"/><stop offset="1" style="stop-color:rgb(25,124,99);stop-opacity:1"/></linearGradient>
        <linearGradient id="_Linear20" x1="0" y1="0" x2="1" y2="0" gradientUnits="userSpaceOnUse" gradientTransform="matrix(30.300951,0,0,-28.479357,2061.344316,1649.315247)"><stop offset="0" style="stop-color:rgb(63,146,125);stop-opacity:1"/><stop offset="1" style="stop-color:rgb(25,124,99);stop-opacity:1"/></linearGradient>
        <linearGradient id="_Linear21" x1="0" y1="0" x2="1" y2="0" gradientUnits="userSpaceOnUse" gradientTransform="matrix(30.300951,0,0,-28.479357,2061.344316,1649.315247)"><stop offset="0" style="stop-color:rgb(63,146,125);stop-opacity:1"/><stop offset="1" style="stop-color:rgb(25,124,99);stop-opacity:1"/></linearGradient>
        <linearGradient id="_Linear22" x1="0" y1="0" x2="1" y2="0" gradientUnits="userSpaceOnUse" gradientTransform="matrix(30.300951,0,0,-28.479357,2061.344316,1649.315247)"><stop offset="0" style="stop-color:rgb(63,146,125);stop-opacity:1"/><stop offset="1" style="stop-color:rgb(25,124,99);stop-opacity:1"/></linearGradient>
        <linearGradient id="_Linear23" x1="0" y1="0" x2="1" y2="0" gradientUnits="userSpaceOnUse" gradientTransform="matrix(30.300951,0,0,-28.479357,2061.344316,1649.315247)"><stop offset="0" style="stop-color:rgb(63,146,125);stop-opacity:1"/><stop offset="1" style="stop-color:rgb(25,124,99);stop-opacity:1"/></linearGradient>
        <linearGradient id="_Linear24" x1="0" y1="0" x2="1" y2="0" gradientUnits="userSpaceOnUse" gradientTransform="matrix(30.300951,0,0,-28.479357,2061.344316,1649.315247)"><stop offset="0" style="stop-color:rgb(63,146,125);stop-opacity:1"/><stop offset="1" style="stop-color:rgb(25,124,99);stop-opacity:1"/></linearGradient>
        <linearGradient id="_Linear25" x1="0" y1="0" x2="1" y2="0" gradientUnits="userSpaceOnUse" gradientTransform="matrix(30.300951,0,0,-28.479357,2061.344316,1649.315247)"><stop offset="0" style="stop-color:rgb(63,146,125);stop-opacity:1"/><stop offset="1" style="stop-color:rgb(25,124,99);stop-opacity:1"/></linearGradient>
        <linearGradient id="_Linear26" x1="0" y1="0" x2="1" y2="0" gradientUnits="userSpaceOnUse" gradientTransform="matrix(30.300951,0,0,-28.479357,2061.344316,1649.315247)"><stop offset="0" style="stop-color:rgb(63,146,125);stop-opacity:1"/><stop offset="1" style="stop-color:rgb(25,124,99);stop-opacity:1"/></linearGradient>
        <linearGradient id="_Linear27" x1="0" y1="0" x2="1" y2="0" gradientUnits="userSpaceOnUse" gradientTransform="matrix(30.300951,0,0,-28.479357,2061.344316,1649.315247)"><stop offset="0" style="stop-color:rgb(63,146,125);stop-opacity:1"/><stop offset="1" style="stop-color:rgb(25,124,99);stop-opacity:1"/></linearGradient>
        <linearGradient id="_Linear28" x1="0" y1="0" x2="1" y2="0" gradientUnits="userSpaceOnUse" gradientTransform="matrix(30.300951,0,0,-28.479357,2061.344316,1649.315247)"><stop offset="0" style="stop-color:rgb(63,146,125);stop-opacity:1"/><stop offset="1" style="stop-color:rgb(25,124,99);stop-opacity:1"/></linearGradient>
        <linearGradient id="_Linear29" x1="0" y1="0" x2="1" y2="0" gradientUnits="userSpaceOnUse" gradientTransform="matrix(30.300951,0,0,-28.479357,2061.344316,1649.315247)"><stop offset="0" style="stop-color:rgb(63,146,125);stop-opacity:1"/><stop offset="1" style="stop-color:rgb(25,124,99);stop-opacity:1"/></linearGradient>
        <linearGradient id="_Linear30" x1="0" y1="0" x2="1" y2="0" gradientUnits="userSpaceOnUse" gradientTransform="matrix(30.300951,0,0,-28.479357,2061.344316,1649.315247)"><stop offset="0" style="stop-color:rgb(63,146,125);stop-opacity:1"/><stop offset="1" style="stop-color:rgb(25,124,99);stop-opacity:1"/></linearGradient>
        <linearGradient id="_Linear31" x1="0" y1="0" x2="1" y2="0" gradientUnits="userSpaceOnUse" gradientTransform="matrix(30.300951,0,0,-28.479357,2061.344316,1649.315247)"><stop offset="0" style="stop-color:rgb(63,146,125);stop-opacity:1"/><stop offset="1" style="stop-color:rgb(25,124,99);stop-opacity:1"/></linearGradient>
        <linearGradient id="_Linear32" x1="0" y1="0" x2="1" y2="0" gradientUnits="userSpaceOnUse" gradientTransform="matrix(30.300951,0,0,-28.479357,2061.344316,1649.315247)"><stop offset="0" style="stop-color:rgb(63,146,125);stop-opacity:1"/><stop offset="1" style="stop-color:rgb(25,124,99);stop-opacity:1"/></linearGradient>
        <linearGradient id="_Linear33" x1="0" y1="0" x2="1" y2="0" gradientUnits="userSpaceOnUse" gradientTransform="matrix(30.300951,0,0,-28.479357,2061.344316,1649.315247)"><stop offset="0" style="stop-color:rgb(63,146,125);stop-opacity:1"/><stop offset="1" style="stop-color:rgb(25,124,99);stop-opacity:1"/></linearGradient>
        <linearGradient id="_Linear34" x1="0" y1="0" x2="1" y2="0" gradientUnits="userSpaceOnUse" gradientTransform="matrix(30.300951,0,0,-28.479357,2061.344316,1649.315247)"><stop offset="0" style="stop-color:rgb(63,146,125);stop-opacity:1"/><stop offset="1" style="stop-color:rgb(25,124,99);stop-opacity:1"/></linearGradient>
        <linearGradient id="_Linear35" x1="0" y1="0" x2="1" y2="0" gradientUnits="userSpaceOnUse" gradientTransform="matrix(30.300951,0,0,-28.479357,2061.344316,1649.315247)"><stop offset="0" style="stop-color:rgb(63,146,125);stop-opacity:1"/><stop offset="1" style="stop-color:rgb(25,124,99);stop-opacity:1"/></linearGradient>
        <linearGradient id="_Linear36" x1="0" y1="0" x2="1" y2="0" gradientUnits="userSpaceOnUse" gradientTransform="matrix(30.300951,0,0,-28.479357,2061.344316,1649.315247)"><stop offset="0" style="stop-color:rgb(63,146,125);stop-opacity:1"/><stop offset="1" style="stop-color:rgb(25,124,99);stop-opacity:1"/></linearGradient>
        <linearGradient id="_Linear37" x1="0" y1="0" x2="1" y2="0" gradientUnits="userSpaceOnUse" gradientTransform="matrix(-134.440264,197.822707,-197.822707,-134.440264,1664.450798,1549.34153)"><stop offset="0" style="stop-color:rgb(182,182,182);stop-opacity:1"/><stop offset="1" style="stop-color:rgb(225,225,225);stop-opacity:1"/></linearGradient>
        <linearGradient id="_Linear38" x1="0" y1="0" x2="1" y2="0" gradientUnits="userSpaceOnUse" gradientTransform="matrix(30.300951,0,0,-28.479357,2061.344316,1649.315247)"><stop offset="0" style="stop-color:rgb(63,146,125);stop-opacity:1"/><stop offset="1" style="stop-color:rgb(25,124,99);stop-opacity:1"/></linearGradient>
        <linearGradient id="_Linear39" x1="0" y1="0" x2="1" y2="0" gradientUnits="userSpaceOnUse" gradientTransform="matrix(30.300951,0,0,-28.479357,2061.344316,1649.315247)"><stop offset="0" style="stop-color:rgb(63,146,125);stop-opacity:1"/><stop offset="1" style="stop-color:rgb(25,124,99);stop-opacity:1"/></linearGradient>
        <linearGradient id="_Linear40" x1="0" y1="0" x2="1" y2="0" gradientUnits="userSpaceOnUse" gradientTransform="matrix(30.300951,0,0,-28.479357,2061.344316,1649.315247)"><stop offset="0" style="stop-color:rgb(63,146,125);stop-opacity:1"/><stop offset="1" style="stop-color:rgb(25,124,99);stop-opacity:1"/></linearGradient>
        <linearGradient id="_Linear41" x1="0" y1="0" x2="1" y2="0" gradientUnits="userSpaceOnUse" gradientTransform="matrix(30.300951,0,0,-28.479357,2061.344316,1649.315247)"><stop offset="0" style="stop-color:rgb(63,146,125);stop-opacity:1"/><stop offset="1" style="stop-color:rgb(25,124,99);stop-opacity:1"/></linearGradient>
        <linearGradient id="_Linear42" x1="0" y1="0" x2="1" y2="0" gradientUnits="userSpaceOnUse" gradientTransform="matrix(30.300951,0,0,-28.479357,2061.344316,1649.315247)"><stop offset="0" style="stop-color:rgb(63,146,125);stop-opacity:1"/><stop offset="1" style="stop-color:rgb(25,124,99);stop-opacity:1"/></linearGradient>
        <linearGradient id="_Linear43" x1="0" y1="0" x2="1" y2="0" gradientUnits="userSpaceOnUse" gradientTransform="matrix(30.300951,0,0,-28.479357,2061.344316,1649.315247)"><stop offset="0" style="stop-color:rgb(63,146,125);stop-opacity:1"/><stop offset="1" style="stop-color:rgb(25,124,99);stop-opacity:1"/></linearGradient>
        <linearGradient id="_Linear44" x1="0" y1="0" x2="1" y2="0" gradientUnits="userSpaceOnUse" gradientTransform="matrix(30.300951,0,0,-28.479357,2061.344316,1649.315247)"><stop offset="0" style="stop-color:rgb(63,146,125);stop-opacity:1"/><stop offset="1" style="stop-color:rgb(25,124,99);stop-opacity:1"/></linearGradient>
        <linearGradient id="_Linear45" x1="0" y1="0" x2="1" y2="0" gradientUnits="userSpaceOnUse" gradientTransform="matrix(30.300951,0,0,-28.479357,2061.344316,1649.315247)"><stop offset="0" style="stop-color:rgb(63,146,125);stop-opacity:1"/><stop offset="1" style="stop-color:rgb(25,124,99);stop-opacity:1"/></linearGradient>
        <linearGradient id="_Linear46" x1="0" y1="0" x2="1" y2="0" gradientUnits="userSpaceOnUse" gradientTransform="matrix(30.300951,0,0,-28.479357,2061.344316,1649.315247)"><stop offset="0" style="stop-color:rgb(63,146,125);stop-opacity:1"/><stop offset="1" style="stop-color:rgb(25,124,99);stop-opacity:1"/></linearGradient>
        <linearGradient id="_Linear47" x1="0" y1="0" x2="1" y2="0" gradientUnits="userSpaceOnUse" gradientTransform="matrix(30.300951,0,0,-28.479357,2061.344316,1649.315247)"><stop offset="0" style="stop-color:rgb(63,146,125);stop-opacity:1"/><stop offset="1" style="stop-color:rgb(25,124,99);stop-opacity:1"/></linearGradient>
        <linearGradient id="_Linear48" x1="0" y1="0" x2="1" y2="0" gradientUnits="userSpaceOnUse" gradientTransform="matrix(30.300951,0,0,-28.479357,2061.344316,1649.315247)"><stop offset="0" style="stop-color:rgb(63,146,125);stop-opacity:1"/><stop offset="1" style="stop-color:rgb(25,124,99);stop-opacity:1"/></linearGradient>
        <linearGradient id="_Linear49" x1="0" y1="0" x2="1" y2="0" gradientUnits="userSpaceOnUse" gradientTransform="matrix(30.300951,0,0,-28.479357,2061.344316,1649.315247)"><stop offset="0" style="stop-color:rgb(63,146,125);stop-opacity:1"/><stop offset="1" style="stop-color:rgb(25,124,99);stop-opacity:1"/></linearGradient>
        <linearGradient id="_Linear50" x1="0" y1="0" x2="1" y2="0" gradientUnits="userSpaceOnUse" gradientTransform="matrix(30.300951,0,0,-28.479357,2061.344316,1649.315247)"><stop offset="0" style="stop-color:rgb(63,146,125);stop-opacity:1"/><stop offset="1" style="stop-color:rgb(25,124,99);stop-opacity:1"/></linearGradient>
        <linearGradient id="_Linear51" x1="0" y1="0" x2="1" y2="0" gradientUnits="userSpaceOnUse" gradientTransform="matrix(30.300951,0,0,-28.479357,2061.344316,1649.315247)"><stop offset="0" style="stop-color:rgb(63,146,125);stop-opacity:1"/><stop offset="1" style="stop-color:rgb(25,124,99);stop-opacity:1"/></linearGradient>
    </defs>
</svg>
