<?xml version="1.0" encoding="UTF-8" standalone="no"?>
<svg
   width="100%"
   height="100%"
   viewBox="0 0 748 58"
   version="1.1"
   xml:space="preserve"
   style="fill-rule:evenodd;clip-rule:evenodd;stroke-linejoin:round;stroke-miterlimit:1.5;"
   id="svg54"
   sodipodi:docname="REM.svg"
   inkscape:version="1.3 (0e150ed6c4, 2023-07-21)"
   xmlns:inkscape="http://www.inkscape.org/namespaces/inkscape"
   xmlns:sodipodi="http://sodipodi.sourceforge.net/DTD/sodipodi-0.dtd"
   xmlns="http://www.w3.org/2000/svg"
   xmlns:svg="http://www.w3.org/2000/svg"><defs
   id="defs54">&#10;        &#10;    &#10;            &#10;            &#10;        &#10;                &#10;                &#10;                &#10;                &#10;                &#10;                &#10;                &#10;                &#10;                &#10;                &#10;                &#10;                &#10;                &#10;            &#10;                &#10;                &#10;                &#10;                &#10;                &#10;                &#10;                &#10;                &#10;                &#10;                &#10;                &#10;                &#10;                &#10;            &#10;                    &#10;                &#10;                    &#10;                &#10;                    &#10;                    &#10;                    &#10;                    &#10;                &#10;                    &#10;                &#10;                    &#10;                    &#10;                    &#10;                    &#10;                &#10;                    &#10;                &#10;                    &#10;                &#10;                    &#10;                &#10;                    &#10;                    &#10;                    &#10;                    &#10;                &#10;                    &#10;                &#10;                    &#10;                &#10;                    &#10;                &#10;                    &#10;                &#10;                    &#10;                &#10;                    &#10;                &#10;                    &#10;                &#10;                    &#10;                &#10;                    &#10;                &#10;                    &#10;                    &#10;                    &#10;                    &#10;                &#10;                    &#10;                &#10;                    &#10;                &#10;                    &#10;                &#10;                    &#10;                    &#10;                    &#10;                    &#10;                &#10;                    &#10;                &#10;                    &#10;                &#10;                    &#10;                    &#10;                    &#10;                    &#10;                &#10;                        &#10;                    &#10;                        &#10;                    &#10;                        &#10;                    &#10;                        &#10;                    &#10;                        &#10;                    &#10;                        &#10;                    &#10;                        &#10;                    &#10;                        &#10;                    &#10;                        &#10;                    &#10;                        &#10;                    &#10;                        &#10;                    &#10;                        &#10;                    &#10;                        &#10;                    &#10;                        &#10;                    &#10;                        &#10;                    &#10;                        &#10;                    &#10;                        &#10;                    &#10;                        &#10;                    &#10;                        &#10;                    &#10;                        &#10;                    &#10;                        &#10;                    &#10;                        &#10;                    &#10;                        &#10;                    &#10;                        &#10;                    </defs><sodipodi:namedview
   id="namedview54"
   pagecolor="#ffffff"
   bordercolor="#000000"
   borderopacity="0.25"
   inkscape:showpageshadow="2"
   inkscape:pageopacity="0.0"
   inkscape:pagecheckerboard="0"
   inkscape:deskcolor="#d1d1d1"
   inkscape:zoom="0.90909091"
   inkscape:cx="319"
   inkscape:cy="17.05"
   inkscape:window-width="1920"
   inkscape:window-height="1009"
   inkscape:window-x="-8"
   inkscape:window-y="-8"
   inkscape:window-maximized="1"
   inkscape:current-layer="svg54" />&#10;    <path
   d="M 4.2670184,41.040224 C 4.2428327,35.90012 5.056237,28.428002 5.5883231,24.390258 L 7.5270003,5.198244 C 7.8515983,3.3461262 8.2047104,2.2374469 9.0384816,1.3311185"
   style="fill:none;stroke:#808080;stroke-width:1.273;stroke-dasharray:none"
   id="path23"
   sodipodi:nodetypes="cccc" /><path
   d="m 743.3067,41.059952 c 0.0242,-5.140104 -0.78922,-12.612222 -1.3213,-16.649966 L 740.04672,5.2179725 c -0.3246,-1.852118 -0.67771,-2.960797 -1.51148,-3.867125"
   style="clip-rule:evenodd;fill:none;fill-rule:evenodd;stroke:#808080;stroke-width:1.273;stroke-linejoin:round;stroke-miterlimit:1.5;stroke-dasharray:none"
   id="path23-0"
   sodipodi:nodetypes="cccc" /><path
   id="path1"
   style="fill:#424242;stroke-width:0.716928"
   d="M 15.738281 0.00390625 C 14.653122 -0.0042101919 14.164556 0.39446916 14.265625 1.1933594 L 14.265625 5.7617188 L 16.923828 8.015625 C 16.923828 8.015625 15.293504 15.680309 14.265625 21.876953 L 14.265625 57.009766 L 371.78125 57.009766 L 371.78125 1.2636719 C 371.71564 0.34477416 370.97443 -0.04595192 369.67383 0.00390625 L 15.738281 0.00390625 z M 86.484375 7.4238281 L 119.27734 7.4238281 C 120.38724 7.4238281 121.28906 8.3235723 121.28906 9.4335938 L 121.28906 25.990234 C 121.28906 27.100256 120.38724 28 119.27734 28 L 86.484375 28 C 85.374486 28 84.474609 27.100256 84.474609 25.990234 L 84.474609 9.4335938 C 84.474609 8.3235723 85.374486 7.4238281 86.484375 7.4238281 z M 128.57422 7.4238281 L 161.36719 7.4238281 C 162.47709 7.4238281 163.37891 8.3235723 163.37891 9.4335938 L 163.37891 25.990234 C 163.37891 27.100256 162.47709 28 161.36719 28 L 128.57422 28 C 127.46432 28 126.56445 27.100256 126.56445 25.990234 L 126.56445 9.4335938 C 126.56445 8.3235723 127.46432 7.4238281 128.57422 7.4238281 z M 221.16992 7.4238281 L 253.96289 7.4238281 C 255.07278 7.4238281 255.97461 8.3235723 255.97461 9.4335938 L 255.97461 25.990234 C 255.97461 27.100256 255.07278 28 253.96289 28 L 221.16992 28 C 220.06002 28 219.16016 27.100256 219.16016 25.990234 L 219.16016 9.4335938 C 219.16016 8.3235723 220.06002 7.4238281 221.16992 7.4238281 z M 263.25977 7.4238281 L 296.05273 7.4238281 C 297.16263 7.4238281 298.06445 8.3235723 298.06445 9.4335938 L 298.06445 25.990234 C 298.06445 27.100256 297.16263 28 296.05273 28 L 263.25977 28 C 262.14987 28 261.25 27.100256 261.25 25.990234 L 261.25 9.4335938 C 261.25 8.3235723 262.14987 7.4238281 263.25977 7.4238281 z M 43.041016 8.9160156 L 52.634766 8.9160156 C 53.278005 8.9160156 53.798828 9.4369696 53.798828 10.080078 L 53.798828 25.34375 C 53.798828 25.986858 53.278005 26.507812 52.634766 26.507812 L 43.041016 26.507812 C 42.397756 26.507813 41.875 25.986858 41.875 25.34375 L 41.875 10.080078 C 41.875 9.4369696 42.397756 8.9160156 43.041016 8.9160156 z M 61.095703 8.9160156 L 70.691406 8.9160156 C 71.334656 8.9160156 71.855469 9.4369696 71.855469 10.080078 L 71.855469 25.34375 C 71.855469 25.986858 71.334656 26.507812 70.691406 26.507812 L 61.095703 26.507812 C 60.452444 26.507813 59.931641 25.986858 59.931641 25.34375 L 59.931641 10.080078 C 59.931641 9.4369696 60.452444 8.9160156 61.095703 8.9160156 z M 177.72656 8.9160156 L 187.32031 8.9160156 C 187.96356 8.9160156 188.48438 9.4369696 188.48438 10.080078 L 188.48438 25.34375 C 188.48437 25.986858 187.96356 26.507812 187.32031 26.507812 L 177.72656 26.507812 C 177.08331 26.507813 176.56055 25.986858 176.56055 25.34375 L 176.56055 10.080078 C 176.56055 9.4369696 177.08331 8.9160156 177.72656 8.9160156 z M 195.7832 8.9160156 L 205.37695 8.9160156 C 206.0202 8.9160156 206.54102 9.4369696 206.54102 10.080078 L 206.54102 25.34375 C 206.54102 25.986858 206.0202 26.507812 205.37695 26.507812 L 195.7832 26.507812 C 195.13995 26.507813 194.61719 25.986858 194.61719 25.34375 L 194.61719 10.080078 C 194.61719 9.4369696 195.13995 8.9160156 195.7832 8.9160156 z M 312.14062 8.9160156 L 321.73438 8.9160156 C 322.37761 8.9160156 322.90039 9.4369696 322.90039 10.080078 L 322.90039 25.34375 C 322.90039 25.986858 322.37761 26.507812 321.73438 26.507812 L 312.14062 26.507812 C 311.4974 26.507813 310.97656 25.986858 310.97656 25.34375 L 310.97656 10.080078 C 310.97656 9.4369696 311.4974 8.9160156 312.14062 8.9160156 z M 330.19727 8.9160156 L 339.79102 8.9160156 C 340.43425 8.9160156 340.95703 9.4369696 340.95703 10.080078 L 340.95703 25.34375 C 340.95703 25.986858 340.43425 26.507812 339.79102 26.507812 L 330.19727 26.507812 C 329.55402 26.507813 329.0332 25.986858 329.0332 25.34375 L 329.0332 10.080078 C 329.0332 9.4369696 329.55403 8.9160156 330.19727 8.9160156 z " /><path
   d="m 369.67404,29.764769 c 1.3006,-0.02383 2.04177,0.162649 2.10738,0.601829 V 57.010312 H 14.266396 V 30.333071 C 14.165327,29.951247 14.65294,29.760889 15.7381,29.764769 Z"
   style="fill:#ffffff;stroke-width:0.495636"
   id="path2" /><path
   d="m 14.2669,43.3862 h 357.515"
   style="fill:none;stroke:#81bd00;stroke-width:3px"
   id="path3" /><rect
   x="38.809589"
   y="3.5240393"
   width="18.056608"
   height="52.477634"
   style="fill:#787878;fill-opacity:0.21;stroke:#c8c8c8;stroke-width:1.97721px"
   id="rect7" /><rect
   x="56.866089"
   y="3.5240393"
   width="18.056608"
   height="52.477634"
   style="fill:#787878;fill-opacity:0.21;stroke:#c8c8c8;stroke-width:1.97721px"
   id="rect8" /><rect
   x="173.49529"
   y="3.5240393"
   width="18.056608"
   height="52.477634"
   style="fill:#787878;fill-opacity:0.21;stroke:#c8c8c8;stroke-width:1.97721px"
   id="rect12" /><rect
   x="191.55179"
   y="3.5240393"
   width="18.056608"
   height="52.477634"
   style="fill:#787878;fill-opacity:0.21;stroke:#c8c8c8;stroke-width:1.97721px"
   id="rect13" /><rect
   x="307.91049"
   y="3.5240393"
   width="18.056608"
   height="52.477634"
   style="fill:#787878;fill-opacity:0.21;stroke:#c8c8c8;stroke-width:1.97721px"
   id="rect17" /><rect
   x="325.96698"
   y="3.5240393"
   width="18.056608"
   height="52.477634"
   style="fill:#787878;fill-opacity:0.21;stroke:#c8c8c8;stroke-width:1.97721px"
   id="rect18" /><path
   id="path22"
   style="fill:#81bd00;stroke-width:1.27293"
   d="M 10.740234 0.00390625 C 9.8306401 -0.027388308 9.1197975 0.31141055 8.5566406 0.92382812 L 16.923828 8.015625 C 16.923828 8.015625 13.752525 22.831669 13.464844 27.904297 C 13.177161 32.976926 13.177734 33.726563 13.177734 33.726562 C 13.177734 33.726562 13.636736 36.130658 11.619141 36.974609 C 10.17662 37.577569 5.9367143 39.813959 3.6367188 41.039062 C 3.649643 43.630255 3.8694756 45.641189 4.453125 46.300781 L 9.5039062 53.402344 L 19.453125 37.886719 L 31.269531 0.00390625 L 10.740234 0.00390625 z M 8.5410156 0.94140625 C 8.1479121 1.3747133 7.8338113 1.9552943 7.5722656 2.6328125 C 7.8337413 1.9548182 8.1477904 1.37433 8.5410156 0.94140625 z M 7.5058594 2.8046875 C 7.250655 3.5094101 7.0463474 4.3101061 6.890625 5.1992188 C 7.046445 4.3101283 7.2507852 3.5097715 7.5058594 2.8046875 z M 4.953125 24.390625 C 4.696391 26.336506 4.3791693 29.098198 4.1171875 31.994141 C 4.3788584 29.107735 4.6974563 26.330771 4.953125 24.390625 z M 4.0761719 32.445312 C 3.8178016 35.389515 3.6292362 38.425414 3.6367188 40.943359 C 3.6295002 38.431395 3.818681 35.381944 4.0761719 32.445312 z " /><path
   d="M 2.3937288,57.009592 C 0.72866137,57.054572 -0.12399398,56.50415 0.03949451,55.212728 L 0.00595841,51.511283 C -0.06782101,50.324027 0.59116336,49.0693 2.0407613,47.738816 l 17.9937947,-10.76461 0.0109,17.476216 h -0.0109 v 2.55917 z"
   style="fill:#ffffff;stroke-width:0.996203"
   id="path24" /><path
   id="path26"
   style="fill:#424242;stroke-width:0.716928"
   d="m 377.91602,0.00390625 c -1.3006,-0.04985817 -2.04182,0.34086791 -2.10743,1.25976565 V 57.009766 H 733.32422 L 726.03218,6.90313 733.32422,1.1933594 c 0.10107,-0.79889024 -0.3875,-1.19756959 -1.47266,-1.18945315 z m 73.62109,7.41992185 h 32.79297 c 1.1099,0 2.00976,0.8997438 2.00976,2.0097657 V 25.990234 C 486.33984,27.100256 485.43998,28 484.33008,28 h -32.79297 c -1.1099,0 -2.01172,-0.899744 -2.01172,-2.009766 V 9.4335938 c 0,-1.1100219 0.90182,-2.0097657 2.01172,-2.0097657 z m 42.08984,0 h 32.79297 c 1.1099,0 2.00977,0.8997438 2.00977,2.0097657 V 25.990234 C 528.42969,27.100256 527.52982,28 526.41992,28 h -32.79297 c -1.1099,0 -2.00976,-0.899744 -2.00976,-2.009766 V 9.4335938 c 0,-1.1100219 0.89986,-2.0097657 2.00976,-2.0097657 z m 92.59571,0 h 32.79296 c 1.1099,0 2.00977,0.8997438 2.00977,2.0097657 V 25.990234 C 621.02539,27.100256 620.12552,28 619.01562,28 h -32.79296 c -1.10991,0 -2.01172,-0.899744 -2.01172,-2.009766 V 9.4335938 c 0,-1.1100219 0.90181,-2.0097657 2.01172,-2.0097657 z m 42.08984,0 h 32.79297 c 1.1099,0 2.00976,0.8997438 2.00976,2.0097657 V 25.990234 C 663.11523,27.100256 662.21537,28 661.10547,28 H 628.3125 c -1.10989,0 -2.00977,-0.899744 -2.00977,-2.009766 V 9.4335938 c 0,-1.1100219 0.89988,-2.0097657 2.00977,-2.0097657 z M 407.79883,8.9160156 h 9.59375 c 0.64326,0 1.16601,0.5209541 1.16601,1.1640624 V 25.34375 c 0,0.643108 -0.52275,1.164062 -1.16601,1.164062 h -9.59375 c -0.64325,10e-7 -1.16602,-0.520954 -1.16602,-1.164062 V 10.080078 c 0,-0.6431083 0.52277,-1.1640624 1.16602,-1.1640624 z m 18.05664,0 h 9.59375 c 0.64324,0 1.16601,0.5209541 1.16601,1.1640624 V 25.34375 c 0,0.643108 -0.52277,1.164062 -1.16601,1.164062 h -9.59375 c -0.64326,10e-7 -1.16602,-0.520954 -1.16602,-1.164062 V 10.080078 c 0,-0.6431083 0.52276,-1.1640624 1.16602,-1.1640624 z m 116.35742,0 h 9.5957 c 0.64326,0 1.16407,0.5209541 1.16407,1.1640624 V 25.34375 c 0,0.643108 -0.52082,1.164062 -1.16407,1.164062 h -9.5957 c -0.64324,10e-7 -1.16406,-0.520954 -1.16406,-1.164062 V 10.080078 c 0,-0.6431083 0.52081,-1.1640624 1.16406,-1.1640624 z m 18.05664,0 h 9.5957 c 0.64326,0 1.16407,0.5209541 1.16407,1.1640624 V 25.34375 c 0,0.643108 -0.52082,1.164062 -1.16407,1.164062 h -9.5957 c -0.64326,10e-7 -1.16406,-0.520954 -1.16406,-1.164062 V 10.080078 c 0,-0.6431083 0.5208,-1.1640624 1.16406,-1.1640624 z m 116.63086,0 h 9.59375 c 0.64325,0 1.16406,0.5209541 1.16406,1.1640624 V 25.34375 c 0,0.643108 -0.52081,1.164062 -1.16406,1.164062 h -9.59375 c -0.64324,10e-7 -1.16601,-0.520954 -1.16601,-1.164062 V 10.080078 c -10e-6,-0.6431083 0.52275,-1.1640624 1.16601,-1.1640624 z m 18.05469,0 h 9.5957 c 0.64324,0 1.16406,0.5209541 1.16406,1.1640624 V 25.34375 c 0,0.643108 -0.52082,1.164062 -1.16406,1.164062 h -9.5957 c -0.64325,10e-7 -1.16406,-0.520954 -1.16406,-1.164062 V 10.080078 c 0,-0.6431083 0.52081,-1.1640624 1.16406,-1.1640624 z"
   sodipodi:nodetypes="ccccccccssssssssssssssssssssssssssssssssssssssssssssssssssssssssssssssssssssssssssssssscssssssssss" /><path
   d="m 377.91606,29.764769 c -1.3006,-0.02383 -2.04177,0.162649 -2.10738,0.601829 V 57.010312 H 733.3237 V 30.333071 c 0.10107,-0.381824 -0.38654,-0.572182 -1.4717,-0.568302 z"
   style="fill:#ffffff;stroke-width:0.495636"
   id="path27" /><path
   d="M 733.32369,43.386088 H 375.80874"
   style="fill:none;stroke:#81bd00;stroke-width:3px"
   id="path28" /><rect
   x="-708.78052"
   y="3.5240393"
   width="18.056608"
   height="52.477634"
   style="fill:#787878;fill-opacity:0.21;stroke:#c8c8c8;stroke-width:1.97721px"
   id="rect33"
   transform="scale(-1,1)" /><rect
   x="-690.724"
   y="3.5240393"
   width="18.056608"
   height="52.477634"
   style="fill:#787878;fill-opacity:0.21;stroke:#c8c8c8;stroke-width:1.97721px"
   id="rect34"
   transform="scale(-1,1)" /><rect
   x="-574.09479"
   y="3.5240393"
   width="18.056608"
   height="52.477634"
   style="fill:#787878;fill-opacity:0.21;stroke:#c8c8c8;stroke-width:1.97721px"
   id="rect38"
   transform="scale(-1,1)" /><rect
   x="-556.03833"
   y="3.5240393"
   width="18.056608"
   height="52.477634"
   style="fill:#787878;fill-opacity:0.21;stroke:#c8c8c8;stroke-width:1.97721px"
   id="rect39"
   transform="scale(-1,1)" /><rect
   x="-439.67963"
   y="3.5240393"
   width="18.056608"
   height="52.477634"
   style="fill:#787878;fill-opacity:0.21;stroke:#c8c8c8;stroke-width:1.97721px"
   id="rect43"
   transform="scale(-1,1)" /><rect
   x="-421.62311"
   y="3.5240393"
   width="18.056608"
   height="52.477634"
   style="fill:#787878;fill-opacity:0.21;stroke:#c8c8c8;stroke-width:1.97721px"
   id="rect44"
   transform="scale(-1,1)" /><path
   id="path48"
   style="fill:#81bd00;stroke-width:1.27293"
   d="M 716.32031 0.00390625 L 728.13672 37.886719 L 738.08789 53.402344 L 743.13672 46.300781 C 743.72037 45.641189 743.94215 43.630256 743.95508 41.039062 C 741.65545 39.814143 737.41357 37.57771 735.9707 36.974609 C 733.95311 36.130656 734.41406 33.726562 734.41406 33.726562 C 734.41406 33.726562 734.41268 32.976931 734.125 27.904297 C 733.83732 22.831664 730.66797 8.015625 730.66797 8.015625 L 739.0332 0.92382812 C 738.47005 0.31141055 737.7592 -0.027388308 736.84961 0.00390625 L 716.32031 0.00390625 z M 739.09375 0.99023438 C 739.1536 1.0586744 739.21116 1.1302524 739.26758 1.2050781 C 739.21125 1.1303423 739.1535 1.0586237 739.09375 0.99023438 z M 739.375 1.3515625 C 739.43866 1.4440036 739.49937 1.5418757 739.55859 1.6425781 C 739.49943 1.5419762 739.4386 1.4439406 739.375 1.3515625 z M 739.60938 1.7285156 C 739.68842 1.8689497 739.76658 2.015104 739.83789 2.1699219 C 739.76641 2.0147251 739.68863 1.869286 739.60938 1.7285156 z M 740.15039 2.9746094 C 740.16942 3.03056 740.18868 3.0853813 740.20703 3.1425781 C 740.18868 3.0854287 740.16941 3.0305146 740.15039 2.9746094 z M 740.45117 4.0097656 C 740.46772 4.0775349 740.48218 4.1477737 740.49805 4.2167969 C 740.48219 4.1478512 740.46771 4.0774582 740.45117 4.0097656 z M 742.63867 24.390625 C 742.75631 25.283353 742.88843 26.392421 743.02148 27.558594 C 742.88762 26.385151 742.75707 25.28801 742.63867 24.390625 z M 743.56445 33.005859 C 743.58943 33.302588 743.61341 33.598859 743.63672 33.896484 C 743.61318 33.595872 743.5897 33.305559 743.56445 33.005859 z M 743.83789 36.837891 C 743.87465 37.511039 743.90104 38.16664 743.92188 38.808594 C 743.90104 38.166945 743.87464 37.510728 743.83789 36.837891 z M 743.93555 39.339844 C 743.94767 39.824446 743.95462 40.297343 743.95508 40.751953 C 743.95465 40.295749 743.94773 39.826294 743.93555 39.339844 z " /><path
   d="m 745.19637,57.009592 c 1.66507,0.04498 2.51772,-0.505442 2.35424,-1.796864 l 0.0335,-3.701445 c 0.0738,-1.187256 -0.5852,-2.441983 -2.0348,-3.772467 l -17.9938,-10.76461 -0.0109,17.476216 h 0.0109 v 2.55917 z"
   style="fill:#ffffff;stroke-width:0.996203"
   id="path50" />&#10;<path
   id="path23-9-4"
   style="clip-rule:evenodd;fill:#787878;fill-rule:evenodd;stroke-width:1.27293;stroke-linejoin:round;stroke-miterlimit:1.5;fill-opacity:0.42745098"
   d="M 8.5527344 0.91992188 C 7.7189652 1.8262485 7.2152247 3.3471041 6.890625 5.1992188 L 4.953125 24.390625 C 4.4210455 28.428361 3.6066594 35.900923 3.6308594 41.041016 C 5.9297571 39.816457 10.175632 37.57798 11.619141 36.974609 C 13.636749 36.130658 13.177734 33.726562 13.177734 33.726562 C 13.177734 33.726563 13.177164 32.976926 13.464844 27.904297 C 13.752533 22.831669 16.923828 8.015625 16.923828 8.015625 L 8.5527344 0.91992188 z M 739.03711 0.91992188 L 730.66797 8.015625 C 730.66797 8.015625 733.83927 22.831664 734.12695 27.904297 C 734.41463 32.976931 734.41406 33.726562 734.41406 33.726562 C 734.41406 33.726562 733.95311 36.130656 735.9707 36.974609 C 737.41421 37.57798 741.66007 39.816455 743.95898 41.041016 C 743.98318 35.900917 743.17076 28.428365 742.63867 24.390625 L 740.69922 5.1992188 C 740.37462 3.3471028 739.87088 1.8262494 739.03711 0.91992188 z M 86.484375 7.4238281 C 85.374486 7.4238281 84.474609 8.3235723 84.474609 9.4335938 L 84.474609 25.990234 C 84.474609 27.100256 85.374486 28 86.484375 28 L 119.27734 28 C 120.38724 28 121.28906 27.100256 121.28906 25.990234 L 121.28906 9.4335938 C 121.28906 8.3235723 120.38724 7.4238281 119.27734 7.4238281 L 86.484375 7.4238281 z M 128.57422 7.4238281 C 127.46432 7.4238281 126.56445 8.3235723 126.56445 9.4335938 L 126.56445 25.990234 C 126.56445 27.100256 127.46432 28 128.57422 28 L 161.36719 28 C 162.47709 28 163.37891 27.100256 163.37891 25.990234 L 163.37891 9.4335938 C 163.37891 8.3235723 162.47709 7.4238281 161.36719 7.4238281 L 128.57422 7.4238281 z M 221.16992 7.4238281 C 220.06002 7.4238281 219.16016 8.3235723 219.16016 9.4335938 L 219.16016 25.990234 C 219.16016 27.100256 220.06002 28 221.16992 28 L 253.96289 28 C 255.07278 28 255.97461 27.100256 255.97461 25.990234 L 255.97461 9.4335938 C 255.97461 8.3235723 255.07278 7.4238281 253.96289 7.4238281 L 221.16992 7.4238281 z M 263.25977 7.4238281 C 262.14987 7.4238281 261.25 8.3235723 261.25 9.4335938 L 261.25 25.990234 C 261.25 27.100256 262.14987 28 263.25977 28 L 296.05273 28 C 297.16263 28 298.06445 27.100256 298.06445 25.990234 L 298.06445 9.4335938 C 298.06445 8.3235723 297.16263 7.4238281 296.05273 7.4238281 L 263.25977 7.4238281 z M 451.53711 7.4238281 C 450.42721 7.4238281 449.52539 8.3235723 449.52539 9.4335938 L 449.52539 25.990234 C 449.52539 27.100256 450.42721 28 451.53711 28 L 484.33008 28 C 485.43998 28 486.33984 27.100256 486.33984 25.990234 L 486.33984 9.4335938 C 486.33984 8.3235723 485.43998 7.4238281 484.33008 7.4238281 L 451.53711 7.4238281 z M 493.62695 7.4238281 C 492.51705 7.4238281 491.61719 8.3235723 491.61719 9.4335938 L 491.61719 25.990234 C 491.61719 27.100256 492.51705 28 493.62695 28 L 526.41992 28 C 527.52982 28 528.42969 27.100256 528.42969 25.990234 L 528.42969 9.4335938 C 528.42969 8.3235723 527.52982 7.4238281 526.41992 7.4238281 L 493.62695 7.4238281 z M 586.22266 7.4238281 C 585.11275 7.4238281 584.21094 8.3235723 584.21094 9.4335938 L 584.21094 25.990234 C 584.21094 27.100256 585.11275 28 586.22266 28 L 619.01562 28 C 620.12552 28 621.02539 27.100256 621.02539 25.990234 L 621.02539 9.4335938 C 621.02539 8.3235723 620.12552 7.4238281 619.01562 7.4238281 L 586.22266 7.4238281 z M 628.3125 7.4238281 C 627.20261 7.4238281 626.30273 8.3235723 626.30273 9.4335938 L 626.30273 25.990234 C 626.30273 27.100256 627.20261 28 628.3125 28 L 661.10547 28 C 662.21537 28 663.11523 27.100256 663.11523 25.990234 L 663.11523 9.4335938 C 663.11523 8.3235723 662.21537 7.4238281 661.10547 7.4238281 L 628.3125 7.4238281 z M 43.041016 8.9160156 C 42.397756 8.9160156 41.875 9.4369695 41.875 10.080078 L 41.875 25.34375 C 41.875 25.986858 42.397756 26.507813 43.041016 26.507812 L 52.634766 26.507812 C 53.278005 26.507812 53.798828 25.986858 53.798828 25.34375 L 53.798828 10.080078 C 53.798828 9.4369695 53.278005 8.9160156 52.634766 8.9160156 L 43.041016 8.9160156 z M 61.095703 8.9160156 C 60.452454 8.9160156 59.931641 9.4369695 59.931641 10.080078 L 59.931641 25.34375 C 59.931641 25.986858 60.452454 26.507813 61.095703 26.507812 L 70.691406 26.507812 C 71.334656 26.507812 71.855469 25.986858 71.855469 25.34375 L 71.855469 10.080078 C 71.855469 9.4369695 71.334656 8.9160156 70.691406 8.9160156 L 61.095703 8.9160156 z M 177.72656 8.9160156 C 177.08331 8.9160156 176.56055 9.4369695 176.56055 10.080078 L 176.56055 25.34375 C 176.56055 25.986858 177.08331 26.507813 177.72656 26.507812 L 187.32031 26.507812 C 187.96356 26.507812 188.48437 25.986858 188.48438 25.34375 L 188.48438 10.080078 C 188.48438 9.4369695 187.96356 8.9160156 187.32031 8.9160156 L 177.72656 8.9160156 z M 195.7832 8.9160156 C 195.13995 8.9160156 194.61719 9.4369695 194.61719 10.080078 L 194.61719 25.34375 C 194.61719 25.986858 195.13995 26.507813 195.7832 26.507812 L 205.37695 26.507812 C 206.0202 26.507812 206.54102 25.986858 206.54102 25.34375 L 206.54102 10.080078 C 206.54102 9.4369695 206.0202 8.9160156 205.37695 8.9160156 L 195.7832 8.9160156 z M 312.14062 8.9160156 C 311.49739 8.9160156 310.97656 9.4369695 310.97656 10.080078 L 310.97656 25.34375 C 310.97656 25.986858 311.49739 26.507813 312.14062 26.507812 L 321.73438 26.507812 C 322.3776 26.507812 322.90039 25.986858 322.90039 25.34375 L 322.90039 10.080078 C 322.90039 9.4369695 322.3776 8.9160156 321.73438 8.9160156 L 312.14062 8.9160156 z M 330.19727 8.9160156 C 329.55403 8.9160156 329.0332 9.4369695 329.0332 10.080078 L 329.0332 25.34375 C 329.0332 25.986858 329.55402 26.507813 330.19727 26.507812 L 339.79102 26.507812 C 340.43425 26.507812 340.95703 25.986858 340.95703 25.34375 L 340.95703 10.080078 C 340.95703 9.4369695 340.43425 8.9160156 339.79102 8.9160156 L 330.19727 8.9160156 z M 407.79883 8.9160156 C 407.15558 8.9160156 406.63281 9.4369695 406.63281 10.080078 L 406.63281 25.34375 C 406.63281 25.986858 407.15558 26.507813 407.79883 26.507812 L 417.39258 26.507812 C 418.03584 26.507812 418.55859 25.986858 418.55859 25.34375 L 418.55859 10.080078 C 418.55859 9.4369695 418.03584 8.9160156 417.39258 8.9160156 L 407.79883 8.9160156 z M 425.85547 8.9160156 C 425.21221 8.9160156 424.68945 9.4369695 424.68945 10.080078 L 424.68945 25.34375 C 424.68945 25.986858 425.21221 26.507813 425.85547 26.507812 L 435.44922 26.507812 C 436.09246 26.507812 436.61523 25.986858 436.61523 25.34375 L 436.61523 10.080078 C 436.61523 9.4369695 436.09246 8.9160156 435.44922 8.9160156 L 425.85547 8.9160156 z M 542.21289 8.9160156 C 541.56964 8.9160156 541.04883 9.4369695 541.04883 10.080078 L 541.04883 25.34375 C 541.04883 25.986858 541.56965 26.507813 542.21289 26.507812 L 551.80859 26.507812 C 552.45184 26.507812 552.97266 25.986858 552.97266 25.34375 L 552.97266 10.080078 C 552.97266 9.4369695 552.45185 8.9160156 551.80859 8.9160156 L 542.21289 8.9160156 z M 560.26953 8.9160156 C 559.62627 8.9160156 559.10547 9.4369695 559.10547 10.080078 L 559.10547 25.34375 C 559.10547 25.986858 559.62627 26.507813 560.26953 26.507812 L 569.86523 26.507812 C 570.50848 26.507812 571.0293 25.986858 571.0293 25.34375 L 571.0293 10.080078 C 571.0293 9.4369695 570.50849 8.9160156 569.86523 8.9160156 L 560.26953 8.9160156 z M 676.90039 8.9160156 C 676.25713 8.9160156 675.73437 9.4369695 675.73438 10.080078 L 675.73438 25.34375 C 675.73438 25.986858 676.25715 26.507813 676.90039 26.507812 L 686.49414 26.507812 C 687.13739 26.507812 687.6582 25.986858 687.6582 25.34375 L 687.6582 10.080078 C 687.6582 9.4369695 687.13739 8.9160156 686.49414 8.9160156 L 676.90039 8.9160156 z M 694.95508 8.9160156 C 694.31183 8.9160156 693.79102 9.4369695 693.79102 10.080078 L 693.79102 25.34375 C 693.79102 25.986858 694.31183 26.507813 694.95508 26.507812 L 704.55078 26.507812 C 705.19402 26.507812 705.71484 25.986858 705.71484 25.34375 L 705.71484 10.080078 C 705.71484 9.4369695 705.19402 8.9160156 704.55078 8.9160156 L 694.95508 8.9160156 z " /></svg>
