<?xml version="1.0" encoding="UTF-8" standalone="no"?>
<svg
   width="4840"
   height="1353.7981"
   viewBox="0 0 4840 1353.7981"
   version="1.1"
   xml:space="preserve"
   style="clip-rule:evenodd;fill-rule:evenodd;stroke-linejoin:round;stroke-miterlimit:2"
   id="svg21"
   sodipodi:docname="Skyline.svg"
   inkscape:version="1.3 (0e150ed6c4, 2023-07-21)"
   xmlns:inkscape="http://www.inkscape.org/namespaces/inkscape"
   xmlns:sodipodi="http://sodipodi.sourceforge.net/DTD/sodipodi-0.dtd"
   xmlns="http://www.w3.org/2000/svg"
   xmlns:svg="http://www.w3.org/2000/svg"><defs
   id="defs21" /><sodipodi:namedview
   id="namedview21"
   pagecolor="#ffffff"
   bordercolor="#000000"
   borderopacity="0.25"
   inkscape:showpageshadow="2"
   inkscape:pageopacity="0.0"
   inkscape:pagecheckerboard="0"
   inkscape:deskcolor="#d1d1d1"
   inkscape:zoom="0.099345581"
   inkscape:cx="1348.827"
   inkscape:cy="1605.5067"
   inkscape:window-width="1920"
   inkscape:window-height="1009"
   inkscape:window-x="-8"
   inkscape:window-y="-8"
   inkscape:window-maximized="1"
   inkscape:current-layer="svg21" />&#10;    <g
   id="Mountains"
   transform="translate(500)">&#10;        <g
   transform="matrix(1.367584,0,0,1.378532,2576.3989,-170.86405)"
   id="g1">&#10;            <path
   d="m -356.503,942.235 c 170.065,-57.977 792.35,-494.736 834.866,-525.657 42.517,-30.921 104.359,3.865 150.74,65.707 46.382,61.842 614.555,560.743 703.453,576.204 88.897,15.46 156.032,51.804 156.032,51.804 l -2038.348,20.254 c 0,0 23.191,-130.335 193.257,-188.312 z"
   style="fill:#d0c6da"
   id="path1" />&#10;        </g>&#10;        <g
   transform="matrix(1.342933,0,0,1.670607,2017.8645,-513.36084)"
   id="g2">&#10;            <path
   d="m -356.503,942.235 c 170.065,-57.977 792.35,-494.736 834.866,-525.657 42.517,-30.921 104.359,3.865 150.74,65.707 46.382,61.842 614.555,510.196 703.453,525.657 88.897,15.46 156.032,112.977 156.032,112.977 l -2038.348,20.253 c 0,0 23.191,-140.96 193.257,-198.937 z"
   style="fill:#cab8de"
   id="path2" />&#10;        </g>&#10;        <g
   transform="matrix(1.342933,0,0,1.670607,294.0195,-389.67689)"
   id="g3">&#10;            <path
   d="m -356.503,942.235 c 170.065,-57.977 792.35,-494.736 834.866,-525.657 42.517,-30.921 104.359,3.865 150.74,65.707 46.382,61.842 614.555,510.196 703.453,525.657 88.897,15.46 156.032,51.805 156.032,51.805 L -549.76,1080 c 0,0 23.191,-79.788 193.257,-137.765 z"
   style="fill:#e5d7f5"
   id="path3" />&#10;        </g>&#10;        <g
   transform="matrix(1.367584,0,0,1.378532,1235.201,-197.91992)"
   id="g4">&#10;            <path
   d="m -356.503,942.235 c 170.065,-57.977 792.35,-494.736 834.866,-525.657 42.517,-30.921 104.359,3.865 150.74,65.707 46.382,61.842 614.555,510.196 703.453,525.657 88.897,15.46 156.032,131.722 156.032,131.722 l -2038.348,20.254 c 0,0 23.191,-159.706 193.257,-217.683 z"
   style="fill:#d0c6da"
   id="path4" />&#10;        </g>&#10;    </g>&#10;    <g
   id="Skyline"
   transform="translate(500)">&#10;        <g
   transform="matrix(0.803508,0,0,0.780538,105.65162,395.18867)"
   id="g5">&#10;            <rect
   x="2154.623"
   y="338.121"
   width="290.58899"
   height="920.604"
   style="fill:#a9a58e"
   id="rect4" />&#10;        </g>&#10;        <g
   transform="matrix(0.803508,0,0,0.963304,362.91447,165.13688)"
   id="g6">&#10;            <rect
   x="2154.623"
   y="338.121"
   width="290.58899"
   height="920.604"
   style="fill:#e0dfda"
   id="rect5" />&#10;        </g>&#10;        <g
   transform="matrix(0.803508,0,0,0.748836,707.2509,431.58954)"
   id="g7">&#10;            <rect
   x="2154.623"
   y="338.121"
   width="290.58899"
   height="920.604"
   style="fill:#c8c3a8"
   id="rect6" />&#10;        </g>&#10;        <g
   transform="matrix(0.803508,0,0,0.548445,529.14585,683.82738)"
   id="g8">&#10;            <rect
   x="2154.623"
   y="338.121"
   width="290.58899"
   height="920.604"
   style="fill:#a9a58e"
   id="rect7" />&#10;        </g>&#10;        <g
   transform="matrix(0.803508,0,0,0.82623,-220.87436,343.68482)"
   id="g9">&#10;            <rect
   x="2154.623"
   y="338.121"
   width="290.58899"
   height="920.604"
   style="fill:#c8c3a8"
   id="rect8" />&#10;        </g>&#10;        <g
   transform="matrix(0.803508,0,0,0.512419,-476.15826,746.00129)"
   id="g10">&#10;            <rect
   x="2154.623"
   y="338.121"
   width="290.58899"
   height="920.604"
   style="fill:#a9a58e"
   id="rect9" />&#10;        </g>&#10;        <g
   transform="matrix(0.803508,0,0,0.620618,-20.506144,605.49768)"
   id="g11">&#10;            <rect
   x="2154.623"
   y="338.121"
   width="290.58899"
   height="920.604"
   style="fill:#e0dfda"
   id="rect10" />&#10;        </g>&#10;        <g
   transform="matrix(0.803508,0,0,0.532227,887.33489,704.24156)"
   id="g12">&#10;            <rect
   x="2154.623"
   y="338.121"
   width="290.58899"
   height="920.604"
   style="fill:#e0dfda"
   id="rect11" />&#10;        </g>&#10;        <g
   transform="matrix(0.803508,0,0,0.846698,1051.5873,308.40797)"
   id="g13">&#10;            <rect
   x="2154.623"
   y="338.121"
   width="290.58899"
   height="920.604"
   style="fill:#a9a58e"
   id="rect12" />&#10;        </g>&#10;        <g
   transform="matrix(0.803508,0,0,0.501854,1243.545,742.4722)"
   id="g14">&#10;            <rect
   x="2154.623"
   y="338.121"
   width="290.58899"
   height="920.604"
   style="fill:#e0dfda"
   id="rect13" />&#10;        </g>&#10;        <g
   transform="matrix(0.803508,0,0,0.61239,1437.4816,603.3375)"
   id="g15">&#10;            <rect
   x="2154.623"
   y="338.121"
   width="290.58899"
   height="920.604"
   style="fill:#a9a58e"
   id="rect14" />&#10;        </g>&#10;        <g
   transform="matrix(0.788012,0,0,1.169101,614.35149,-86.556844)"
   id="g16">&#10;            <rect
   x="2934.5081"
   y="552.474"
   width="70.968002"
   height="42.221001"
   style="fill:#a9a58e"
   id="rect15" />&#10;        </g>&#10;        <g
   transform="matrix(1,0,0,1.192753,6.951498,-92.484146)"
   id="g17">&#10;            <rect
   x="2893.8359"
   y="531.30798"
   width="107.904"
   height="21.166"
   style="fill:#a9a58e"
   id="rect16" />&#10;        </g>&#10;        <g
   transform="matrix(1,0,0,1.136533,6.951498,-84.969918)"
   id="g18">&#10;            <rect
   x="2883.8359"
   y="531.30798"
   width="127.904"
   height="21.166"
   style="fill:#a9a58e"
   id="rect17" />&#10;        </g>&#10;        <g
   transform="translate(6.951498,-28.329943)"
   id="g19">&#10;            <rect
   x="2873.8359"
   y="531.30798"
   width="147.90401"
   height="21.166"
   style="fill:#a9a58e"
   id="rect18" />&#10;        </g>&#10;        <g
   transform="matrix(0.584805,0,0,0.628549,1230.8577,155.72119)"
   id="g20">&#10;            <rect
   x="2873.8359"
   y="531.30798"
   width="147.90401"
   height="21.166"
   style="fill:#a9a58e"
   id="rect19" />&#10;        </g>&#10;        <g
   transform="matrix(1,0,0,1.400739,0.518768,-179.2776)"
   id="g21">&#10;            <rect
   x="2951.7209"
   y="445.733"
   width="5"
   height="36.585999"
   style="fill:#a9a58e"
   id="rect20" />&#10;        </g>&#10;    </g>&#10;</svg>
