<?xml version="1.0" encoding="UTF-8" standalone="no"?>
<svg
   width="4840"
   height="1353.7981"
   viewBox="0 0 4840 1353.7981"
   version="1.1"
   xml:space="preserve"
   style="clip-rule:evenodd;fill-rule:evenodd;stroke-linejoin:round;stroke-miterlimit:1.5"
   id="svg16"
   sodipodi:docname="Skyline2.svg"
   inkscape:version="1.3 (0e150ed6c4, 2023-07-21)"
   xmlns:inkscape="http://www.inkscape.org/namespaces/inkscape"
   xmlns:sodipodi="http://sodipodi.sourceforge.net/DTD/sodipodi-0.dtd"
   xmlns="http://www.w3.org/2000/svg"
   xmlns:svg="http://www.w3.org/2000/svg"
   xmlns:serif="http://www.serif.com/"><defs
   id="defs16" /><sodipodi:namedview
   id="namedview16"
   pagecolor="#ffffff"
   bordercolor="#000000"
   borderopacity="0.25"
   inkscape:showpageshadow="2"
   inkscape:pageopacity="0.0"
   inkscape:pagecheckerboard="0"
   inkscape:deskcolor="#d1d1d1"
   inkscape:zoom="0.14049587"
   inkscape:cx="3473.4118"
   inkscape:cy="1811.4412"
   inkscape:window-width="1920"
   inkscape:window-height="1009"
   inkscape:window-x="-8"
   inkscape:window-y="-8"
   inkscape:window-maximized="1"
   inkscape:current-layer="svg16" />&#10;    <g
   id="Top-half"
   serif:id="Top half">&#10;        <path
   d="m 5112.167,1359.711 c -736.456,12.245 -4640.146,0 -4640.146,0 0,0 835.179,-44.837 1226.563,-176.974 446.039,-150.59 917.643,-743.814 1449.672,-726.563 532.029,17.251 1415.183,679.48 1742.501,830.07 70.643,32.5 299.16,72.174 221.41,73.467 z"
   style="fill:#cab8de"
   id="path1" />&#10;        <g
   transform="translate(-25.976036,23.592958)"
   id="g2">&#10;            <path
   d="M 3081.228,455.806 V 227.868"
   style="fill:none;stroke:#cab8de;stroke-width:35px"
   id="path2" />&#10;        </g>&#10;        <g
   transform="matrix(1.458904,0,0,1,-1256.3917,-1.966081)"
   id="g3">&#10;            <path
   d="m 2907.558,324.206 h 95.682"
   style="fill:none;stroke:#cab8de;stroke-width:27.98px"
   id="path3" />&#10;        </g>&#10;        <g
   id="Skyline"
   transform="translate(500)">&#10;            <g
   transform="matrix(0.803508,0,0,0.780538,105.65162,395.18867)"
   id="g4">&#10;                <rect
   x="2154.623"
   y="338.121"
   width="290.58899"
   height="920.604"
   style="fill:#a9a58e"
   id="rect3" />&#10;            </g>&#10;            <g
   transform="matrix(0.803508,0,0,0.963304,362.91447,165.13688)"
   id="g5">&#10;                <rect
   x="2154.623"
   y="338.121"
   width="290.58899"
   height="920.604"
   style="fill:#e0dfda"
   id="rect4" />&#10;            </g>&#10;            <g
   transform="matrix(0.803508,0,0,0.748836,707.2509,431.58954)"
   id="g6">&#10;                <rect
   x="2154.623"
   y="338.121"
   width="290.58899"
   height="920.604"
   style="fill:#c8c3a8"
   id="rect5" />&#10;            </g>&#10;            <g
   transform="matrix(0.803508,0,0,0.548445,529.14585,683.82738)"
   id="g7">&#10;                <rect
   x="2154.623"
   y="338.121"
   width="290.58899"
   height="920.604"
   style="fill:#a9a58e"
   id="rect6" />&#10;            </g>&#10;            <g
   transform="matrix(0.803508,0,0,0.82623,-220.87436,343.68482)"
   id="g8">&#10;                <rect
   x="2154.623"
   y="338.121"
   width="290.58899"
   height="920.604"
   style="fill:#c8c3a8"
   id="rect7" />&#10;            </g>&#10;            <g
   transform="matrix(0.803508,0,0,0.512419,-476.15826,746.00129)"
   id="g9">&#10;                <rect
   x="2154.623"
   y="338.121"
   width="290.58899"
   height="920.604"
   style="fill:#a9a58e"
   id="rect8" />&#10;            </g>&#10;            <g
   transform="matrix(0.803508,0,0,0.620618,-20.506144,605.49768)"
   id="g10">&#10;                <rect
   x="2154.623"
   y="338.121"
   width="290.58899"
   height="920.604"
   style="fill:#e0dfda"
   id="rect9" />&#10;            </g>&#10;            <g
   transform="matrix(0.803508,0,0,0.532227,887.33489,704.24156)"
   id="g11">&#10;                <rect
   x="2154.623"
   y="338.121"
   width="290.58899"
   height="920.604"
   style="fill:#e0dfda"
   id="rect10" />&#10;            </g>&#10;            <g
   transform="matrix(0.803508,0,0,1.068915,1051.5873,28.69897)"
   id="g12">&#10;                <rect
   x="2154.623"
   y="338.121"
   width="290.58899"
   height="920.604"
   style="fill:#a9a58e"
   id="rect11" />&#10;            </g>&#10;            <g
   transform="matrix(1.327008,0,0,3.263726,-1594.7551,-922.45781)"
   id="g13">&#10;                <path
   d="m 3328.173,402.172 h -29.324 l 43.988,-54.166 h 87.976 l 43.988,54.166 h -29.324 v 11.923 h -29.32 v 22.62 h -29.324 v -22.62 0 -11.923 h -0.01 v 11.923 0 22.62 h -29.324 v -22.62 h -29.328 z"
   style="fill:#c8c3a8"
   id="path12" />&#10;            </g>&#10;            <g
   transform="matrix(0.803508,0,0,0.501854,1243.545,742.4722)"
   id="g14">&#10;                <rect
   x="2154.623"
   y="338.121"
   width="290.58899"
   height="920.604"
   style="fill:#e0dfda"
   id="rect13" />&#10;            </g>&#10;            <g
   transform="matrix(0.803508,0,0,0.61239,1437.4816,603.3375)"
   id="g15">&#10;                <rect
   x="2154.623"
   y="338.121"
   width="290.58899"
   height="920.604"
   style="fill:#a9a58e"
   id="rect14" />&#10;            </g>&#10;            <g
   transform="translate(-500)"
   id="g16">&#10;                <path
   d="M 3399.589,213.339 V 510.144"
   style="fill:none;stroke:#a9a58e;stroke-width:5px"
   id="path15" />&#10;            </g>&#10;        </g>&#10;    </g>&#10;</svg>
