<?xml version="1.0" encoding="UTF-8" standalone="no"?>
<!DOCTYPE svg PUBLIC "-//W3C//DTD SVG 1.1//EN" "http://www.w3.org/Graphics/SVG/1.1/DTD/svg11.dtd">
<svg width="100%" height="100%" viewBox="0 0 929 58" version="1.1" xmlns="http://www.w3.org/2000/svg" xmlns:xlink="http://www.w3.org/1999/xlink" xml:space="preserve" xmlns:serif="http://www.serif.com/" style="fill-rule:evenodd;clip-rule:evenodd;stroke-linejoin:round;stroke-miterlimit:1.5;">
    <g transform="matrix(1,0,0,1,-3535.286091,-929.123037)">
        <g id="SkyTrain" transform="matrix(0.569488,0,0,0.569488,1857.370651,515.726307)">
            <g transform="matrix(1,0,0,1,-1,0)">
                <g transform="matrix(1,0,0,1,-0.86189,116.309533)">
                    <path d="M3349.114,609.607C3350.581,609.521 3351.417,610.194 3351.491,611.779L3351.491,707.936L2948.234,707.936L2948.234,611.658C2948.12,610.28 2948.67,609.593 2949.894,609.607L3349.114,609.607Z" style="fill:white;"/>
                </g>
                <g transform="matrix(1,0,0,1,-0.86189,116.309533)">
                    <path d="M3351.491,682.231L3033.241,682.231C3030.149,682.231 3027.334,680.45 3026.011,677.656L2993.782,609.607L3011.486,609.607L3038.304,666.231L3351.491,666.231L3351.491,682.231Z" style="fill:rgb(74,68,138);"/>
                </g>
                <g transform="matrix(1,0,0,1,-0.86189,116.309533)">
                    <path d="M3351.491,701.229L3032.002,701.229C3031.829,701.229 3031.655,701.224 3031.482,701.212C3022.025,700.596 3014.312,696.123 3008.931,686.615C3008.836,686.446 3008.746,686.274 3008.663,686.099L2972.436,609.607L2990.14,609.607L3022.993,678.973C3025.271,682.864 3028.375,684.904 3032.294,685.229L3351.491,685.229L3351.491,701.229Z" style="fill:rgb(200,9,46);"/>
                </g>
                <g transform="matrix(0.793543,0,0,1.145219,602.2809,-121.103449)">
                    <path d="M3058.444,754.073L3058.444,779.458C3058.444,781.16 3056.451,782.541 3053.995,782.541L2981.43,782.541C2978.974,782.541 2976.981,781.16 2976.981,779.458L2976.981,754.073C2976.981,752.371 2978.974,750.99 2981.43,750.99L3053.995,750.99C3056.451,750.99 3058.444,752.371 3058.444,754.073Z" style="fill:rgb(120,120,120);"/>
                </g>
                <g transform="matrix(0.793543,0,0,1.145219,750.920714,-121.103449)">
                    <path d="M3058.444,754.073L3058.444,779.458C3058.444,781.16 3056.451,782.541 3053.995,782.541L2981.43,782.541C2978.974,782.541 2976.981,781.16 2976.981,779.458L2976.981,754.073C2976.981,752.371 2978.974,750.99 2981.43,750.99L3053.995,750.99C3056.451,750.99 3058.444,752.371 3058.444,754.073Z" style="fill:rgb(120,120,120);"/>
                </g>
                <g transform="matrix(0.793543,0,0,1.145219,905.031859,-121.103449)">
                    <path d="M3058.444,754.073L3058.444,779.458C3058.444,781.16 3056.451,782.541 3053.995,782.541L2981.43,782.541C2978.974,782.541 2976.981,781.16 2976.981,779.458L2976.981,754.073C2976.981,752.371 2978.974,750.99 2981.43,750.99L3053.995,750.99C3056.451,750.99 3058.444,752.371 3058.444,754.073Z" style="fill:rgb(120,120,120);"/>
                </g>
                <g>
                    <g transform="matrix(0.717949,0,0,1.080278,851.568095,-66.16852)">
                        <rect x="3052.855" y="738.945" width="36.418" height="85.301" style="fill:rgb(120,120,120);fill-opacity:0.21;stroke:rgb(200,200,200);stroke-width:3.83px;"/>
                    </g>
                    <g transform="matrix(0.717949,0,0,1.080278,877.714112,-66.16852)">
                        <rect x="3052.855" y="738.945" width="36.418" height="85.301" style="fill:rgb(120,120,120);fill-opacity:0.21;stroke:rgb(200,200,200);stroke-width:3.83px;"/>
                    </g>
                    <g transform="matrix(0,0.379207,-0.547261,0,3476.055146,-387.327061)">
                        <path d="M3058.444,754.073L3058.444,779.458C3058.444,781.16 3056.451,782.541 3053.995,782.541L2981.43,782.541C2978.974,782.541 2976.981,781.16 2976.981,779.458L2976.981,754.073C2976.981,752.371 2978.974,750.99 2981.43,750.99L3053.995,750.99C3056.451,750.99 3058.444,752.371 3058.444,754.073Z" style="fill:rgb(120,120,120);"/>
                    </g>
                    <g transform="matrix(0,0.379207,-0.547261,0,3502.201162,-387.327061)">
                        <path d="M3058.444,754.073L3058.444,779.458C3058.444,781.16 3056.451,782.541 3053.995,782.541L2981.43,782.541C2978.974,782.541 2976.981,781.16 2976.981,779.458L2976.981,754.073C2976.981,752.371 2978.974,750.99 2981.43,750.99L3053.995,750.99C3056.451,750.99 3058.444,752.371 3058.444,754.073Z" style="fill:rgb(120,120,120);"/>
                    </g>
                </g>
                <g transform="matrix(1,0,0,1,152.226553,0)">
                    <g transform="matrix(0.717949,0,0,1.080278,851.568095,-66.16852)">
                        <rect x="3052.855" y="738.945" width="36.418" height="85.301" style="fill:rgb(120,120,120);fill-opacity:0.21;stroke:rgb(200,200,200);stroke-width:3.83px;"/>
                    </g>
                    <g transform="matrix(0.717949,0,0,1.080278,877.714112,-66.16852)">
                        <rect x="3052.855" y="738.945" width="36.418" height="85.301" style="fill:rgb(120,120,120);fill-opacity:0.21;stroke:rgb(200,200,200);stroke-width:3.83px;"/>
                    </g>
                    <g transform="matrix(0,0.379207,-0.547261,0,3476.055146,-387.327061)">
                        <path d="M3058.444,754.073L3058.444,779.458C3058.444,781.16 3056.451,782.541 3053.995,782.541L2981.43,782.541C2978.974,782.541 2976.981,781.16 2976.981,779.458L2976.981,754.073C2976.981,752.371 2978.974,750.99 2981.43,750.99L3053.995,750.99C3056.451,750.99 3058.444,752.371 3058.444,754.073Z" style="fill:rgb(120,120,120);"/>
                    </g>
                    <g transform="matrix(0,0.379207,-0.547261,0,3502.201162,-387.327061)">
                        <path d="M3058.444,754.073L3058.444,779.458C3058.444,781.16 3056.451,782.541 3053.995,782.541L2981.43,782.541C2978.974,782.541 2976.981,781.16 2976.981,779.458L2976.981,754.073C2976.981,752.371 2978.974,750.99 2981.43,750.99L3053.995,750.99C3056.451,750.99 3058.444,752.371 3058.444,754.073Z" style="fill:rgb(120,120,120);"/>
                    </g>
                </g>
            </g>
            <g transform="matrix(1,0,0,1,406.55545,0)">
                <g transform="matrix(1,0,0,1,-0.86189,116.309533)">
                    <path d="M3349.114,609.607C3350.581,609.521 3351.417,610.194 3351.491,611.779L3351.491,707.936L2948.234,707.936L2948.234,611.658C2948.12,610.28 2948.67,609.593 2949.894,609.607L3349.114,609.607Z" style="fill:white;"/>
                </g>
                <g transform="matrix(1,0,0,1,-0.86189,116.309533)">
                    <rect x="2948.234" y="666.231" width="403.257" height="16" style="fill:rgb(74,68,138);"/>
                </g>
                <g transform="matrix(1,0,0,1,-0.86189,116.309533)">
                    <path d="M3351.491,701.229L2948.234,701.229L2948.219,685.229L3351.491,685.229L3351.491,701.229Z" style="fill:rgb(200,9,46);"/>
                </g>
                <g transform="matrix(0.793543,0,0,1.145219,602.2809,-121.103449)">
                    <path d="M3058.444,754.073L3058.444,779.458C3058.444,781.16 3056.451,782.541 3053.995,782.541L2981.43,782.541C2978.974,782.541 2976.981,781.16 2976.981,779.458L2976.981,754.073C2976.981,752.371 2978.974,750.99 2981.43,750.99L3053.995,750.99C3056.451,750.99 3058.444,752.371 3058.444,754.073Z" style="fill:rgb(120,120,120);"/>
                </g>
                <g transform="matrix(0.793543,0,0,1.145219,750.920714,-121.103449)">
                    <path d="M3058.444,754.073L3058.444,779.458C3058.444,781.16 3056.451,782.541 3053.995,782.541L2981.43,782.541C2978.974,782.541 2976.981,781.16 2976.981,779.458L2976.981,754.073C2976.981,752.371 2978.974,750.99 2981.43,750.99L3053.995,750.99C3056.451,750.99 3058.444,752.371 3058.444,754.073Z" style="fill:rgb(120,120,120);"/>
                </g>
                <g transform="matrix(0.793543,0,0,1.145219,905.031859,-121.103449)">
                    <path d="M3058.444,754.073L3058.444,779.458C3058.444,781.16 3056.451,782.541 3053.995,782.541L2981.43,782.541C2978.974,782.541 2976.981,781.16 2976.981,779.458L2976.981,754.073C2976.981,752.371 2978.974,750.99 2981.43,750.99L3053.995,750.99C3056.451,750.99 3058.444,752.371 3058.444,754.073Z" style="fill:rgb(120,120,120);"/>
                </g>
                <g>
                    <g transform="matrix(0.717949,0,0,1.080278,851.568095,-66.16852)">
                        <rect x="3052.855" y="738.945" width="36.418" height="85.301" style="fill:rgb(120,120,120);fill-opacity:0.21;stroke:rgb(200,200,200);stroke-width:3.83px;"/>
                    </g>
                    <g transform="matrix(0.717949,0,0,1.080278,877.714112,-66.16852)">
                        <rect x="3052.855" y="738.945" width="36.418" height="85.301" style="fill:rgb(120,120,120);fill-opacity:0.21;stroke:rgb(200,200,200);stroke-width:3.83px;"/>
                    </g>
                    <g transform="matrix(0,0.379207,-0.547261,0,3476.055146,-387.327061)">
                        <path d="M3058.444,754.073L3058.444,779.458C3058.444,781.16 3056.451,782.541 3053.995,782.541L2981.43,782.541C2978.974,782.541 2976.981,781.16 2976.981,779.458L2976.981,754.073C2976.981,752.371 2978.974,750.99 2981.43,750.99L3053.995,750.99C3056.451,750.99 3058.444,752.371 3058.444,754.073Z" style="fill:rgb(120,120,120);"/>
                    </g>
                    <g transform="matrix(0,0.379207,-0.547261,0,3502.201162,-387.327061)">
                        <path d="M3058.444,754.073L3058.444,779.458C3058.444,781.16 3056.451,782.541 3053.995,782.541L2981.43,782.541C2978.974,782.541 2976.981,781.16 2976.981,779.458L2976.981,754.073C2976.981,752.371 2978.974,750.99 2981.43,750.99L3053.995,750.99C3056.451,750.99 3058.444,752.371 3058.444,754.073Z" style="fill:rgb(120,120,120);"/>
                    </g>
                </g>
                <g transform="matrix(1,0,0,1,152.226553,0)">
                    <g transform="matrix(0.717949,0,0,1.080278,851.568095,-66.16852)">
                        <rect x="3052.855" y="738.945" width="36.418" height="85.301" style="fill:rgb(120,120,120);fill-opacity:0.21;stroke:rgb(200,200,200);stroke-width:3.83px;"/>
                    </g>
                    <g transform="matrix(0.717949,0,0,1.080278,877.714112,-66.16852)">
                        <rect x="3052.855" y="738.945" width="36.418" height="85.301" style="fill:rgb(120,120,120);fill-opacity:0.21;stroke:rgb(200,200,200);stroke-width:3.83px;"/>
                    </g>
                    <g transform="matrix(0,0.379207,-0.547261,0,3476.055146,-387.327061)">
                        <path d="M3058.444,754.073L3058.444,779.458C3058.444,781.16 3056.451,782.541 3053.995,782.541L2981.43,782.541C2978.974,782.541 2976.981,781.16 2976.981,779.458L2976.981,754.073C2976.981,752.371 2978.974,750.99 2981.43,750.99L3053.995,750.99C3056.451,750.99 3058.444,752.371 3058.444,754.073Z" style="fill:rgb(120,120,120);"/>
                    </g>
                    <g transform="matrix(0,0.379207,-0.547261,0,3502.201162,-387.327061)">
                        <path d="M3058.444,754.073L3058.444,779.458C3058.444,781.16 3056.451,782.541 3053.995,782.541L2981.43,782.541C2978.974,782.541 2976.981,781.16 2976.981,779.458L2976.981,754.073C2976.981,752.371 2978.974,750.99 2981.43,750.99L3053.995,750.99C3056.451,750.99 3058.444,752.371 3058.444,754.073Z" style="fill:rgb(120,120,120);"/>
                    </g>
                </g>
            </g>
            <g transform="matrix(1,0,0,1,815.873268,0)">
                <g transform="matrix(1,0,0,1,-0.86189,116.309533)">
                    <path d="M3349.114,609.607C3350.581,609.521 3351.417,610.194 3351.491,611.779L3351.491,707.936L2948.234,707.936L2948.234,611.658C2948.12,610.28 2948.67,609.593 2949.894,609.607L3349.114,609.607Z" style="fill:white;"/>
                </g>
                <g transform="matrix(1,0,0,1,-0.86189,116.309533)">
                    <rect x="2948.234" y="666.231" width="403.257" height="16" style="fill:rgb(74,68,138);"/>
                </g>
                <g transform="matrix(1,0,0,1,-0.86189,116.309533)">
                    <path d="M3351.491,701.229L2948.234,701.229L2948.219,685.229L3351.491,685.229L3351.491,701.229Z" style="fill:rgb(200,9,46);"/>
                </g>
                <g transform="matrix(0.793543,0,0,1.145219,602.2809,-121.103449)">
                    <path d="M3058.444,754.073L3058.444,779.458C3058.444,781.16 3056.451,782.541 3053.995,782.541L2981.43,782.541C2978.974,782.541 2976.981,781.16 2976.981,779.458L2976.981,754.073C2976.981,752.371 2978.974,750.99 2981.43,750.99L3053.995,750.99C3056.451,750.99 3058.444,752.371 3058.444,754.073Z" style="fill:rgb(120,120,120);"/>
                </g>
                <g transform="matrix(0.793543,0,0,1.145219,750.920714,-121.103449)">
                    <path d="M3058.444,754.073L3058.444,779.458C3058.444,781.16 3056.451,782.541 3053.995,782.541L2981.43,782.541C2978.974,782.541 2976.981,781.16 2976.981,779.458L2976.981,754.073C2976.981,752.371 2978.974,750.99 2981.43,750.99L3053.995,750.99C3056.451,750.99 3058.444,752.371 3058.444,754.073Z" style="fill:rgb(120,120,120);"/>
                </g>
                <g transform="matrix(0.793543,0,0,1.145219,905.031859,-121.103449)">
                    <path d="M3058.444,754.073L3058.444,779.458C3058.444,781.16 3056.451,782.541 3053.995,782.541L2981.43,782.541C2978.974,782.541 2976.981,781.16 2976.981,779.458L2976.981,754.073C2976.981,752.371 2978.974,750.99 2981.43,750.99L3053.995,750.99C3056.451,750.99 3058.444,752.371 3058.444,754.073Z" style="fill:rgb(120,120,120);"/>
                </g>
                <g>
                    <g transform="matrix(0.717949,0,0,1.080278,851.568095,-66.16852)">
                        <rect x="3052.855" y="738.945" width="36.418" height="85.301" style="fill:rgb(120,120,120);fill-opacity:0.21;stroke:rgb(200,200,200);stroke-width:3.83px;"/>
                    </g>
                    <g transform="matrix(0.717949,0,0,1.080278,877.714112,-66.16852)">
                        <rect x="3052.855" y="738.945" width="36.418" height="85.301" style="fill:rgb(120,120,120);fill-opacity:0.21;stroke:rgb(200,200,200);stroke-width:3.83px;"/>
                    </g>
                    <g transform="matrix(0,0.379207,-0.547261,0,3476.055146,-387.327061)">
                        <path d="M3058.444,754.073L3058.444,779.458C3058.444,781.16 3056.451,782.541 3053.995,782.541L2981.43,782.541C2978.974,782.541 2976.981,781.16 2976.981,779.458L2976.981,754.073C2976.981,752.371 2978.974,750.99 2981.43,750.99L3053.995,750.99C3056.451,750.99 3058.444,752.371 3058.444,754.073Z" style="fill:rgb(120,120,120);"/>
                    </g>
                    <g transform="matrix(0,0.379207,-0.547261,0,3502.201162,-387.327061)">
                        <path d="M3058.444,754.073L3058.444,779.458C3058.444,781.16 3056.451,782.541 3053.995,782.541L2981.43,782.541C2978.974,782.541 2976.981,781.16 2976.981,779.458L2976.981,754.073C2976.981,752.371 2978.974,750.99 2981.43,750.99L3053.995,750.99C3056.451,750.99 3058.444,752.371 3058.444,754.073Z" style="fill:rgb(120,120,120);"/>
                    </g>
                </g>
                <g transform="matrix(1,0,0,1,152.226553,0)">
                    <g transform="matrix(0.717949,0,0,1.080278,851.568095,-66.16852)">
                        <rect x="3052.855" y="738.945" width="36.418" height="85.301" style="fill:rgb(120,120,120);fill-opacity:0.21;stroke:rgb(200,200,200);stroke-width:3.83px;"/>
                    </g>
                    <g transform="matrix(0.717949,0,0,1.080278,877.714112,-66.16852)">
                        <rect x="3052.855" y="738.945" width="36.418" height="85.301" style="fill:rgb(120,120,120);fill-opacity:0.21;stroke:rgb(200,200,200);stroke-width:3.83px;"/>
                    </g>
                    <g transform="matrix(0,0.379207,-0.547261,0,3476.055146,-387.327061)">
                        <path d="M3058.444,754.073L3058.444,779.458C3058.444,781.16 3056.451,782.541 3053.995,782.541L2981.43,782.541C2978.974,782.541 2976.981,781.16 2976.981,779.458L2976.981,754.073C2976.981,752.371 2978.974,750.99 2981.43,750.99L3053.995,750.99C3056.451,750.99 3058.444,752.371 3058.444,754.073Z" style="fill:rgb(120,120,120);"/>
                    </g>
                    <g transform="matrix(0,0.379207,-0.547261,0,3502.201162,-387.327061)">
                        <path d="M3058.444,754.073L3058.444,779.458C3058.444,781.16 3056.451,782.541 3053.995,782.541L2981.43,782.541C2978.974,782.541 2976.981,781.16 2976.981,779.458L2976.981,754.073C2976.981,752.371 2978.974,750.99 2981.43,750.99L3053.995,750.99C3056.451,750.99 3058.444,752.371 3058.444,754.073Z" style="fill:rgb(120,120,120);"/>
                    </g>
                </g>
            </g>
            <g transform="matrix(1,0,0,1,1225.347623,0)">
                <g transform="matrix(1,0,0,1,-0.86189,116.309533)">
                    <path d="M3349.114,609.607C3350.581,609.521 3351.417,610.194 3351.491,611.779L3351.491,707.936L2948.234,707.936L2948.234,611.658C2948.12,610.28 2948.67,609.593 2949.894,609.607L3349.114,609.607Z" style="fill:white;"/>
                </g>
                <g transform="matrix(1,0,0,1,-0.86189,116.309533)">
                    <rect x="2948.234" y="666.231" width="403.257" height="16" style="fill:rgb(74,68,138);"/>
                </g>
                <g transform="matrix(1,0,0,1,-0.86189,116.309533)">
                    <path d="M3351.491,701.229L2948.234,701.229L2948.219,685.229L3351.491,685.229L3351.491,701.229Z" style="fill:rgb(200,9,46);"/>
                </g>
                <g transform="matrix(0.793543,0,0,1.145219,602.2809,-121.103449)">
                    <path d="M3058.444,754.073L3058.444,779.458C3058.444,781.16 3056.451,782.541 3053.995,782.541L2981.43,782.541C2978.974,782.541 2976.981,781.16 2976.981,779.458L2976.981,754.073C2976.981,752.371 2978.974,750.99 2981.43,750.99L3053.995,750.99C3056.451,750.99 3058.444,752.371 3058.444,754.073Z" style="fill:rgb(120,120,120);"/>
                </g>
                <g transform="matrix(0.793543,0,0,1.145219,750.920714,-121.103449)">
                    <path d="M3058.444,754.073L3058.444,779.458C3058.444,781.16 3056.451,782.541 3053.995,782.541L2981.43,782.541C2978.974,782.541 2976.981,781.16 2976.981,779.458L2976.981,754.073C2976.981,752.371 2978.974,750.99 2981.43,750.99L3053.995,750.99C3056.451,750.99 3058.444,752.371 3058.444,754.073Z" style="fill:rgb(120,120,120);"/>
                </g>
                <g transform="matrix(0.793543,0,0,1.145219,905.031859,-121.103449)">
                    <path d="M3058.444,754.073L3058.444,779.458C3058.444,781.16 3056.451,782.541 3053.995,782.541L2981.43,782.541C2978.974,782.541 2976.981,781.16 2976.981,779.458L2976.981,754.073C2976.981,752.371 2978.974,750.99 2981.43,750.99L3053.995,750.99C3056.451,750.99 3058.444,752.371 3058.444,754.073Z" style="fill:rgb(120,120,120);"/>
                </g>
                <g>
                    <g transform="matrix(0.717949,0,0,1.080278,851.568095,-66.16852)">
                        <rect x="3052.855" y="738.945" width="36.418" height="85.301" style="fill:rgb(120,120,120);fill-opacity:0.21;stroke:rgb(200,200,200);stroke-width:3.83px;"/>
                    </g>
                    <g transform="matrix(0.717949,0,0,1.080278,877.714112,-66.16852)">
                        <rect x="3052.855" y="738.945" width="36.418" height="85.301" style="fill:rgb(120,120,120);fill-opacity:0.21;stroke:rgb(200,200,200);stroke-width:3.83px;"/>
                    </g>
                    <g transform="matrix(0,0.379207,-0.547261,0,3476.055146,-387.327061)">
                        <path d="M3058.444,754.073L3058.444,779.458C3058.444,781.16 3056.451,782.541 3053.995,782.541L2981.43,782.541C2978.974,782.541 2976.981,781.16 2976.981,779.458L2976.981,754.073C2976.981,752.371 2978.974,750.99 2981.43,750.99L3053.995,750.99C3056.451,750.99 3058.444,752.371 3058.444,754.073Z" style="fill:rgb(120,120,120);"/>
                    </g>
                    <g transform="matrix(0,0.379207,-0.547261,0,3502.201162,-387.327061)">
                        <path d="M3058.444,754.073L3058.444,779.458C3058.444,781.16 3056.451,782.541 3053.995,782.541L2981.43,782.541C2978.974,782.541 2976.981,781.16 2976.981,779.458L2976.981,754.073C2976.981,752.371 2978.974,750.99 2981.43,750.99L3053.995,750.99C3056.451,750.99 3058.444,752.371 3058.444,754.073Z" style="fill:rgb(120,120,120);"/>
                    </g>
                </g>
                <g transform="matrix(1,0,0,1,152.226553,0)">
                    <g transform="matrix(0.717949,0,0,1.080278,851.568095,-66.16852)">
                        <rect x="3052.855" y="738.945" width="36.418" height="85.301" style="fill:rgb(120,120,120);fill-opacity:0.21;stroke:rgb(200,200,200);stroke-width:3.83px;"/>
                    </g>
                    <g transform="matrix(0.717949,0,0,1.080278,877.714112,-66.16852)">
                        <rect x="3052.855" y="738.945" width="36.418" height="85.301" style="fill:rgb(120,120,120);fill-opacity:0.21;stroke:rgb(200,200,200);stroke-width:3.83px;"/>
                    </g>
                    <g transform="matrix(0,0.379207,-0.547261,0,3476.055146,-387.327061)">
                        <path d="M3058.444,754.073L3058.444,779.458C3058.444,781.16 3056.451,782.541 3053.995,782.541L2981.43,782.541C2978.974,782.541 2976.981,781.16 2976.981,779.458L2976.981,754.073C2976.981,752.371 2978.974,750.99 2981.43,750.99L3053.995,750.99C3056.451,750.99 3058.444,752.371 3058.444,754.073Z" style="fill:rgb(120,120,120);"/>
                    </g>
                    <g transform="matrix(0,0.379207,-0.547261,0,3502.201162,-387.327061)">
                        <path d="M3058.444,754.073L3058.444,779.458C3058.444,781.16 3056.451,782.541 3053.995,782.541L2981.43,782.541C2978.974,782.541 2976.981,781.16 2976.981,779.458L2976.981,754.073C2976.981,752.371 2978.974,750.99 2981.43,750.99L3053.995,750.99C3056.451,750.99 3058.444,752.371 3058.444,754.073Z" style="fill:rgb(120,120,120);"/>
                    </g>
                </g>
            </g>
        </g>
    </g>
</svg>
