<?xml version="1.0" encoding="UTF-8" standalone="no"?>
<svg
   width="100%"
   height="100%"
   viewBox="0 0 929 58"
   version="1.1"
   xml:space="preserve"
   style="fill-rule:evenodd;clip-rule:evenodd;stroke-linejoin:round;stroke-miterlimit:1.5;"
   id="svg69"
   sodipodi:docname="skytrain.svg"
   inkscape:version="1.3 (0e150ed6c4, 2023-07-21)"
   xmlns:inkscape="http://www.inkscape.org/namespaces/inkscape"
   xmlns:sodipodi="http://sodipodi.sourceforge.net/DTD/sodipodi-0.dtd"
   xmlns="http://www.w3.org/2000/svg"
   xmlns:svg="http://www.w3.org/2000/svg"><defs
   id="defs69">&#10;        &#10;    &#10;            &#10;            &#10;            &#10;            &#10;        &#10;                &#10;                &#10;                &#10;                &#10;                &#10;                &#10;                &#10;                &#10;            &#10;                &#10;                &#10;                &#10;                &#10;                &#10;                &#10;                &#10;                &#10;            &#10;                &#10;                &#10;                &#10;                &#10;                &#10;                &#10;                &#10;                &#10;            &#10;                &#10;                &#10;                &#10;                &#10;                &#10;                &#10;                &#10;                &#10;            &#10;                    &#10;                &#10;                    &#10;                &#10;                    &#10;                &#10;                    &#10;                &#10;                    &#10;                &#10;                    &#10;                    &#10;                    &#10;                    &#10;                &#10;                    &#10;                    &#10;                    &#10;                    &#10;                &#10;                    &#10;                &#10;                    &#10;                    &#10;                    &#10;                    &#10;                &#10;                    &#10;                &#10;                    &#10;                &#10;                    &#10;                &#10;                    &#10;                &#10;                    &#10;                    &#10;                    &#10;                    &#10;                &#10;                    &#10;                &#10;                    &#10;                &#10;                    &#10;                &#10;                    &#10;                    &#10;                    &#10;                    &#10;                &#10;                    &#10;                    &#10;                    &#10;                    &#10;                &#10;                    &#10;                &#10;                    &#10;                &#10;                    &#10;                &#10;                    &#10;                &#10;                    &#10;                    &#10;                    &#10;                    &#10;                &#10;                    &#10;                &#10;                    &#10;                    &#10;                    &#10;                    &#10;                &#10;                    &#10;                &#10;                    &#10;                &#10;                    &#10;                &#10;                    &#10;                &#10;                    &#10;                &#10;                    &#10;                &#10;                        &#10;                    &#10;                        &#10;                    &#10;                        &#10;                    &#10;                        &#10;                    &#10;                        &#10;                    &#10;                        &#10;                    &#10;                        &#10;                    &#10;                        &#10;                    &#10;                        &#10;                    &#10;                        &#10;                    &#10;                        &#10;                    &#10;                        &#10;                    &#10;                        &#10;                    &#10;                        &#10;                    &#10;                        &#10;                    &#10;                        &#10;                    &#10;                        &#10;                    &#10;                        &#10;                    &#10;                        &#10;                    &#10;                        &#10;                    &#10;                        &#10;                    &#10;                        &#10;                    &#10;                        &#10;                    &#10;                        &#10;                    &#10;                        &#10;                    &#10;                        &#10;                    &#10;                        &#10;                    &#10;                        &#10;                    &#10;                        &#10;                    &#10;                        &#10;                    &#10;                        &#10;                    &#10;                        &#10;                    </defs><sodipodi:namedview
   id="namedview69"
   pagecolor="#ffffff"
   bordercolor="#000000"
   borderopacity="0.25"
   inkscape:showpageshadow="2"
   inkscape:pageopacity="0.0"
   inkscape:pagecheckerboard="0"
   inkscape:deskcolor="#d1d1d1"
   inkscape:zoom="2.0703234"
   inkscape:cx="191.75748"
   inkscape:cy="191.99899"
   inkscape:window-width="1920"
   inkscape:window-height="1009"
   inkscape:window-x="-8"
   inkscape:window-y="-8"
   inkscape:window-maximized="1"
   inkscape:current-layer="svg69" />&#10;    <path
   id="path1"
   style="fill:#ffffff;stroke-width:0.569488"
   d="M 0.953125,0.00390625 C 0.25607309,-0.00406657 -0.057109,0.3871221 0.0078125,1.171875 V 58.001953 H 229.6582 V 1.2402344 c -0.0421,-0.90263677 -0.51807,-1.28530402 -1.35351,-1.23632815 z m 232.097655,0 C 232.35373,-0.00406657 232.04057,0.3871221 232.10547,1.171875 V 58.001953 H 461.75586 V 1.2402344 c -0.0421,-0.90263677 -0.51808,-1.28530402 -1.35352,-1.23632815 z m 233.10156,0 C 465.45529,-0.00406657 465.14213,0.3871221 465.20703,1.171875 V 58.001953 H 694.85742 V 1.2402344 c -0.0421,-0.90263677 -0.51807,-1.28530402 -1.35351,-1.23632815 z m 233.19141,0 C 698.6467,-0.00406657 698.33354,0.3871221 698.39844,1.171875 V 58.001953 H 928.04883 V 1.2402344 c -0.0421,-0.90263677 -0.51808,-1.28530402 -1.35352,-1.23632815 z M 11.853516,7.4238281 h 32.794922 c 1.109888,0 2.009765,0.8997438 2.009765,2.0097657 V 25.990234 C 46.658203,27.100256 45.758326,28 44.648438,28 H 11.853516 C 10.743617,28 9.84375,27.100256 9.84375,25.990234 V 9.4335938 c 0,-1.1100219 0.899867,-2.0097657 2.009766,-2.0097657 z m 84.65039,0 h 32.792974 c 1.10987,0 2.00976,0.8997438 2.00976,2.0097657 V 25.990234 C 131.30664,27.100256 130.40675,28 129.29688,28 H 96.503906 c -1.109899,0 -2.011718,-0.899744 -2.011718,-2.009766 V 9.4335938 c 0,-1.1100219 0.901819,-2.0097657 2.011718,-2.0097657 z m 87.763674,0 h 32.79297 c 1.1099,0 2.00976,0.8997438 2.00976,2.0097657 V 25.990234 C 219.07031,27.100256 218.17045,28 217.06055,28 h -32.79297 c -1.1099,0 -2.00977,-0.899744 -2.00977,-2.009766 V 9.4335938 c 0,-1.1100219 0.89987,-2.0097657 2.00977,-2.0097657 z m 59.68554,0 h 32.79297 c 1.1099,0 2.00977,0.8997438 2.00977,2.0097657 V 25.990234 C 278.75586,27.100256 277.85599,28 276.74609,28 h -32.79297 c -1.10987,0 -2.01171,-0.899744 -2.01171,-2.009766 V 9.4335938 c 0,-1.1100219 0.90184,-2.0097657 2.01171,-2.0097657 z m 84.64844,0 h 32.79297 c 1.1099,0 2.00977,0.8997438 2.00977,2.0097657 V 25.990234 C 363.4043,27.100256 362.50443,28 361.39453,28 h -32.79297 c -1.1099,0 -2.01172,-0.899744 -2.01172,-2.009766 V 9.4335938 c 0,-1.1100219 0.90182,-2.0097657 2.01172,-2.0097657 z m 87.76367,0 h 32.79297 c 1.1099,0 2.01172,0.8997438 2.01172,2.0097657 V 25.990234 C 451.16992,27.100256 450.2681,28 449.1582,28 h -32.79297 c -1.10987,0 -2.00976,-0.899744 -2.00976,-2.009766 V 9.4335938 c 0,-1.1100219 0.89989,-2.0097657 2.00976,-2.0097657 z m 60.68946,0 h 32.79297 c 1.1099,0 2.00976,0.8997438 2.00976,2.0097657 V 25.990234 C 511.85742,27.100256 510.95756,28 509.84766,28 h -32.79297 c -1.1099,0 -2.01172,-0.899744 -2.01172,-2.009766 V 9.4335938 c 0,-1.1100219 0.90182,-2.0097657 2.01172,-2.0097657 z m 84.64843,0 h 32.79297 c 1.1099,0 2.00977,0.8997438 2.00977,2.0097657 V 25.990234 C 596.50586,27.100256 595.60599,28 594.49609,28 h -32.79297 c -1.10987,0 -2.01171,-0.899744 -2.01171,-2.009766 V 9.4335938 c 0,-1.1100219 0.90184,-2.0097657 2.01171,-2.0097657 z m 87.76368,0 h 32.79297 c 1.10987,0 2.01171,0.8997438 2.01171,2.0097657 V 25.990234 C 684.27148,27.100256 683.36964,28 682.25977,28 H 649.4668 c -1.1099,0 -2.00977,-0.899744 -2.00977,-2.009766 V 9.4335938 c 0,-1.1100219 0.89987,-2.0097657 2.00977,-2.0097657 z m 60.77734,0 h 32.79297 c 1.1099,0 2.01172,0.8997438 2.01172,2.0097657 V 25.990234 C 745.04883,27.100256 744.14701,28 743.03711,28 h -32.79297 c -1.1099,0 -2.00976,-0.899744 -2.00976,-2.009766 V 9.4335938 c 0,-1.1100219 0.89986,-2.0097657 2.00976,-2.0097657 z m 84.64844,0 h 32.79297 c 1.1099,0 2.01172,0.8997438 2.01172,2.0097657 V 25.990234 C 829.69727,27.100256 828.79545,28 827.68555,28 h -32.79297 c -1.1099,0 -2.00977,-0.899744 -2.00977,-2.009766 V 9.4335938 c 0,-1.1100219 0.89987,-2.0097657 2.00977,-2.0097657 z m 87.76562,0 h 32.79297 c 1.1099,0 2.00977,0.8997438 2.00977,2.0097657 V 25.990234 C 917.46094,27.100256 916.56107,28 915.45117,28 H 882.6582 c -1.1099,0 -2.01172,-0.899744 -2.01172,-2.009766 V 9.4335938 c 0,-1.1100219 0.90182,-2.0097657 2.01172,-2.0097657 z M 58.162109,8.9160156 h 7.91211 c 0.530439,0 0.960937,0.4305571 0.960937,0.9609375 V 25.546875 c 0,0.530379 -0.430498,0.960937 -0.960937,0.960937 h -7.91211 c -0.530439,0 -0.960937,-0.430558 -0.960937,-0.960937 V 9.8769531 c 0,-0.5303804 0.430498,-0.9609375 0.960937,-0.9609375 z m 14.890625,0 h 7.910157 c 0.530439,0 0.960937,0.4305571 0.960937,0.9609375 V 25.546875 c 0,0.530379 -0.430498,0.960937 -0.960937,0.960937 h -7.910157 c -0.530439,0 -0.960937,-0.430558 -0.960937,-0.960937 V 9.8769531 c 0,-0.5303804 0.430498,-0.9609375 0.960937,-0.9609375 z m 71.800786,0 h 7.9121 c 0.53044,0 0.95899,0.4305571 0.95899,0.9609375 V 25.546875 c 0,0.530379 -0.42855,0.960937 -0.95899,0.960937 h -7.9121 c -0.53044,0 -0.96094,-0.430558 -0.96094,-0.960937 V 9.8769531 c 0,-0.5303804 0.4305,-0.9609375 0.96094,-0.9609375 z m 14.88867,0 h 7.91211 c 0.53044,0 0.96093,0.4305571 0.96093,0.9609375 V 25.546875 c 0,0.530379 -0.43049,0.960937 -0.96093,0.960937 h -7.91211 c -0.53044,0 -0.95899,-0.430558 -0.95899,-0.960937 V 9.8769531 c 0,-0.5303804 0.42855,-0.9609375 0.95899,-0.9609375 z m 130.51758,0 h 7.91211 c 0.53041,0 0.96093,0.4305571 0.96093,0.9609375 V 25.546875 c 0,0.530379 -0.43052,0.960937 -0.96093,0.960937 h -7.91211 c -0.53044,0 -0.96094,-0.430558 -0.96094,-0.960937 V 9.8769531 c 0,-0.5303804 0.4305,-0.9609375 0.96094,-0.9609375 z m 14.89062,0 h 7.91016 c 0.53044,0 0.96093,0.4305571 0.96093,0.9609375 V 25.546875 c 0,0.530379 -0.43049,0.960937 -0.96093,0.960937 h -7.91016 c -0.53044,0 -0.96094,-0.430558 -0.96094,-0.960937 V 9.8769531 c 0,-0.5303804 0.4305,-0.9609375 0.96094,-0.9609375 z m 71.80078,0 h 7.91211 c 0.53044,0 0.96094,0.4305571 0.96094,0.9609375 V 25.546875 c 0,0.530379 -0.4305,0.960937 -0.96094,0.960937 h -7.91211 c -0.53044,0 -0.96094,-0.430558 -0.96094,-0.960937 V 9.8769531 c 0,-0.5303804 0.4305,-0.9609375 0.96094,-0.9609375 z m 14.89063,0 h 7.91015 c 0.53044,0 0.96094,0.4305571 0.96094,0.9609375 V 25.546875 c 0,0.530379 -0.4305,0.960937 -0.96094,0.960937 h -7.91015 c -0.53044,0 -0.96094,-0.430558 -0.96094,-0.960937 V 9.8769531 c 0,-0.5303804 0.4305,-0.9609375 0.96094,-0.9609375 z m 131.51953,0 h 7.91211 c 0.53044,0 0.96094,0.4305571 0.96094,0.9609375 V 25.546875 c 0,0.530379 -0.4305,0.960937 -0.96094,0.960937 h -7.91211 c -0.53044,0 -0.96094,-0.430558 -0.96094,-0.960937 V 9.8769531 c 0,-0.5303804 0.4305,-0.9609375 0.96094,-0.9609375 z m 14.89062,0 h 7.91016 c 0.53044,0 0.96094,0.4305571 0.96094,0.9609375 V 25.546875 c 0,0.530379 -0.4305,0.960937 -0.96094,0.960937 h -7.91016 c -0.53044,0 -0.96093,-0.430558 -0.96093,-0.960937 V 9.8769531 c 0,-0.5303804 0.43049,-0.9609375 0.96093,-0.9609375 z m 71.80078,0 h 7.91211 c 0.53044,0 0.96094,0.4305571 0.96094,0.9609375 V 25.546875 c 0,0.530379 -0.4305,0.960937 -0.96094,0.960937 h -7.91211 c -0.53044,0 -0.96093,-0.430558 -0.96093,-0.960937 V 9.8769531 c 0,-0.5303804 0.43049,-0.9609375 0.96093,-0.9609375 z m 14.89063,0 h 7.91016 c 0.53044,0 0.96093,0.4305571 0.96093,0.9609375 V 25.546875 c 0,0.530379 -0.43049,0.960937 -0.96093,0.960937 h -7.91016 c -0.53044,0 -0.96094,-0.430558 -0.96094,-0.960937 V 9.8769531 c 0,-0.5303804 0.4305,-0.9609375 0.96094,-0.9609375 z m 131.60937,0 h 7.91016 c 0.53044,0 0.96094,0.4305571 0.96094,0.9609375 V 25.546875 c 0,0.530379 -0.4305,0.960937 -0.96094,0.960937 h -7.91016 c -0.53044,0 -0.96093,-0.430558 -0.96093,-0.960937 V 9.8769531 c 0,-0.5303804 0.43049,-0.9609375 0.96093,-0.9609375 z m 14.88868,0 h 7.91211 c 0.53044,0 0.96093,0.4305571 0.96093,0.9609375 V 25.546875 c 0,0.530379 -0.43049,0.960937 -0.96093,0.960937 h -7.91211 c -0.53044,0 -0.96094,-0.430558 -0.96094,-0.960937 V 9.8769531 c 0,-0.5303804 0.4305,-0.9609375 0.96094,-0.9609375 z m 71.80273,0 h 7.91016 c 0.53044,0 0.96093,0.4305571 0.96093,0.9609375 V 25.546875 c 0,0.530379 -0.43049,0.960937 -0.96093,0.960937 h -7.91016 c -0.53044,0 -0.96094,-0.430558 -0.96094,-0.960937 V 9.8769531 c 0,-0.5303804 0.4305,-0.9609375 0.96094,-0.9609375 z m 14.88867,0 h 7.91211 c 0.53044,0 0.96094,0.4305571 0.96094,0.9609375 V 25.546875 c 0,0.530379 -0.4305,0.960937 -0.96094,0.960937 h -7.91211 c -0.53044,0 -0.96094,-0.430558 -0.96093,-0.960937 V 9.8769531 c -10e-6,-0.5303804 0.43049,-0.9609375 0.96093,-0.9609375 z"
   sodipodi:nodetypes="ccccccccccccccccccccccccccccsssssssssssssssssssssssssssssssssssssssssssssssssssssssssssssssssssssssssssssssssssssssssssssssssssssssssssssssssssssssssssssssssssssssssssssssssssssssssssssssssssssssssssssssssssssssssssssssssssssssssssssssssssssssssssssssssssssssssssssssssssssssssccs" /><path
   id="path2"
   style="fill:#4a448a;stroke-width:0.569488"
   d="M 25.947266 0.00390625 L 29.460938 7.4238281 L 39.542969 7.4238281 L 36.029297 0.00390625 L 25.947266 0.00390625 z M 46.658203 22.443359 L 46.658203 25.990234 C 46.658203 27.100256 45.758326 28 44.648438 28 L 39.205078 28 L 44.300781 38.757812 C 45.054212 40.34896 46.657116 41.363281 48.417969 41.363281 L 229.6582 41.363281 L 229.6582 32.25 L 51.302734 32.25 L 46.658203 22.443359 z M 232.10547 32.25 L 232.10547 41.363281 L 461.75586 41.363281 L 461.75586 32.25 L 232.10547 32.25 z M 465.20703 32.25 L 465.20703 41.363281 L 694.85742 41.363281 L 694.85742 32.25 L 465.20703 32.25 z M 698.39844 32.25 L 698.39844 41.363281 L 928.04883 41.363281 L 928.04883 32.25 L 698.39844 32.25 z " /><path
   id="path3"
   style="fill:#c8092e;stroke-width:0.569488"
   d="M 13.791016 0.00390625 L 17.304688 7.4238281 L 27.386719 7.4238281 L 23.873047 0.00390625 L 13.791016 0.00390625 z M 27.050781 28 L 34.421875 43.564453 C 34.469142 43.664114 34.520119 43.763135 34.574219 43.859375 C 37.638628 49.274057 42.030378 51.821071 47.416016 52.171875 C 47.514538 52.178775 47.614371 52.181641 47.712891 52.181641 L 229.6582 52.181641 L 229.6582 43.070312 L 47.878906 43.070312 C 45.647087 42.88523 43.879322 41.723686 42.582031 39.507812 L 37.132812 28 L 27.050781 28 z M 232.09766 43.070312 L 232.10547 52.181641 L 461.75586 52.181641 L 461.75586 43.070312 L 232.09766 43.070312 z M 465.19922 43.070312 L 465.20703 52.181641 L 694.85742 52.181641 L 694.85742 43.070312 L 465.19922 43.070312 z M 698.38867 43.070312 L 698.39844 52.181641 L 928.04883 52.181641 L 928.04883 43.070312 L 698.38867 43.070312 z " /><rect
   x="54.673386"
   y="3.5240192"
   width="14.889985"
   height="52.477634"
   style="fill:#787878;fill-opacity:0.21;stroke:#c8c8c8;stroke-width:1.92087px"
   id="rect6" /><rect
   x="69.563286"
   y="3.5240192"
   width="14.889985"
   height="52.477634"
   style="fill:#787878;fill-opacity:0.21;stroke:#c8c8c8;stroke-width:1.92087px"
   id="rect7" /><rect
   x="141.36458"
   y="3.5240192"
   width="14.889985"
   height="52.477634"
   style="fill:#787878;fill-opacity:0.21;stroke:#c8c8c8;stroke-width:1.92087px"
   id="rect11" /><rect
   x="156.25449"
   y="3.5240192"
   width="14.889985"
   height="52.477634"
   style="fill:#787878;fill-opacity:0.21;stroke:#c8c8c8;stroke-width:1.92087px"
   id="rect12" /><rect
   x="286.77139"
   y="3.5240192"
   width="14.889985"
   height="52.477634"
   style="fill:#787878;fill-opacity:0.21;stroke:#c8c8c8;stroke-width:1.92087px"
   id="rect23" /><rect
   x="301.66122"
   y="3.5240192"
   width="14.889985"
   height="52.477634"
   style="fill:#787878;fill-opacity:0.21;stroke:#c8c8c8;stroke-width:1.92087px"
   id="rect24" /><rect
   x="373.46259"
   y="3.5240192"
   width="14.889985"
   height="52.477634"
   style="fill:#787878;fill-opacity:0.21;stroke:#c8c8c8;stroke-width:1.92087px"
   id="rect28" /><rect
   x="388.35245"
   y="3.5240192"
   width="14.889985"
   height="52.477634"
   style="fill:#787878;fill-opacity:0.21;stroke:#c8c8c8;stroke-width:1.92087px"
   id="rect29" /><rect
   x="519.87286"
   y="3.5240192"
   width="14.889985"
   height="52.477634"
   style="fill:#787878;fill-opacity:0.21;stroke:#c8c8c8;stroke-width:1.92087px"
   id="rect40" /><rect
   x="534.76276"
   y="3.5240192"
   width="14.889985"
   height="52.477634"
   style="fill:#787878;fill-opacity:0.21;stroke:#c8c8c8;stroke-width:1.92087px"
   id="rect41" /><rect
   x="606.56409"
   y="3.5240192"
   width="14.889985"
   height="52.477634"
   style="fill:#787878;fill-opacity:0.21;stroke:#c8c8c8;stroke-width:1.92087px"
   id="rect45" /><rect
   x="621.45392"
   y="3.5240192"
   width="14.889985"
   height="52.477634"
   style="fill:#787878;fill-opacity:0.21;stroke:#c8c8c8;stroke-width:1.92087px"
   id="rect46" /><rect
   x="753.06366"
   y="3.5240192"
   width="14.889985"
   height="52.477634"
   style="fill:#787878;fill-opacity:0.21;stroke:#c8c8c8;stroke-width:1.92087px"
   id="rect57" /><rect
   x="767.95349"
   y="3.5240192"
   width="14.889985"
   height="52.477634"
   style="fill:#787878;fill-opacity:0.21;stroke:#c8c8c8;stroke-width:1.92087px"
   id="rect58" /><rect
   x="839.75482"
   y="3.5240192"
   width="14.889985"
   height="52.477634"
   style="fill:#787878;fill-opacity:0.21;stroke:#c8c8c8;stroke-width:1.92087px"
   id="rect62" /><rect
   x="854.64465"
   y="3.5240192"
   width="14.889985"
   height="52.477634"
   style="fill:#787878;fill-opacity:0.21;stroke:#c8c8c8;stroke-width:1.92087px"
   id="rect63" />&#10;<path
   id="path4"
   style="fill:#787878;stroke-width:0.542893;fill-opacity:0.42682928"
   d="M 11.853516 7.4238281 C 10.743619 7.4238281 9.84375 8.3235712 9.84375 9.4335938 L 9.84375 25.990234 C 9.84375 27.100257 10.743619 28 11.853516 28 L 44.648438 28 C 45.758333 28 46.658203 27.100257 46.658203 25.990234 L 46.658203 9.4335938 C 46.658203 8.3235712 45.758333 7.4238281 44.648438 7.4238281 L 11.853516 7.4238281 z M 96.503906 7.4238281 C 95.394009 7.4238281 94.492188 8.3235712 94.492188 9.4335938 L 94.492188 25.990234 C 94.492187 27.100257 95.394009 28 96.503906 28 L 129.29688 28 C 130.40676 28 131.30664 27.100257 131.30664 25.990234 L 131.30664 9.4335938 C 131.30664 8.3235712 130.40676 7.4238281 129.29688 7.4238281 L 96.503906 7.4238281 z M 184.26758 7.4238281 C 183.15768 7.4238281 182.25781 8.3235712 182.25781 9.4335938 L 182.25781 25.990234 C 182.25781 27.100257 183.15768 28 184.26758 28 L 217.06055 28 C 218.17045 28 219.07031 27.100257 219.07031 25.990234 L 219.07031 9.4335938 C 219.07031 8.3235712 218.17045 7.4238281 217.06055 7.4238281 L 184.26758 7.4238281 z M 243.95312 7.4238281 C 242.84324 7.4238281 241.94141 8.3235712 241.94141 9.4335938 L 241.94141 25.990234 C 241.94141 27.100257 242.84324 28 243.95312 28 L 276.74609 28 C 277.85599 28 278.75586 27.100257 278.75586 25.990234 L 278.75586 9.4335938 C 278.75586 8.3235712 277.85599 7.4238281 276.74609 7.4238281 L 243.95312 7.4238281 z M 328.60156 7.4238281 C 327.49166 7.4238281 326.58984 8.3235712 326.58984 9.4335938 L 326.58984 25.990234 C 326.58984 27.100257 327.49166 28 328.60156 28 L 361.39453 28 C 362.50443 28 363.4043 27.100257 363.4043 25.990234 L 363.4043 9.4335938 C 363.4043 8.3235712 362.50443 7.4238281 361.39453 7.4238281 L 328.60156 7.4238281 z M 416.36523 7.4238281 C 415.25535 7.4238281 414.35547 8.3235712 414.35547 9.4335938 L 414.35547 25.990234 C 414.35547 27.100257 415.25535 28 416.36523 28 L 449.1582 28 C 450.2681 28 451.16992 27.100257 451.16992 25.990234 L 451.16992 9.4335938 C 451.16992 8.3235712 450.2681 7.4238281 449.1582 7.4238281 L 416.36523 7.4238281 z M 477.05469 7.4238281 C 475.94479 7.4238281 475.04297 8.3235712 475.04297 9.4335938 L 475.04297 25.990234 C 475.04297 27.100257 475.94479 28 477.05469 28 L 509.84766 28 C 510.95756 28 511.85742 27.100257 511.85742 25.990234 L 511.85742 9.4335938 C 511.85742 8.3235712 510.95756 7.4238281 509.84766 7.4238281 L 477.05469 7.4238281 z M 561.70312 7.4238281 C 560.59324 7.4238281 559.69141 8.3235712 559.69141 9.4335938 L 559.69141 25.990234 C 559.69141 27.100257 560.59324 28 561.70312 28 L 594.49609 28 C 595.60599 28 596.50586 27.100257 596.50586 25.990234 L 596.50586 9.4335938 C 596.50586 8.3235712 595.60599 7.4238281 594.49609 7.4238281 L 561.70312 7.4238281 z M 649.4668 7.4238281 C 648.3569 7.4238281 647.45703 8.3235712 647.45703 9.4335938 L 647.45703 25.990234 C 647.45703 27.100257 648.3569 28 649.4668 28 L 682.25977 28 C 683.36965 28 684.27148 27.100257 684.27148 25.990234 L 684.27148 9.4335938 C 684.27148 8.3235712 683.36965 7.4238281 682.25977 7.4238281 L 649.4668 7.4238281 z M 710.24414 7.4238281 C 709.13424 7.4238281 708.23438 8.3235712 708.23438 9.4335938 L 708.23438 25.990234 C 708.23438 27.100257 709.13424 28 710.24414 28 L 743.03711 28 C 744.14701 28 745.04883 27.100257 745.04883 25.990234 L 745.04883 9.4335938 C 745.04883 8.3235712 744.14701 7.4238281 743.03711 7.4238281 L 710.24414 7.4238281 z M 794.89258 7.4238281 C 793.78268 7.4238281 792.88281 8.3235712 792.88281 9.4335938 L 792.88281 25.990234 C 792.88281 27.100257 793.78268 28 794.89258 28 L 827.68555 28 C 828.79545 28 829.69727 27.100257 829.69727 25.990234 L 829.69727 9.4335938 C 829.69727 8.3235712 828.79545 7.4238281 827.68555 7.4238281 L 794.89258 7.4238281 z M 882.6582 7.4238281 C 881.5483 7.4238281 880.64648 8.3235712 880.64648 9.4335938 L 880.64648 25.990234 C 880.64648 27.100257 881.5483 28 882.6582 28 L 915.45117 28 C 916.56107 28 917.46094 27.100257 917.46094 25.990234 L 917.46094 9.4335938 C 917.46094 8.3235712 916.56107 7.4238281 915.45117 7.4238281 L 882.6582 7.4238281 z M 58.162109 8.9160156 C 57.631668 8.9160156 57.201172 9.3465717 57.201172 9.8769531 L 57.201172 25.546875 C 57.201172 26.077255 57.631668 26.507812 58.162109 26.507812 L 66.074219 26.507812 C 66.60466 26.507812 67.035156 26.077255 67.035156 25.546875 L 67.035156 9.8769531 C 67.035156 9.3465717 66.60466 8.9160156 66.074219 8.9160156 L 58.162109 8.9160156 z M 73.052734 8.9160156 C 72.522293 8.9160156 72.091797 9.3465717 72.091797 9.8769531 L 72.091797 25.546875 C 72.091797 26.077255 72.522293 26.507812 73.052734 26.507812 L 80.962891 26.507812 C 81.493332 26.507812 81.923828 26.077255 81.923828 25.546875 L 81.923828 9.8769531 C 81.923828 9.3465717 81.493332 8.9160156 80.962891 8.9160156 L 73.052734 8.9160156 z M 144.85352 8.9160156 C 144.32308 8.9160156 143.89258 9.3465717 143.89258 9.8769531 L 143.89258 25.546875 C 143.89258 26.077255 144.32308 26.507812 144.85352 26.507812 L 152.76562 26.507812 C 153.29606 26.507812 153.72461 26.077255 153.72461 25.546875 L 153.72461 9.8769531 C 153.72461 9.3465717 153.29606 8.9160156 152.76562 8.9160156 L 144.85352 8.9160156 z M 159.74219 8.9160156 C 159.21175 8.9160156 158.7832 9.3465717 158.7832 9.8769531 L 158.7832 25.546875 C 158.7832 26.077255 159.21175 26.507812 159.74219 26.507812 L 167.6543 26.507812 C 168.18474 26.507812 168.61523 26.077255 168.61523 25.546875 L 168.61523 9.8769531 C 168.61523 9.3465717 168.18474 8.9160156 167.6543 8.9160156 L 159.74219 8.9160156 z M 290.25977 8.9160156 C 289.72933 8.9160156 289.29883 9.3465717 289.29883 9.8769531 L 289.29883 25.546875 C 289.29883 26.077255 289.72933 26.507812 290.25977 26.507812 L 298.17188 26.507812 C 298.7023 26.507812 299.13281 26.077255 299.13281 25.546875 L 299.13281 9.8769531 C 299.13281 9.3465717 298.7023 8.9160156 298.17188 8.9160156 L 290.25977 8.9160156 z M 305.15039 8.9160156 C 304.61995 8.9160156 304.18945 9.3465717 304.18945 9.8769531 L 304.18945 25.546875 C 304.18945 26.077255 304.61995 26.507812 305.15039 26.507812 L 313.06055 26.507812 C 313.59099 26.507812 314.02148 26.077255 314.02148 25.546875 L 314.02148 9.8769531 C 314.02148 9.3465717 313.59099 8.9160156 313.06055 8.9160156 L 305.15039 8.9160156 z M 376.95117 8.9160156 C 376.42073 8.9160156 375.99023 9.3465717 375.99023 9.8769531 L 375.99023 25.546875 C 375.99023 26.077255 376.42073 26.507812 376.95117 26.507812 L 384.86328 26.507812 C 385.39372 26.507812 385.82422 26.077255 385.82422 25.546875 L 385.82422 9.8769531 C 385.82422 9.3465717 385.39372 8.9160156 384.86328 8.9160156 L 376.95117 8.9160156 z M 391.8418 8.9160156 C 391.31136 8.9160156 390.88086 9.3465717 390.88086 9.8769531 L 390.88086 25.546875 C 390.88086 26.077255 391.31136 26.507812 391.8418 26.507812 L 399.75195 26.507812 C 400.28239 26.507812 400.71289 26.077255 400.71289 25.546875 L 400.71289 9.8769531 C 400.71289 9.3465717 400.28239 8.9160156 399.75195 8.9160156 L 391.8418 8.9160156 z M 523.36133 8.9160156 C 522.83089 8.9160156 522.40039 9.3465717 522.40039 9.8769531 L 522.40039 25.546875 C 522.40039 26.077255 522.83089 26.507812 523.36133 26.507812 L 531.27344 26.507812 C 531.80388 26.507812 532.23438 26.077255 532.23438 25.546875 L 532.23438 9.8769531 C 532.23438 9.3465717 531.80388 8.9160156 531.27344 8.9160156 L 523.36133 8.9160156 z M 538.25195 8.9160156 C 537.72151 8.9160156 537.29102 9.3465717 537.29102 9.8769531 L 537.29102 25.546875 C 537.29102 26.077255 537.72151 26.507812 538.25195 26.507812 L 546.16211 26.507812 C 546.69255 26.507812 547.12305 26.077255 547.12305 25.546875 L 547.12305 9.8769531 C 547.12305 9.3465717 546.69255 8.9160156 546.16211 8.9160156 L 538.25195 8.9160156 z M 610.05273 8.9160156 C 609.52229 8.9160156 609.0918 9.3465717 609.0918 9.8769531 L 609.0918 25.546875 C 609.0918 26.077255 609.52229 26.507812 610.05273 26.507812 L 617.96484 26.507812 C 618.49528 26.507812 618.92578 26.077255 618.92578 25.546875 L 618.92578 9.8769531 C 618.92578 9.3465717 618.49528 8.9160156 617.96484 8.9160156 L 610.05273 8.9160156 z M 624.94336 8.9160156 C 624.41292 8.9160156 623.98242 9.3465717 623.98242 9.8769531 L 623.98242 25.546875 C 623.98242 26.077255 624.41292 26.507812 624.94336 26.507812 L 632.85352 26.507812 C 633.38396 26.507812 633.81445 26.077255 633.81445 25.546875 L 633.81445 9.8769531 C 633.81445 9.3465717 633.38396 8.9160156 632.85352 8.9160156 L 624.94336 8.9160156 z M 756.55273 8.9160156 C 756.02229 8.9160156 755.5918 9.3465717 755.5918 9.8769531 L 755.5918 25.546875 C 755.5918 26.077255 756.02229 26.507812 756.55273 26.507812 L 764.46289 26.507812 C 764.99333 26.507812 765.42383 26.077255 765.42383 25.546875 L 765.42383 9.8769531 C 765.42383 9.3465717 764.99333 8.9160156 764.46289 8.9160156 L 756.55273 8.9160156 z M 771.44141 8.9160156 C 770.91097 8.9160156 770.48047 9.3465717 770.48047 9.8769531 L 770.48047 25.546875 C 770.48047 26.077255 770.91097 26.507812 771.44141 26.507812 L 779.35352 26.507812 C 779.88396 26.507812 780.31445 26.077255 780.31445 25.546875 L 780.31445 9.8769531 C 780.31445 9.3465717 779.88396 8.9160156 779.35352 8.9160156 L 771.44141 8.9160156 z M 843.24414 8.9160156 C 842.7137 8.9160156 842.2832 9.3465717 842.2832 9.8769531 L 842.2832 25.546875 C 842.2832 26.077255 842.7137 26.507812 843.24414 26.507812 L 851.1543 26.507812 C 851.68474 26.507812 852.11523 26.077255 852.11523 25.546875 L 852.11523 9.8769531 C 852.11523 9.3465717 851.68474 8.9160156 851.1543 8.9160156 L 843.24414 8.9160156 z M 858.13281 8.9160156 C 857.60237 8.9160156 857.17187 9.3465717 857.17188 9.8769531 L 857.17188 25.546875 C 857.17187 26.077255 857.60237 26.507812 858.13281 26.507812 L 866.04492 26.507812 C 866.57536 26.507812 867.00586 26.077255 867.00586 25.546875 L 867.00586 9.8769531 C 867.00586 9.3465717 866.57536 8.9160156 866.04492 8.9160156 L 858.13281 8.9160156 z " /></svg>
