<?xml version="1.0" encoding="UTF-8" standalone="no"?>
<svg
   xmlns:dc="http://purl.org/dc/elements/1.1/"
   xmlns:cc="http://creativecommons.org/ns#"
   xmlns:rdf="http://www.w3.org/1999/02/22-rdf-syntax-ns#"
   xmlns:svg="http://www.w3.org/2000/svg"
   xmlns="http://www.w3.org/2000/svg"
   version="1.0"
   id="svg7837"
   height="1000"
   width="1000"
   xml:space="preserve"><metadata
     id="metadata8331"><rdf:RDF><cc:Work
         rdf:about=""><dc:format>image/svg+xml</dc:format><dc:type
           rdf:resource="http://purl.org/dc/dcmitype/StillImage" /><dc:title></dc:title></cc:Work></rdf:RDF></metadata><defs
     id="defs8329" /><path
     id="path7361"
     d="M 0,936.49449 C 0,971.63421 28.365779,1000 63.505501,1000 L 936.49453,1000 C 971.63414,1000 1000,971.63421 1000,936.49449 L 1000,63.5055 C 1000,28.36579 971.63414,-1.1368684e-13 936.49453,-1.1368684e-13 L 63.505501,-1.1368684e-13 C 28.365779,-1.1368684e-13 0,28.36579 0,63.5055 L 0,936.49449 z"
     style="fill:#ffffff;fill-opacity:1;fill-rule:evenodd;stroke:#000000;stroke-width:5;stroke-linecap:butt;stroke-linejoin:bevel;stroke-miterlimit:4;stroke-dasharray:none" /><path
     d="M 16.51142,936.49449 L 16.51142,63.5055 C 16.51142,37.67993 37.67993,16.51143 63.505501,16.51143 L 936.49453,16.51143 C 962.32004,16.51143 983.48858,37.67993 983.48858,63.5055 L 983.48858,936.49449 C 983.48858,962.32006 962.32004,983.48857 936.49453,983.48857 L 63.505501,983.48857 C 37.67993,983.48857 16.51142,962.32006 16.51142,936.49449 z M 41.490255,936.49449 C 41.490255,948.77223 51.227761,958.50973 63.505501,958.50973 L 936.49453,958.50973 C 948.77227,958.50973 958.50966,948.77223 958.50966,936.49449 L 958.50966,63.5055 C 958.50966,51.22777 948.77227,41.49026 936.49453,41.49026 L 63.505501,41.49026 C 51.651142,41.49026 41.490255,51.22777 41.490255,63.5055 L 41.490255,936.49449 z"
     style="fill:#000000;fill-opacity:1;fill-rule:evenodd;stroke:none;stroke-width:0.18000001;stroke-linecap:butt;stroke-linejoin:bevel"
     id="path7365" /><path
     id="path1440"
     d="m 327.34554,613.82979 0,-204.00686 c 0,-89.50851 72.56099,-162.0695 162.0695,-162.0695 89.50852,0 162.0695,72.56099 162.0695,162.06951 v 325.28345"
     style="opacity:1;vector-effect:none;fill:none;fill-opacity:1;stroke:#000000;stroke-width:81.4509964;stroke-linecap:butt;stroke-linejoin:round;stroke-miterlimit:4;stroke-dasharray:none;stroke-dashoffset:0;stroke-opacity:1;paint-order:markers fill stroke" /><circle
     r="374.46808"
     cy="500"
     cx="500"
     id="path1438"
     style="opacity:1;vector-effect:none;fill:none;fill-opacity:1;stroke:#007969;stroke-width:85;stroke-linecap:butt;stroke-linejoin:round;stroke-miterlimit:4;stroke-dasharray:none;stroke-dashoffset:0;stroke-opacity:1;paint-order:markers fill stroke" /><path
     d="M 327.98828,744.96094 450.04297,575.7832 c 8.05726,-11.12669 -0.57656,-25.38188 -13.29492,-25.12109 -1.3157,0.027 -2.67527,0.20919 -4.06446,0.56641 l -65.19921,18.20507 h -79.2383 l -65.19921,-18.20507 c -1.38919,-0.35722 -2.74876,-0.53941 -4.06446,-0.56641 -12.71836,-0.26079 -21.35218,13.9944 -13.29492,25.12109 l 122.05469,169.17774"
     style="fill:#000000;fill-opacity:1;fill-rule:evenodd;stroke:#ed1c24;stroke-width:0.18000001;stroke-linecap:butt;stroke-linejoin:bevel"
     id="path1467" /></svg>